<?xml version="1.0" encoding="utf-8" standalone="no"?>
<!DOCTYPE svg PUBLIC "-//W3C//DTD SVG 1.1//EN"
  "http://www.w3.org/Graphics/SVG/1.1/DTD/svg11.dtd">
<svg height="216pt" version="1.1" viewBox="0 0 288 216" width="288pt" xmlns="http://www.w3.org/2000/svg" xmlns:xlink="http://www.w3.org/1999/xlink">
 <metadata>
  <rdf:RDF xmlns:cc="http://creativecommons.org/ns#" xmlns:dc="http://purl.org/dc/elements/1.1/" xmlns:rdf="http://www.w3.org/1999/02/22-rdf-syntax-ns#">
   <cc:Work>
    <dc:type rdf:resource="http://purl.org/dc/dcmitype/StillImage"/>
    <dc:date>2021-12-07T00:28:38.940255</dc:date>
    <dc:format>image/svg+xml</dc:format>
    <dc:creator>
     <cc:Agent>
      <dc:title>Matplotlib v3.4.3, https://matplotlib.org/</dc:title>
     </cc:Agent>
    </dc:creator>
   </cc:Work>
  </rdf:RDF>
 </metadata>
 <defs>
  <style type="text/css">*{stroke-linecap:butt;stroke-linejoin:round;}</style>
 </defs>
 <g id="figure_1">
  <g id="patch_1">
   <path d="M 0 216 
L 288 216 
L 288 0 
L 0 0 
z
" style="fill:#ffffff;"/>
  </g>
  <g id="axes_1">
   <g id="patch_2">
    <path d="M 36 189 
L 259.2 189 
L 259.2 25.92 
L 36 25.92 
z
" style="fill:#ffffff;"/>
   </g>
   <g id="matplotlib.axis_1">
    <g id="xtick_1">
     <g id="text_1">
      <!-- $\mathdefault{−2}$ -->
      <g style="fill:#262626;" transform="translate(50.681127 206.871378)scale(0.121 -0.121)">
       <defs>
        <path d="M 4218 1472 
C 4326 1472 4442 1472 4442 1600 
C 4442 1728 4326 1728 4218 1728 
L 755 1728 
C 646 1728 531 1728 531 1600 
C 531 1472 646 1472 755 1472 
L 4218 1472 
z
" id="CMSY10-0" transform="scale(0.015625)"/>
        <path d="M 2669 990 
L 2554 990 
C 2490 537 2438 460 2413 422 
C 2381 371 1920 371 1830 371 
L 602 371 
C 832 620 1280 1073 1824 1596 
C 2214 1966 2669 2400 2669 3033 
C 2669 3788 2067 4224 1395 4224 
C 691 4224 262 3603 262 3027 
C 262 2777 448 2745 525 2745 
C 589 2745 781 2783 781 3007 
C 781 3206 614 3264 525 3264 
C 486 3264 448 3257 422 3244 
C 544 3788 915 4057 1306 4057 
C 1862 4057 2227 3616 2227 3033 
C 2227 2477 1901 1998 1536 1583 
L 262 147 
L 262 0 
L 2515 0 
L 2669 990 
z
" id="CMR17-32" transform="scale(0.015625)"/>
       </defs>
       <use transform="scale(0.996264)" xlink:href="#CMSY10-0"/>
       <use transform="translate(77.487468 0)scale(0.996264)" xlink:href="#CMR17-32"/>
      </g>
     </g>
    </g>
    <g id="xtick_2">
     <g id="text_2">
      <!-- $\mathdefault{−1}$ -->
      <g style="fill:#262626;" transform="translate(95.321127 206.871378)scale(0.121 -0.121)">
       <defs>
        <path d="M 1702 4083 
C 1702 4217 1696 4224 1606 4224 
C 1357 3927 979 3833 621 3820 
C 602 3820 570 3820 563 3808 
C 557 3795 557 3782 557 3648 
C 755 3648 1088 3686 1344 3839 
L 1344 467 
C 1344 243 1331 166 781 166 
L 589 166 
L 589 0 
C 896 6 1216 12 1523 12 
C 1830 12 2150 6 2458 0 
L 2458 166 
L 2266 166 
C 1715 166 1702 236 1702 467 
L 1702 4083 
z
" id="CMR17-31" transform="scale(0.015625)"/>
       </defs>
       <use transform="scale(0.996264)" xlink:href="#CMSY10-0"/>
       <use transform="translate(77.487468 0)scale(0.996264)" xlink:href="#CMR17-31"/>
      </g>
     </g>
    </g>
    <g id="xtick_3">
     <g id="text_3">
      <!-- $\mathdefault{0}$ -->
      <g style="fill:#262626;" transform="translate(144.649121 206.871378)scale(0.121 -0.121)">
       <defs>
        <path d="M 2688 2038 
C 2688 2430 2682 3099 2413 3613 
C 2176 4063 1798 4224 1466 4224 
C 1158 4224 768 4082 525 3620 
C 269 3137 243 2539 243 2038 
C 243 1671 250 1112 448 623 
C 723 -39 1216 -128 1466 -128 
C 1760 -128 2208 -7 2470 604 
C 2662 1048 2688 1568 2688 2038 
z
M 1466 -26 
C 1056 -26 813 328 723 816 
C 653 1196 653 1749 653 2109 
C 653 2604 653 3015 736 3407 
C 858 3954 1216 4121 1466 4121 
C 1728 4121 2067 3947 2189 3420 
C 2272 3054 2278 2623 2278 2109 
C 2278 1691 2278 1176 2202 797 
C 2067 96 1690 -26 1466 -26 
z
" id="CMR17-30" transform="scale(0.015625)"/>
       </defs>
       <use transform="scale(0.996264)" xlink:href="#CMR17-30"/>
      </g>
     </g>
    </g>
    <g id="xtick_4">
     <g id="text_4">
      <!-- $\mathdefault{1}$ -->
      <g style="fill:#262626;" transform="translate(189.289121 206.871378)scale(0.121 -0.121)">
       <use transform="scale(0.996264)" xlink:href="#CMR17-31"/>
      </g>
     </g>
    </g>
    <g id="xtick_5">
     <g id="text_5">
      <!-- $\mathdefault{2}$ -->
      <g style="fill:#262626;" transform="translate(233.929121 206.871378)scale(0.121 -0.121)">
       <use transform="scale(0.996264)" xlink:href="#CMR17-32"/>
      </g>
     </g>
    </g>
   </g>
   <g id="matplotlib.axis_2">
    <g id="ytick_1">
     <g id="text_6">
      <!-- $\mathdefault{−2}$ -->
      <g style="fill:#262626;" transform="translate(11.222254 176.877689)scale(0.121 -0.121)">
       <use transform="scale(0.996264)" xlink:href="#CMSY10-0"/>
       <use transform="translate(77.487468 0)scale(0.996264)" xlink:href="#CMR17-32"/>
      </g>
     </g>
    </g>
    <g id="ytick_2">
     <g id="text_7">
      <!-- $\mathdefault{−1}$ -->
      <g style="fill:#262626;" transform="translate(11.222254 144.261689)scale(0.121 -0.121)">
       <use transform="scale(0.996264)" xlink:href="#CMSY10-0"/>
       <use transform="translate(77.487468 0)scale(0.996264)" xlink:href="#CMR17-31"/>
      </g>
     </g>
    </g>
    <g id="ytick_3">
     <g id="text_8">
      <!-- $\mathdefault{0}$ -->
      <g style="fill:#262626;" transform="translate(20.598242 111.645689)scale(0.121 -0.121)">
       <use transform="scale(0.996264)" xlink:href="#CMR17-30"/>
      </g>
     </g>
    </g>
    <g id="ytick_4">
     <g id="text_9">
      <!-- $\mathdefault{1}$ -->
      <g style="fill:#262626;" transform="translate(20.598242 79.029689)scale(0.121 -0.121)">
       <use transform="scale(0.996264)" xlink:href="#CMR17-31"/>
      </g>
     </g>
    </g>
    <g id="ytick_5">
     <g id="text_10">
      <!-- $\mathdefault{2}$ -->
      <g style="fill:#262626;" transform="translate(20.598242 46.413689)scale(0.121 -0.121)">
       <use transform="scale(0.996264)" xlink:href="#CMR17-32"/>
      </g>
     </g>
    </g>
   </g>
   <g id="PathCollection_1">
    <defs>
     <path d="M 0 3 
C 0.795609 3 1.55874 2.683901 2.12132 2.12132 
C 2.683901 1.55874 3 0.795609 3 0 
C 3 -0.795609 2.683901 -1.55874 2.12132 -2.12132 
C 1.55874 -2.683901 0.795609 -3 0 -3 
C -0.795609 -3 -1.55874 -2.683901 -2.12132 -2.12132 
C -2.683901 -1.55874 -3 -0.795609 -3 0 
C -3 0.795609 -2.683901 1.55874 -2.12132 2.12132 
C -1.55874 2.683901 -0.795609 3 0 3 
z
" id="mc336129183" style="stroke:#000000;"/>
    </defs>
    <g clip-path="url(#p6f76cdd549)">
     <use style="stroke:#000000;" x="102.96" xlink:href="#mc336129183" y="140.076"/>
    </g>
   </g>
   <g id="PathCollection_2">
    <defs>
     <path d="M 0 3 
C 0.795609 3 1.55874 2.683901 2.12132 2.12132 
C 2.683901 1.55874 3 0.795609 3 0 
C 3 -0.795609 2.683901 -1.55874 2.12132 -2.12132 
C 1.55874 -2.683901 0.795609 -3 0 -3 
C -0.795609 -3 -1.55874 -2.683901 -2.12132 -2.12132 
C -2.683901 -1.55874 -3 -0.795609 -3 0 
C -3 0.795609 -2.683901 1.55874 -2.12132 2.12132 
C -1.55874 2.683901 -0.795609 3 0 3 
z
" id="m523d0250dd" style="stroke:#ff0000;"/>
    </defs>
    <g clip-path="url(#p6f76cdd549)">
     <use style="fill:#ff0000;stroke:#ff0000;" x="113.602928" xlink:href="#m523d0250dd" y="140.076"/>
    </g>
   </g>
   <g id="LineCollection_1"/>
   <g id="LineCollection_2">
    <path clip-path="url(#p6f76cdd549)" d="M 73.542141 142.010846 
L 73.108106 139.246778 
L 73.223213 136.482711 
L 73.830509 133.624761 
L 74.652629 130.954575 
L 75.840227 128.190507 
L 77.61356 125.107961 
L 79.081942 122.662371 
L 83.268292 117.134236 
L 88.962713 111.033337 
L 91.143767 108.842032 
L 97.41915 103.313896 
L 104.094917 98.099058 
L 108.350101 95.021693 
L 115.44407 90.265249 
L 123.010172 85.670471 
L 131.262198 81.201353 
L 134.359324 79.563778 
L 145.708477 74.291995 
L 157.05763 69.872202 
L 160.840681 68.507506 
L 172.189834 65.160268 
L 179.755936 63.401988 
L 183.538987 62.719599 
L 187.322032 62.186669 
L 194.888134 61.516539 
L 198.671185 61.451882 
L 202.454236 61.626709 
L 206.237287 62.081031 
L 210.020338 62.907352 
L 214.438113 64.61695 
L 217.58644 66.682682 
L 218.396165 67.381018 
L 220.544 70.145086 
L 221.657859 72.909154 
L 222.091894 75.673222 
L 221.976787 78.437289 
L 221.369491 81.295246 
L 220.547372 83.965421 
L 219.359774 86.729489 
L 217.58644 89.812041 
L 216.11806 92.257625 
L 211.931711 97.785761 
L 206.237287 103.886662 
L 204.056237 106.077964 
L 197.780856 111.6061 
L 191.105083 116.82094 
L 186.849902 119.898303 
L 179.755936 124.654747 
L 172.189834 129.249527 
L 163.937814 133.718643 
L 160.840681 135.356221 
L 149.491528 140.628003 
L 138.142375 145.047798 
L 134.359324 146.412492 
L 123.010172 149.759728 
L 115.44407 151.518008 
L 111.661019 152.2004 
L 107.877968 152.733331 
L 100.311866 153.403461 
L 96.528815 153.468118 
L 92.745764 153.293291 
L 88.962713 152.838969 
L 85.179662 152.012648 
L 80.761887 150.30305 
L 77.61356 148.237318 
L 76.803835 147.538982 
L 74.656 144.774914 
L 73.542141 142.010846 
L 73.542141 142.010846 
" style="fill:none;stroke:#f0f0f0;stroke-opacity:0.5;stroke-width:1.5;"/>
   </g>
   <g id="LineCollection_3">
    <path clip-path="url(#p6f76cdd549)" d="M 88.211961 136.482711 
L 87.531191 133.718643 
L 87.561565 130.954575 
L 88.138299 128.190507 
L 88.962713 126.027225 
L 89.166245 125.426439 
L 90.503415 122.662371 
L 92.227521 119.898303 
L 92.745764 119.2137 
L 94.195401 117.134236 
L 96.52039 114.370168 
L 96.528815 114.361266 
L 98.992405 111.6061 
L 100.311866 110.321478 
L 101.769774 108.842032 
L 104.094917 106.746477 
L 104.817629 106.077964 
L 107.877968 103.514613 
L 108.115078 103.313896 
L 111.652598 100.549828 
L 111.661019 100.543583 
L 115.435522 97.785761 
L 115.44407 97.779785 
L 119.227121 95.188311 
L 119.479129 95.021693 
L 123.010172 92.747191 
L 123.810156 92.257625 
L 126.793223 90.447609 
L 128.474082 89.493557 
L 130.576273 88.289853 
L 133.53491 86.729489 
L 134.359324 86.283299 
L 138.142375 84.374979 
L 139.020149 83.965421 
L 141.925426 82.54869 
L 145.038885 81.201353 
L 145.708477 80.893322 
L 149.491528 79.289231 
L 151.768176 78.437289 
L 153.274579 77.826981 
L 157.05763 76.460834 
L 159.556702 75.673222 
L 160.840681 75.227029 
L 164.623732 74.07556 
L 168.406783 73.104024 
L 169.303723 72.909154 
L 172.189834 72.204323 
L 175.972885 71.464757 
L 179.755936 70.902548 
L 183.538987 70.52186 
L 187.322032 70.345803 
L 191.105083 70.422641 
L 194.888134 70.837372 
L 198.671185 71.732768 
L 201.557285 72.909154 
L 202.454236 73.407505 
L 205.249963 75.673222 
L 206.237287 77.105819 
L 206.988039 78.437289 
L 207.668809 81.201353 
L 207.638435 83.965421 
L 207.061701 86.729489 
L 206.237287 88.892771 
L 206.033755 89.493557 
L 204.696587 92.257625 
L 202.972483 95.021693 
L 202.454236 95.706302 
L 201.004601 97.785761 
L 198.67961 100.549828 
L 198.671185 100.55873 
L 196.207599 103.313896 
L 194.888134 104.598524 
L 193.430232 106.077964 
L 191.105083 108.173522 
L 190.382376 108.842032 
L 187.322032 111.405386 
L 187.084926 111.6061 
L 183.547408 114.370168 
L 183.538987 114.376413 
L 179.764478 117.134236 
L 179.755936 117.140208 
L 175.972885 119.731688 
L 175.720879 119.898303 
L 172.189834 122.172803 
L 171.389847 122.662371 
L 168.406783 124.47239 
L 166.725926 125.426439 
L 164.623732 126.630143 
L 161.665096 128.190507 
L 160.840681 128.636697 
L 157.05763 130.545018 
L 156.179857 130.954575 
L 153.274579 132.371306 
L 150.16112 133.718643 
L 149.491528 134.026674 
L 145.708477 135.630765 
L 143.43182 136.482711 
L 141.925426 137.093016 
L 138.142375 138.459165 
L 135.643299 139.246778 
L 134.359324 139.692969 
L 130.576273 140.844438 
L 126.793223 141.815976 
L 125.89628 142.010846 
L 123.010172 142.715673 
L 119.227121 143.45524 
L 115.44407 144.017448 
L 111.661019 144.39814 
L 107.877968 144.574197 
L 104.094917 144.497359 
L 100.311866 144.082628 
L 96.528815 143.187232 
L 93.642715 142.010846 
L 92.745764 141.512495 
L 89.950037 139.246778 
L 88.962713 137.814181 
L 88.211961 136.482711 
" style="fill:none;stroke:#d9d9d9;stroke-opacity:0.5;stroke-width:1.5;"/>
   </g>
   <g id="LineCollection_4">
    <path clip-path="url(#p6f76cdd549)" d="M 99.748349 133.718643 
L 98.200554 130.954575 
L 97.785618 128.190507 
L 98.123795 125.426439 
L 99.025507 122.662371 
L 100.311866 120.104471 
L 100.407541 119.898303 
L 102.133438 117.134236 
L 104.094917 114.597611 
L 104.261302 114.370168 
L 106.656518 111.6061 
L 107.877968 110.388448 
L 109.382831 108.842032 
L 111.661019 106.777756 
L 112.421982 106.077964 
L 115.44407 103.574512 
L 115.758919 103.313896 
L 119.227121 100.674402 
L 119.393506 100.549828 
L 123.010172 98.010472 
L 123.340615 97.785761 
L 126.793223 95.541286 
L 127.63147 95.021693 
L 130.576273 93.243756 
L 132.31629 92.257625 
L 134.359324 91.108995 
L 137.468721 89.493557 
L 138.142375 89.140061 
L 141.925426 87.291573 
L 143.182237 86.729489 
L 145.708477 85.567646 
L 149.491528 84.018538 
L 149.633623 83.965421 
L 153.274579 82.540454 
L 157.05763 81.255578 
L 157.23887 81.201353 
L 160.840681 80.052724 
L 164.623732 79.035291 
L 167.302308 78.437289 
L 168.406783 78.169724 
L 172.189834 77.464446 
L 175.972885 76.973294 
L 179.755936 76.722016 
L 183.538987 76.768538 
L 187.322032 77.219634 
L 191.105083 78.26297 
L 191.506155 78.437289 
L 194.888134 80.652721 
L 195.451644 81.201353 
L 196.999446 83.965421 
L 197.414382 86.729489 
L 197.076205 89.493557 
L 196.174495 92.257625 
L 194.888134 94.815533 
L 194.792464 95.021693 
L 193.066567 97.785761 
L 191.105083 100.322394 
L 190.938703 100.549828 
L 188.543487 103.313896 
L 187.322032 104.531553 
L 185.817173 106.077964 
L 183.538987 108.142243 
L 182.778027 108.842032 
L 179.755936 111.345484 
L 179.441086 111.6061 
L 175.972885 114.245594 
L 175.806499 114.370168 
L 172.189834 116.909524 
L 171.859391 117.134236 
L 168.406783 119.378717 
L 167.568544 119.898303 
L 164.623732 121.67624 
L 162.883715 122.662371 
L 160.840681 123.811001 
L 157.731288 125.426439 
L 157.05763 125.779938 
L 153.274579 127.628423 
L 152.017768 128.190507 
L 149.491528 129.35235 
L 145.708477 130.901458 
L 145.566383 130.954575 
L 141.925426 132.379542 
L 138.142375 133.664418 
L 137.961136 133.718643 
L 134.359324 134.867272 
L 130.576273 135.884706 
L 127.897703 136.482711 
L 126.793223 136.750279 
L 123.010172 137.455551 
L 119.227121 137.946706 
L 115.44407 138.197982 
L 111.661019 138.151462 
L 107.877968 137.700366 
L 104.094917 136.65703 
L 103.693845 136.482711 
L 100.311866 134.267282 
L 99.748349 133.718643 
" style="fill:none;stroke:#bdbdbd;stroke-opacity:0.5;stroke-width:1.5;"/>
   </g>
   <g id="LineCollection_5">
    <path clip-path="url(#p6f76cdd549)" d="M 107.602423 128.190507 
L 106.693426 125.426439 
L 106.82927 122.662371 
L 107.687602 119.898303 
L 107.877968 119.546101 
L 109.108605 117.134236 
L 110.982521 114.370168 
L 111.661019 113.568055 
L 113.26638 111.6061 
L 115.44407 109.358294 
L 115.935577 108.842032 
L 118.961276 106.077964 
L 119.227121 105.8595 
L 122.347002 103.313896 
L 123.010172 102.818155 
L 126.11473 100.549828 
L 126.793223 100.086124 
L 130.291557 97.785761 
L 130.576273 97.607105 
L 134.359324 95.344103 
L 134.930803 95.021693 
L 138.142375 93.262418 
L 140.125552 92.257625 
L 141.925426 91.354684 
L 145.708477 89.624417 
L 146.022298 89.493557 
L 149.491528 88.035901 
L 152.999034 86.729489 
L 153.274579 86.624074 
L 157.05763 85.363019 
L 160.840681 84.287832 
L 162.237728 83.965421 
L 164.623732 83.390953 
L 168.406783 82.716504 
L 172.189834 82.294475 
L 175.972885 82.187955 
L 179.755936 82.522359 
L 183.538987 83.534748 
L 184.444654 83.965421 
L 187.322032 86.377286 
L 187.597577 86.729489 
L 188.506566 89.493557 
L 188.370737 92.257625 
L 187.512404 95.021693 
L 187.322032 95.373907 
L 186.091401 97.785761 
L 184.217483 100.549828 
L 183.538987 101.351941 
L 181.933623 103.313896 
L 179.755936 105.561697 
L 179.264424 106.077964 
L 176.238729 108.842032 
L 175.972885 109.060496 
L 172.852998 111.6061 
L 172.189834 112.101837 
L 169.08528 114.370168 
L 168.406783 114.833876 
L 164.908448 117.134236 
L 164.623732 117.312891 
L 160.840681 119.575893 
L 160.269204 119.898303 
L 157.05763 121.657579 
L 155.074453 122.662371 
L 153.274579 123.565312 
L 149.491528 125.295579 
L 149.177707 125.426439 
L 145.708477 126.884096 
L 142.200971 128.190507 
L 141.925426 128.295923 
L 138.142375 129.556977 
L 134.359324 130.632165 
L 132.962277 130.954575 
L 130.576273 131.529043 
L 126.793223 132.203496 
L 123.010172 132.625523 
L 119.227121 132.732047 
L 115.44407 132.397638 
L 111.661019 131.385254 
L 110.755336 130.954575 
L 107.877968 128.542711 
L 107.602423 128.190507 
" style="fill:none;stroke:#959595;stroke-opacity:0.5;stroke-width:1.5;"/>
   </g>
   <g id="LineCollection_6">
    <path clip-path="url(#p6f76cdd549)" d="M 115.322416 122.662371 
L 115.192955 119.898303 
L 115.44407 119.104461 
L 116.043041 117.134236 
L 117.571942 114.370168 
L 119.227121 112.161008 
L 119.63583 111.6061 
L 122.20235 108.842032 
L 123.010172 108.102556 
L 125.235733 106.077964 
L 126.793223 104.829235 
L 128.725935 103.313896 
L 130.576273 102.001774 
L 132.704148 100.549828 
L 134.359324 99.503607 
L 137.22992 97.785761 
L 138.142375 97.268435 
L 141.925426 95.273957 
L 142.44673 95.021693 
L 145.708477 93.501296 
L 148.65506 92.257625 
L 149.491528 91.910085 
L 153.274579 90.546001 
L 156.64249 89.493557 
L 157.05763 89.363687 
L 160.840681 88.447335 
L 164.623732 87.78679 
L 168.406783 87.44828 
L 172.189834 87.579792 
L 175.972885 88.494755 
L 177.810846 89.493557 
L 179.755936 92.009174 
L 179.877579 92.257625 
L 180.007042 95.021693 
L 179.755936 95.815514 
L 179.156964 97.785761 
L 177.628061 100.549828 
L 175.972885 102.758988 
L 175.564174 103.313896 
L 172.997655 106.077964 
L 172.189834 106.81744 
L 169.964273 108.842032 
L 168.406783 110.090761 
L 166.474071 111.6061 
L 164.623732 112.918222 
L 162.495857 114.370168 
L 160.840681 115.416389 
L 157.970086 117.134236 
L 157.05763 117.651562 
L 153.274579 119.646039 
L 152.753275 119.898303 
L 149.491528 121.418701 
L 146.544946 122.662371 
L 145.708477 123.009911 
L 141.925426 124.373998 
L 138.55753 125.426439 
L 138.142375 125.556313 
L 134.359324 126.472662 
L 130.576273 127.13321 
L 126.793223 127.471721 
L 123.010172 127.340211 
L 119.227121 126.425241 
L 117.389151 125.426439 
L 115.44407 122.910844 
L 115.322416 122.662371 
" style="fill:none;stroke:#727272;stroke-opacity:0.5;stroke-width:1.5;"/>
   </g>
   <g id="LineCollection_7">
    <path clip-path="url(#p6f76cdd549)" d="M 125.362339 119.898303 
L 124.290712 117.134236 
L 124.96532 114.370168 
L 126.550681 111.6061 
L 126.793223 111.327285 
L 128.977878 108.842032 
L 130.576273 107.363623 
L 132.004988 106.077964 
L 134.359324 104.279225 
L 135.680525 103.313896 
L 138.142375 101.731174 
L 140.097526 100.549828 
L 141.925426 99.547557 
L 145.404952 97.785761 
L 145.708477 97.642402 
L 149.491528 96.107987 
L 152.53993 95.021693 
L 153.274579 94.773785 
L 157.05763 93.831678 
L 160.840681 93.222953 
L 164.623732 93.136537 
L 168.406783 94.054838 
L 169.837657 95.021693 
L 170.909281 97.785761 
L 170.234683 100.549828 
L 168.649324 103.313896 
L 168.406783 103.592711 
L 166.222125 106.077964 
L 164.623732 107.556371 
L 163.195018 108.842032 
L 160.840681 110.640771 
L 159.519481 111.6061 
L 157.05763 113.188822 
L 155.102479 114.370168 
L 153.274579 115.372439 
L 149.795053 117.134236 
L 149.491528 117.277594 
L 145.708477 118.81201 
L 142.660076 119.898303 
L 141.925426 120.146212 
L 138.142375 121.088324 
L 134.359324 121.697051 
L 130.576273 121.783466 
L 126.793223 120.865162 
L 125.362339 119.898303 
" style="fill:none;stroke:#515151;stroke-opacity:0.5;stroke-width:1.5;"/>
   </g>
   <g id="LineCollection_8">
    <path clip-path="url(#p6f76cdd549)" d="M 136.996634 111.6061 
L 138.142375 109.122931 
L 138.285185 108.842032 
L 141.381063 106.077964 
L 141.925426 105.710134 
L 145.708477 103.40647 
L 145.899615 103.313896 
L 149.491528 101.986815 
L 153.274579 100.995518 
L 157.05763 101.447998 
L 158.203366 103.313896 
L 157.05763 105.797066 
L 156.91482 106.077964 
L 153.818943 108.842032 
L 153.274579 109.209862 
L 149.491528 111.513526 
L 149.300391 111.6061 
L 145.708477 112.933189 
L 141.925426 113.924478 
L 138.142375 113.471999 
L 136.996634 111.6061 
" style="fill:none;stroke:#242424;stroke-opacity:0.5;stroke-width:1.5;"/>
   </g>
   <g id="LineCollection_9"/>
   <g id="line2d_1">
    <path clip-path="url(#p6f76cdd549)" d="M 44.035203 140.064513 
L 45.405969 140.060181 
L 46.776735 140.054359 
L 48.14749 140.046584 
L 49.518256 140.036279 
L 50.889022 140.022711 
L 52.259788 140.004974 
L 53.630543 139.981948 
L 55.001309 139.95227 
L 56.372075 139.914285 
L 57.74284 139.866016 
L 59.113601 139.805114 
L 60.484362 139.728823 
L 61.855127 139.633941 
L 63.225888 139.516792 
L 64.596654 139.373201 
L 65.96742 139.19849 
L 67.338186 138.987477 
L 68.708946 138.734513 
L 70.079712 138.43352 
L 71.450473 138.078082 
L 72.821238 137.661543 
L 74.191999 137.177156 
L 75.562765 136.618239 
L 76.933531 135.978405 
L 78.304297 135.251781 
L 79.675057 134.433273 
L 81.045823 133.518849 
L 82.416584 132.505834 
L 83.78735 131.393201 
L 85.15811 130.181862 
L 86.528876 128.874903 
L 87.899637 127.477844 
L 89.270402 125.998754 
L 90.641163 124.448399 
L 92.011929 122.84021 
L 93.382689 121.190261 
L 94.753455 119.517047 
L 96.124216 117.841265 
L 97.494982 116.185396 
L 98.865742 114.573295 
L 100.236508 113.029591 
L 101.607269 111.579147 
L 102.978032 110.246337 
L 104.348795 109.054421 
L 105.719561 108.024858 
L 107.090324 107.17666 
L 108.461087 106.525811 
L 109.831853 106.084776 
L 111.202617 105.862087 
L 112.57338 105.862087 
L 113.944143 106.084776 
L 115.314906 106.525811 
L 116.685672 107.176656 
L 118.056435 108.024858 
L 119.427198 109.054417 
L 120.797962 110.246331 
L 122.168725 111.579141 
L 123.539488 113.029589 
L 124.910251 114.573288 
L 126.281016 116.185396 
L 127.651779 117.841259 
L 129.022544 119.517047 
L 130.393307 121.190257 
L 131.764067 122.840207 
L 133.134831 124.448392 
L 134.505594 125.998751 
L 135.876358 127.477842 
L 137.247122 128.8749 
L 138.617885 130.18186 
L 139.988649 131.393201 
L 141.359413 132.505834 
L 142.730178 133.518851 
L 144.100942 134.433273 
L 145.471706 135.251783 
L 146.842469 135.978405 
L 148.213233 136.618239 
L 149.583996 137.177154 
L 150.95476 137.661543 
L 152.325524 138.078082 
L 153.696287 138.43352 
L 155.06705 138.734513 
L 156.437814 138.987477 
L 157.808578 139.19849 
L 159.179341 139.373201 
L 160.550104 139.516792 
L 161.920869 139.633941 
L 163.291632 139.728823 
L 164.662394 139.805114 
L 166.033157 139.866016 
L 167.403922 139.914285 
L 168.774685 139.95227 
L 170.145448 139.981948 
L 171.516211 140.004974 
L 172.886975 140.022711 
L 174.257738 140.036279 
L 175.628504 140.046584 
L 176.999267 140.054359 
L 178.37003 140.060181 
L 179.740793 140.064513 
" style="fill:none;stroke:#4c72b0;stroke-linecap:round;stroke-width:1.5;"/>
   </g>
   <g id="patch_3">
    <path d="M 36 189 
L 36 25.92 
" style="fill:none;stroke:#cccccc;stroke-linecap:square;stroke-linejoin:miter;stroke-width:1.25;"/>
   </g>
   <g id="patch_4">
    <path d="M 259.2 189 
L 259.2 25.92 
" style="fill:none;stroke:#cccccc;stroke-linecap:square;stroke-linejoin:miter;stroke-width:1.25;"/>
   </g>
   <g id="patch_5">
    <path d="M 36 189 
L 259.2 189 
" style="fill:none;stroke:#cccccc;stroke-linecap:square;stroke-linejoin:miter;stroke-width:1.25;"/>
   </g>
   <g id="patch_6">
    <path d="M 36 25.92 
L 259.2 25.92 
" style="fill:none;stroke:#cccccc;stroke-linecap:square;stroke-linejoin:miter;stroke-width:1.25;"/>
   </g>
  </g>
 </g>
 <defs>
  <clipPath id="p6f76cdd549">
   <rect height="163.08" width="223.2" x="36" y="25.92"/>
  </clipPath>
 </defs>
</svg>
