<?xml version="1.0" encoding="utf-8" standalone="no"?>
<!DOCTYPE svg PUBLIC "-//W3C//DTD SVG 1.1//EN"
  "http://www.w3.org/Graphics/SVG/1.1/DTD/svg11.dtd">
<svg xmlns:xlink="http://www.w3.org/1999/xlink" width="288pt" height="216pt" viewBox="0 0 288 216" xmlns="http://www.w3.org/2000/svg" version="1.1">
 <metadata>
  <rdf:RDF xmlns:dc="http://purl.org/dc/elements/1.1/" xmlns:cc="http://creativecommons.org/ns#" xmlns:rdf="http://www.w3.org/1999/02/22-rdf-syntax-ns#">
   <cc:Work>
    <dc:type rdf:resource="http://purl.org/dc/dcmitype/StillImage"/>
    <dc:date>2022-12-14T21:21:44.440652</dc:date>
    <dc:format>image/svg+xml</dc:format>
    <dc:creator>
     <cc:Agent>
      <dc:title>Matplotlib v3.5.2, https://matplotlib.org/</dc:title>
     </cc:Agent>
    </dc:creator>
   </cc:Work>
  </rdf:RDF>
 </metadata>
 <defs>
  <style type="text/css">*{stroke-linejoin: round; stroke-linecap: butt}</style>
 </defs>
 <g id="figure_1">
  <g id="patch_1">
   <path d="M 0 216 
L 288 216 
L 288 0 
L 0 0 
z
" style="fill: #ffffff"/>
  </g>
  <g id="axes_1">
   <g id="patch_2">
    <path d="M 57.6 192.24 
L 259.2 192.24 
L 259.2 25.92 
L 57.6 25.92 
z
" style="fill: #ffffff"/>
   </g>
   <g id="matplotlib.axis_1">
    <g id="xtick_1">
     <g id="text_1">
      <!-- $\mathdefault{0}$ -->
      <g style="fill: #262626" transform="translate(54.185756 211.425876)scale(0.14 -0.14)">
       <defs>
        <path id="CMR17-30" d="M 2688 2038 
C 2688 2430 2682 3099 2413 3613 
C 2176 4063 1798 4224 1466 4224 
C 1158 4224 768 4082 525 3620 
C 269 3137 243 2539 243 2038 
C 243 1671 250 1112 448 623 
C 723 -39 1216 -128 1466 -128 
C 1760 -128 2208 -7 2470 604 
C 2662 1048 2688 1568 2688 2038 
z
M 1466 -26 
C 1056 -26 813 328 723 816 
C 653 1196 653 1749 653 2109 
C 653 2604 653 3015 736 3407 
C 858 3954 1216 4121 1466 4121 
C 1728 4121 2067 3947 2189 3420 
C 2272 3054 2278 2623 2278 2109 
C 2278 1691 2278 1176 2202 797 
C 2067 96 1690 -26 1466 -26 
z
" transform="scale(0.015625)"/>
       </defs>
       <use xlink:href="#CMR17-30" transform="scale(0.996264)"/>
      </g>
     </g>
    </g>
    <g id="xtick_2">
     <g id="text_2">
      <!-- $\mathdefault{2}$ -->
      <g style="fill: #262626" transform="translate(134.825756 211.425876)scale(0.14 -0.14)">
       <defs>
        <path id="CMR17-32" d="M 2669 990 
L 2554 990 
C 2490 537 2438 460 2413 422 
C 2381 371 1920 371 1830 371 
L 602 371 
C 832 620 1280 1073 1824 1596 
C 2214 1966 2669 2400 2669 3033 
C 2669 3788 2067 4224 1395 4224 
C 691 4224 262 3603 262 3027 
C 262 2777 448 2745 525 2745 
C 589 2745 781 2783 781 3007 
C 781 3206 614 3264 525 3264 
C 486 3264 448 3257 422 3244 
C 544 3788 915 4057 1306 4057 
C 1862 4057 2227 3616 2227 3033 
C 2227 2477 1901 1998 1536 1583 
L 262 147 
L 262 0 
L 2515 0 
L 2669 990 
z
" transform="scale(0.015625)"/>
       </defs>
       <use xlink:href="#CMR17-32" transform="scale(0.996264)"/>
      </g>
     </g>
    </g>
    <g id="xtick_3">
     <g id="text_3">
      <!-- $\mathdefault{4}$ -->
      <g style="fill: #262626" transform="translate(215.465756 211.425876)scale(0.14 -0.14)">
       <defs>
        <path id="CMR17-34" d="M 2150 4147 
C 2150 4281 2144 4288 2029 4288 
L 128 1254 
L 128 1088 
L 1779 1088 
L 1779 460 
C 1779 230 1766 166 1318 166 
L 1197 166 
L 1197 0 
C 1402 12 1747 12 1965 12 
C 2182 12 2528 12 2733 0 
L 2733 166 
L 2611 166 
C 2163 166 2150 230 2150 460 
L 2150 1088 
L 2803 1088 
L 2803 1254 
L 2150 1254 
L 2150 4147 
z
M 1798 3723 
L 1798 1254 
L 256 1254 
L 1798 3723 
z
" transform="scale(0.015625)"/>
       </defs>
       <use xlink:href="#CMR17-34" transform="scale(0.996264)"/>
      </g>
     </g>
    </g>
   </g>
   <g id="matplotlib.axis_2">
    <g id="ytick_1">
     <g id="text_4">
      <!-- $\mathdefault{0.0}$ -->
      <g style="fill: #262626" transform="translate(30.649418 197.082938)scale(0.14 -0.14)">
       <defs>
        <path id="CMMI12-3a" d="M 1178 307 
C 1178 492 1024 620 870 620 
C 685 620 557 467 557 313 
C 557 128 710 0 864 0 
C 1050 0 1178 153 1178 307 
z
" transform="scale(0.015625)"/>
       </defs>
       <use xlink:href="#CMR17-30" transform="scale(0.996264)"/>
       <use xlink:href="#CMMI12-3a" transform="translate(45.690477 0)scale(0.996264)"/>
       <use xlink:href="#CMR17-30" transform="translate(72.787654 0)scale(0.996264)"/>
      </g>
     </g>
    </g>
    <g id="ytick_2">
     <g id="text_5">
      <!-- $\mathdefault{0.2}$ -->
      <g style="fill: #262626" transform="translate(30.649418 163.765554)scale(0.14 -0.14)">
       <use xlink:href="#CMR17-30" transform="scale(0.996264)"/>
       <use xlink:href="#CMMI12-3a" transform="translate(45.690477 0)scale(0.996264)"/>
       <use xlink:href="#CMR17-32" transform="translate(72.787654 0)scale(0.996264)"/>
      </g>
     </g>
    </g>
    <g id="ytick_3">
     <g id="text_6">
      <!-- $\mathdefault{0.4}$ -->
      <g style="fill: #262626" transform="translate(30.649418 130.448171)scale(0.14 -0.14)">
       <use xlink:href="#CMR17-30" transform="scale(0.996264)"/>
       <use xlink:href="#CMMI12-3a" transform="translate(45.690477 0)scale(0.996264)"/>
       <use xlink:href="#CMR17-34" transform="translate(72.787654 0)scale(0.996264)"/>
      </g>
     </g>
    </g>
    <g id="ytick_4">
     <g id="text_7">
      <!-- $\mathdefault{0.6}$ -->
      <g style="fill: #262626" transform="translate(30.649418 97.130787)scale(0.14 -0.14)">
       <defs>
        <path id="CMR17-36" d="M 678 2198 
C 678 3712 1395 4076 1811 4076 
C 1946 4076 2272 4049 2400 3782 
C 2298 3782 2106 3782 2106 3558 
C 2106 3385 2246 3328 2336 3328 
C 2394 3328 2566 3353 2566 3571 
C 2566 3987 2246 4224 1805 4224 
C 1043 4224 243 3411 243 2011 
C 243 257 966 -128 1478 -128 
C 2099 -128 2688 431 2688 1295 
C 2688 2101 2170 2688 1517 2688 
C 1126 2688 838 2430 678 1979 
L 678 2198 
z
M 1478 25 
C 691 25 691 1212 691 1450 
C 691 1914 909 2585 1504 2585 
C 1613 2585 1926 2585 2138 2140 
C 2253 1889 2253 1624 2253 1302 
C 2253 954 2253 696 2118 438 
C 1978 173 1773 25 1478 25 
z
" transform="scale(0.015625)"/>
       </defs>
       <use xlink:href="#CMR17-30" transform="scale(0.996264)"/>
       <use xlink:href="#CMMI12-3a" transform="translate(45.690477 0)scale(0.996264)"/>
       <use xlink:href="#CMR17-36" transform="translate(72.787654 0)scale(0.996264)"/>
      </g>
     </g>
    </g>
    <g id="ytick_5">
     <g id="text_8">
      <!-- $\mathdefault{0.8}$ -->
      <g style="fill: #262626" transform="translate(30.649418 63.813403)scale(0.14 -0.14)">
       <defs>
        <path id="CMR17-38" d="M 1741 2289 
C 2144 2494 2554 2803 2554 3298 
C 2554 3884 1990 4224 1472 4224 
C 890 4224 378 3800 378 3215 
C 378 3054 416 2777 666 2533 
C 730 2469 998 2276 1171 2154 
C 883 2006 211 1652 211 945 
C 211 282 838 -128 1459 -128 
C 2144 -128 2720 366 2720 1022 
C 2720 1607 2330 1877 2074 2051 
L 1741 2289 
z
M 902 2855 
C 851 2887 595 3086 595 3388 
C 595 3781 998 4076 1459 4076 
C 1965 4076 2336 3716 2336 3298 
C 2336 2700 1670 2359 1638 2359 
C 1632 2359 1626 2359 1574 2398 
L 902 2855 
z
M 2080 1536 
C 2176 1466 2483 1253 2483 861 
C 2483 385 2010 25 1472 25 
C 890 25 448 443 448 951 
C 448 1459 838 1884 1280 2083 
L 2080 1536 
z
" transform="scale(0.015625)"/>
       </defs>
       <use xlink:href="#CMR17-30" transform="scale(0.996264)"/>
       <use xlink:href="#CMMI12-3a" transform="translate(45.690477 0)scale(0.996264)"/>
       <use xlink:href="#CMR17-38" transform="translate(72.787654 0)scale(0.996264)"/>
      </g>
     </g>
    </g>
    <g id="text_9">
     <!-- Density -->
     <g style="fill: #262626" transform="translate(24.092357 128.948828)rotate(-90)scale(0.132 -0.132)">
      <defs>
       <path id="CMSS17-44" d="M 570 4416 
L 570 0 
L 2144 0 
C 3194 0 4000 981 4000 2169 
C 4000 3396 3194 4416 2144 4416 
L 570 4416 
z
M 1094 358 
L 1094 4057 
L 2003 4057 
C 2861 4057 3475 3275 3475 2169 
C 3475 1108 2867 358 2003 358 
L 1094 358 
z
" transform="scale(0.015625)"/>
       <path id="CMSS17-65" d="M 2502 1375 
C 2502 1587 2490 2001 2285 2347 
C 2061 2713 1696 2816 1421 2816 
C 755 2816 192 2184 192 1363 
C 192 579 774 -64 1510 -64 
C 1798 -64 2150 19 2470 249 
C 2470 275 2458 414 2451 421 
C 2451 433 2432 629 2432 655 
C 2125 408 1773 326 1517 326 
C 1107 326 666 667 646 1375 
L 2502 1375 
z
M 698 1728 
C 781 2086 1062 2425 1421 2425 
C 1517 2425 1965 2412 2080 1728 
L 698 1728 
z
" transform="scale(0.015625)"/>
       <path id="CMSS17-6e" d="M 2618 1878 
C 2618 2283 2522 2816 1798 2816 
C 1389 2816 1120 2604 941 2386 
L 941 2783 
L 474 2783 
L 474 0 
L 960 0 
L 960 1556 
C 960 1962 1114 2425 1549 2425 
C 2112 2425 2131 2045 2131 1826 
L 2131 0 
L 2618 0 
L 2618 1878 
z
" transform="scale(0.015625)"/>
       <path id="CMSS17-73" d="M 2061 2623 
C 1683 2803 1389 2816 1197 2816 
C 742 2816 198 2655 198 2009 
C 198 1363 902 1222 1094 1183 
C 1389 1126 1715 1062 1715 742 
C 1715 339 1254 339 1171 339 
C 915 339 563 409 243 639 
L 166 211 
C 531 0 883 -64 1178 -64 
C 1965 -64 2163 416 2163 780 
C 2163 1094 1984 1305 1862 1401 
C 1651 1567 1574 1587 1050 1695 
C 960 1708 646 1779 646 2067 
C 646 2431 1050 2431 1139 2431 
C 1555 2431 1811 2303 1984 2207 
L 2061 2623 
z
" transform="scale(0.015625)"/>
       <path id="CMSS17-69" d="M 979 4224 
L 442 4224 
L 442 3686 
L 979 3686 
L 979 4224 
z
M 947 2752 
L 474 2752 
L 474 0 
L 947 0 
L 947 2752 
z
" transform="scale(0.015625)"/>
       <path id="CMSS17-74" d="M 1069 2380 
L 1901 2380 
L 1901 2752 
L 1069 2752 
L 1069 3520 
L 614 3520 
L 614 2752 
L 109 2752 
L 109 2380 
L 602 2380 
L 602 751 
C 602 384 685 -64 1107 -64 
C 1427 -64 1722 25 2003 172 
L 1901 551 
C 1747 416 1562 339 1363 339 
C 1082 339 1069 699 1069 860 
L 1069 2380 
z
" transform="scale(0.015625)"/>
       <path id="CMSS17-79" d="M 2675 2752 
L 2176 2752 
C 1632 1293 1446 701 1434 383 
L 1427 383 
C 1408 695 1126 1459 902 2006 
L 602 2752 
L 83 2752 
L 1216 14 
C 1146 -177 1043 -464 1011 -527 
C 870 -884 774 -884 672 -884 
C 646 -884 442 -877 211 -807 
L 250 -1229 
C 410 -1261 570 -1280 685 -1280 
C 845 -1280 1165 -1280 1459 -495 
L 2675 2752 
z
" transform="scale(0.015625)"/>
      </defs>
      <use xlink:href="#CMSS17-44" transform="scale(0.996264)"/>
      <use xlink:href="#CMSS17-65" transform="translate(67.542842 0)scale(0.996264)"/>
      <use xlink:href="#CMSS17-6e" transform="translate(109.181664 0)scale(0.996264)"/>
      <use xlink:href="#CMSS17-73" transform="translate(157.386607 0)scale(0.996264)"/>
      <use xlink:href="#CMSS17-69" transform="translate(193.300149 0)scale(0.996264)"/>
      <use xlink:href="#CMSS17-74" transform="translate(215.480872 0)scale(0.996264)"/>
      <use xlink:href="#CMSS17-79" transform="translate(246.709985 0)scale(0.996264)"/>
     </g>
    </g>
   </g>
   <g id="patch_3">
    <path d="M 57.601983 192.24 
L 61.702444 192.24 
L 61.702444 33.84 
L 57.601983 33.84 
z
" clip-path="url(#p4ff77a1380)" style="fill: #4c72b0; fill-opacity: 0.75; stroke: #ffffff; stroke-width: 0.213108; stroke-linejoin: miter"/>
   </g>
   <g id="patch_4">
    <path d="M 61.702444 192.24 
L 65.802905 192.24 
L 65.802905 46.125419 
L 61.702444 46.125419 
z
" clip-path="url(#p4ff77a1380)" style="fill: #4c72b0; fill-opacity: 0.75; stroke: #ffffff; stroke-width: 0.213108; stroke-linejoin: miter"/>
   </g>
   <g id="patch_5">
    <path d="M 65.802905 192.24 
L 69.903367 192.24 
L 69.903367 64.307839 
L 65.802905 64.307839 
z
" clip-path="url(#p4ff77a1380)" style="fill: #4c72b0; fill-opacity: 0.75; stroke: #ffffff; stroke-width: 0.213108; stroke-linejoin: miter"/>
   </g>
   <g id="patch_6">
    <path d="M 69.903367 192.24 
L 74.003828 192.24 
L 74.003828 78.067508 
L 69.903367 78.067508 
z
" clip-path="url(#p4ff77a1380)" style="fill: #4c72b0; fill-opacity: 0.75; stroke: #ffffff; stroke-width: 0.213108; stroke-linejoin: miter"/>
   </g>
   <g id="patch_7">
    <path d="M 74.003828 192.24 
L 78.104289 192.24 
L 78.104289 86.257787 
L 74.003828 86.257787 
z
" clip-path="url(#p4ff77a1380)" style="fill: #4c72b0; fill-opacity: 0.75; stroke: #ffffff; stroke-width: 0.213108; stroke-linejoin: miter"/>
   </g>
   <g id="patch_8">
    <path d="M 78.104289 192.24 
L 82.204751 192.24 
L 82.204751 97.887983 
L 78.104289 97.887983 
z
" clip-path="url(#p4ff77a1380)" style="fill: #4c72b0; fill-opacity: 0.75; stroke: #ffffff; stroke-width: 0.213108; stroke-linejoin: miter"/>
   </g>
   <g id="patch_9">
    <path d="M 82.204751 192.24 
L 86.305212 192.24 
L 86.305212 111.811458 
L 82.204751 111.811458 
z
" clip-path="url(#p4ff77a1380)" style="fill: #4c72b0; fill-opacity: 0.75; stroke: #ffffff; stroke-width: 0.213108; stroke-linejoin: miter"/>
   </g>
   <g id="patch_10">
    <path d="M 86.305212 192.24 
L 90.405673 192.24 
L 90.405673 113.285708 
L 86.305212 113.285708 
z
" clip-path="url(#p4ff77a1380)" style="fill: #4c72b0; fill-opacity: 0.75; stroke: #ffffff; stroke-width: 0.213108; stroke-linejoin: miter"/>
   </g>
   <g id="patch_11">
    <path d="M 90.405673 192.24 
L 94.506134 192.24 
L 94.506134 117.380848 
L 90.405673 117.380848 
z
" clip-path="url(#p4ff77a1380)" style="fill: #4c72b0; fill-opacity: 0.75; stroke: #ffffff; stroke-width: 0.213108; stroke-linejoin: miter"/>
   </g>
   <g id="patch_12">
    <path d="M 94.506134 192.24 
L 98.606596 192.24 
L 98.606596 130.812906 
L 94.506134 130.812906 
z
" clip-path="url(#p4ff77a1380)" style="fill: #4c72b0; fill-opacity: 0.75; stroke: #ffffff; stroke-width: 0.213108; stroke-linejoin: miter"/>
   </g>
   <g id="patch_13">
    <path d="M 98.606596 192.24 
L 102.707057 192.24 
L 102.707057 141.624074 
L 98.606596 141.624074 
z
" clip-path="url(#p4ff77a1380)" style="fill: #4c72b0; fill-opacity: 0.75; stroke: #ffffff; stroke-width: 0.213108; stroke-linejoin: miter"/>
   </g>
   <g id="patch_14">
    <path d="M 102.707057 192.24 
L 106.807518 192.24 
L 106.807518 140.641241 
L 102.707057 140.641241 
z
" clip-path="url(#p4ff77a1380)" style="fill: #4c72b0; fill-opacity: 0.75; stroke: #ffffff; stroke-width: 0.213108; stroke-linejoin: miter"/>
   </g>
   <g id="patch_15">
    <path d="M 106.807518 192.24 
L 110.90798 192.24 
L 110.90798 140.31363 
L 106.807518 140.31363 
z
" clip-path="url(#p4ff77a1380)" style="fill: #4c72b0; fill-opacity: 0.75; stroke: #ffffff; stroke-width: 0.213108; stroke-linejoin: miter"/>
   </g>
   <g id="patch_16">
    <path d="M 110.90798 192.24 
L 115.008441 192.24 
L 115.008441 148.340103 
L 110.90798 148.340103 
z
" clip-path="url(#p4ff77a1380)" style="fill: #4c72b0; fill-opacity: 0.75; stroke: #ffffff; stroke-width: 0.213108; stroke-linejoin: miter"/>
   </g>
   <g id="patch_17">
    <path d="M 115.008441 192.24 
L 119.108902 192.24 
L 119.108902 155.711355 
L 115.008441 155.711355 
z
" clip-path="url(#p4ff77a1380)" style="fill: #4c72b0; fill-opacity: 0.75; stroke: #ffffff; stroke-width: 0.213108; stroke-linejoin: miter"/>
   </g>
   <g id="patch_18">
    <path d="M 119.108902 192.24 
L 123.209363 192.24 
L 123.209363 156.038966 
L 119.108902 156.038966 
z
" clip-path="url(#p4ff77a1380)" style="fill: #4c72b0; fill-opacity: 0.75; stroke: #ffffff; stroke-width: 0.213108; stroke-linejoin: miter"/>
   </g>
   <g id="patch_19">
    <path d="M 123.209363 192.24 
L 127.309825 192.24 
L 127.309825 162.754995 
L 123.209363 162.754995 
z
" clip-path="url(#p4ff77a1380)" style="fill: #4c72b0; fill-opacity: 0.75; stroke: #ffffff; stroke-width: 0.213108; stroke-linejoin: miter"/>
   </g>
   <g id="patch_20">
    <path d="M 127.309825 192.24 
L 131.410286 192.24 
L 131.410286 166.850134 
L 127.309825 166.850134 
z
" clip-path="url(#p4ff77a1380)" style="fill: #4c72b0; fill-opacity: 0.75; stroke: #ffffff; stroke-width: 0.213108; stroke-linejoin: miter"/>
   </g>
   <g id="patch_21">
    <path d="M 131.410286 192.24 
L 135.510747 192.24 
L 135.510747 163.901634 
L 131.410286 163.901634 
z
" clip-path="url(#p4ff77a1380)" style="fill: #4c72b0; fill-opacity: 0.75; stroke: #ffffff; stroke-width: 0.213108; stroke-linejoin: miter"/>
   </g>
   <g id="patch_22">
    <path d="M 135.510747 192.24 
L 139.611209 192.24 
L 139.611209 167.505357 
L 135.510747 167.505357 
z
" clip-path="url(#p4ff77a1380)" style="fill: #4c72b0; fill-opacity: 0.75; stroke: #ffffff; stroke-width: 0.213108; stroke-linejoin: miter"/>
   </g>
   <g id="patch_23">
    <path d="M 139.611209 192.24 
L 143.71167 192.24 
L 143.71167 171.928108 
L 139.611209 171.928108 
z
" clip-path="url(#p4ff77a1380)" style="fill: #4c72b0; fill-opacity: 0.75; stroke: #ffffff; stroke-width: 0.213108; stroke-linejoin: miter"/>
   </g>
   <g id="patch_24">
    <path d="M 143.71167 192.24 
L 147.812131 192.24 
L 147.812131 174.385191 
L 143.71167 174.385191 
z
" clip-path="url(#p4ff77a1380)" style="fill: #4c72b0; fill-opacity: 0.75; stroke: #ffffff; stroke-width: 0.213108; stroke-linejoin: miter"/>
   </g>
   <g id="patch_25">
    <path d="M 147.812131 192.24 
L 151.912593 192.24 
L 151.912593 177.661303 
L 147.812131 177.661303 
z
" clip-path="url(#p4ff77a1380)" style="fill: #4c72b0; fill-opacity: 0.75; stroke: #ffffff; stroke-width: 0.213108; stroke-linejoin: miter"/>
   </g>
   <g id="patch_26">
    <path d="M 151.912593 192.24 
L 156.013054 192.24 
L 156.013054 176.514664 
L 151.912593 176.514664 
z
" clip-path="url(#p4ff77a1380)" style="fill: #4c72b0; fill-opacity: 0.75; stroke: #ffffff; stroke-width: 0.213108; stroke-linejoin: miter"/>
   </g>
   <g id="patch_27">
    <path d="M 156.013054 192.24 
L 160.113515 192.24 
L 160.113515 176.842275 
L 156.013054 176.842275 
z
" clip-path="url(#p4ff77a1380)" style="fill: #4c72b0; fill-opacity: 0.75; stroke: #ffffff; stroke-width: 0.213108; stroke-linejoin: miter"/>
   </g>
   <g id="patch_28">
    <path d="M 160.113515 192.24 
L 164.213976 192.24 
L 164.213976 179.790776 
L 160.113515 179.790776 
z
" clip-path="url(#p4ff77a1380)" style="fill: #4c72b0; fill-opacity: 0.75; stroke: #ffffff; stroke-width: 0.213108; stroke-linejoin: miter"/>
   </g>
   <g id="patch_29">
    <path d="M 164.213976 192.24 
L 168.314438 192.24 
L 168.314438 180.282192 
L 164.213976 180.282192 
z
" clip-path="url(#p4ff77a1380)" style="fill: #4c72b0; fill-opacity: 0.75; stroke: #ffffff; stroke-width: 0.213108; stroke-linejoin: miter"/>
   </g>
   <g id="patch_30">
    <path d="M 168.314438 192.24 
L 172.414899 192.24 
L 172.414899 180.445998 
L 168.314438 180.445998 
z
" clip-path="url(#p4ff77a1380)" style="fill: #4c72b0; fill-opacity: 0.75; stroke: #ffffff; stroke-width: 0.213108; stroke-linejoin: miter"/>
   </g>
   <g id="patch_31">
    <path d="M 172.414899 192.24 
L 176.51536 192.24 
L 176.51536 182.739276 
L 172.414899 182.739276 
z
" clip-path="url(#p4ff77a1380)" style="fill: #4c72b0; fill-opacity: 0.75; stroke: #ffffff; stroke-width: 0.213108; stroke-linejoin: miter"/>
   </g>
   <g id="patch_32">
    <path d="M 176.51536 192.24 
L 180.615822 192.24 
L 180.615822 182.411665 
L 176.51536 182.411665 
z
" clip-path="url(#p4ff77a1380)" style="fill: #4c72b0; fill-opacity: 0.75; stroke: #ffffff; stroke-width: 0.213108; stroke-linejoin: miter"/>
   </g>
   <g id="patch_33">
    <path d="M 180.615822 192.24 
L 184.716283 192.24 
L 184.716283 185.687777 
L 180.615822 185.687777 
z
" clip-path="url(#p4ff77a1380)" style="fill: #4c72b0; fill-opacity: 0.75; stroke: #ffffff; stroke-width: 0.213108; stroke-linejoin: miter"/>
   </g>
   <g id="patch_34">
    <path d="M 184.716283 192.24 
L 188.816744 192.24 
L 188.816744 185.687777 
L 184.716283 185.687777 
z
" clip-path="url(#p4ff77a1380)" style="fill: #4c72b0; fill-opacity: 0.75; stroke: #ffffff; stroke-width: 0.213108; stroke-linejoin: miter"/>
   </g>
   <g id="patch_35">
    <path d="M 188.816744 192.24 
L 192.917205 192.24 
L 192.917205 186.506805 
L 188.816744 186.506805 
z
" clip-path="url(#p4ff77a1380)" style="fill: #4c72b0; fill-opacity: 0.75; stroke: #ffffff; stroke-width: 0.213108; stroke-linejoin: miter"/>
   </g>
   <g id="patch_36">
    <path d="M 192.917205 192.24 
L 197.017667 192.24 
L 197.017667 186.015388 
L 192.917205 186.015388 
z
" clip-path="url(#p4ff77a1380)" style="fill: #4c72b0; fill-opacity: 0.75; stroke: #ffffff; stroke-width: 0.213108; stroke-linejoin: miter"/>
   </g>
   <g id="patch_37">
    <path d="M 197.017667 192.24 
L 201.118128 192.24 
L 201.118128 188.14486 
L 197.017667 188.14486 
z
" clip-path="url(#p4ff77a1380)" style="fill: #4c72b0; fill-opacity: 0.75; stroke: #ffffff; stroke-width: 0.213108; stroke-linejoin: miter"/>
   </g>
   <g id="patch_38">
    <path d="M 201.118128 192.24 
L 205.218589 192.24 
L 205.218589 186.179193 
L 201.118128 186.179193 
z
" clip-path="url(#p4ff77a1380)" style="fill: #4c72b0; fill-opacity: 0.75; stroke: #ffffff; stroke-width: 0.213108; stroke-linejoin: miter"/>
   </g>
   <g id="patch_39">
    <path d="M 205.218589 192.24 
L 209.319051 192.24 
L 209.319051 188.636277 
L 205.218589 188.636277 
z
" clip-path="url(#p4ff77a1380)" style="fill: #4c72b0; fill-opacity: 0.75; stroke: #ffffff; stroke-width: 0.213108; stroke-linejoin: miter"/>
   </g>
   <g id="patch_40">
    <path d="M 209.319051 192.24 
L 213.419512 192.24 
L 213.419512 187.653444 
L 209.319051 187.653444 
z
" clip-path="url(#p4ff77a1380)" style="fill: #4c72b0; fill-opacity: 0.75; stroke: #ffffff; stroke-width: 0.213108; stroke-linejoin: miter"/>
   </g>
   <g id="patch_41">
    <path d="M 213.419512 192.24 
L 217.519973 192.24 
L 217.519973 189.455305 
L 213.419512 189.455305 
z
" clip-path="url(#p4ff77a1380)" style="fill: #4c72b0; fill-opacity: 0.75; stroke: #ffffff; stroke-width: 0.213108; stroke-linejoin: miter"/>
   </g>
   <g id="patch_42">
    <path d="M 217.519973 192.24 
L 221.620435 192.24 
L 221.620435 189.619111 
L 217.519973 189.619111 
z
" clip-path="url(#p4ff77a1380)" style="fill: #4c72b0; fill-opacity: 0.75; stroke: #ffffff; stroke-width: 0.213108; stroke-linejoin: miter"/>
   </g>
   <g id="patch_43">
    <path d="M 221.620435 192.24 
L 225.720896 192.24 
L 225.720896 190.601944 
L 221.620435 190.601944 
z
" clip-path="url(#p4ff77a1380)" style="fill: #4c72b0; fill-opacity: 0.75; stroke: #ffffff; stroke-width: 0.213108; stroke-linejoin: miter"/>
   </g>
   <g id="patch_44">
    <path d="M 225.720896 192.24 
L 229.821357 192.24 
L 229.821357 189.782916 
L 225.720896 189.782916 
z
" clip-path="url(#p4ff77a1380)" style="fill: #4c72b0; fill-opacity: 0.75; stroke: #ffffff; stroke-width: 0.213108; stroke-linejoin: miter"/>
   </g>
   <g id="patch_45">
    <path d="M 229.821357 192.24 
L 233.921818 192.24 
L 233.921818 190.274333 
L 229.821357 190.274333 
z
" clip-path="url(#p4ff77a1380)" style="fill: #4c72b0; fill-opacity: 0.75; stroke: #ffffff; stroke-width: 0.213108; stroke-linejoin: miter"/>
   </g>
   <g id="patch_46">
    <path d="M 233.921818 192.24 
L 238.02228 192.24 
L 238.02228 190.274333 
L 233.921818 190.274333 
z
" clip-path="url(#p4ff77a1380)" style="fill: #4c72b0; fill-opacity: 0.75; stroke: #ffffff; stroke-width: 0.213108; stroke-linejoin: miter"/>
   </g>
   <g id="patch_47">
    <path d="M 238.02228 192.24 
L 242.122741 192.24 
L 242.122741 190.110527 
L 238.02228 190.110527 
z
" clip-path="url(#p4ff77a1380)" style="fill: #4c72b0; fill-opacity: 0.75; stroke: #ffffff; stroke-width: 0.213108; stroke-linejoin: miter"/>
   </g>
   <g id="patch_48">
    <path d="M 242.122741 192.24 
L 246.223202 192.24 
L 246.223202 190.601944 
L 242.122741 190.601944 
z
" clip-path="url(#p4ff77a1380)" style="fill: #4c72b0; fill-opacity: 0.75; stroke: #ffffff; stroke-width: 0.213108; stroke-linejoin: miter"/>
   </g>
   <g id="patch_49">
    <path d="M 246.223202 192.24 
L 250.323664 192.24 
L 250.323664 190.110527 
L 246.223202 190.110527 
z
" clip-path="url(#p4ff77a1380)" style="fill: #4c72b0; fill-opacity: 0.75; stroke: #ffffff; stroke-width: 0.213108; stroke-linejoin: miter"/>
   </g>
   <g id="patch_50">
    <path d="M 250.323664 192.24 
L 254.424125 192.24 
L 254.424125 190.274333 
L 250.323664 190.274333 
z
" clip-path="url(#p4ff77a1380)" style="fill: #4c72b0; fill-opacity: 0.75; stroke: #ffffff; stroke-width: 0.213108; stroke-linejoin: miter"/>
   </g>
   <g id="patch_51">
    <path d="M 254.424125 192.24 
L 258.524586 192.24 
L 258.524586 190.929555 
L 254.424125 190.929555 
z
" clip-path="url(#p4ff77a1380)" style="fill: #4c72b0; fill-opacity: 0.75; stroke: #ffffff; stroke-width: 0.213108; stroke-linejoin: miter"/>
   </g>
   <g id="patch_52">
    <path d="M 258.524586 192.24 
L 262.625047 192.24 
L 262.625047 190.929555 
L 258.524586 190.929555 
z
" clip-path="url(#p4ff77a1380)" style="fill: #4c72b0; fill-opacity: 0.75; stroke: #ffffff; stroke-width: 0.213108; stroke-linejoin: miter"/>
   </g>
   <g id="patch_53">
    <path d="M 262.625047 192.24 
L 266.725509 192.24 
L 266.725509 192.076194 
L 262.625047 192.076194 
z
" clip-path="url(#p4ff77a1380)" style="fill: #4c72b0; fill-opacity: 0.75; stroke: #ffffff; stroke-width: 0.213108; stroke-linejoin: miter"/>
   </g>
   <g id="patch_54">
    <path d="M 266.725509 192.24 
L 270.82597 192.24 
L 270.82597 191.093361 
L 266.725509 191.093361 
z
" clip-path="url(#p4ff77a1380)" style="fill: #4c72b0; fill-opacity: 0.75; stroke: #ffffff; stroke-width: 0.213108; stroke-linejoin: miter"/>
   </g>
   <g id="patch_55">
    <path d="M 270.82597 192.24 
L 274.926431 192.24 
L 274.926431 190.929555 
L 270.82597 190.929555 
z
" clip-path="url(#p4ff77a1380)" style="fill: #4c72b0; fill-opacity: 0.75; stroke: #ffffff; stroke-width: 0.213108; stroke-linejoin: miter"/>
   </g>
   <g id="patch_56">
    <path d="M 274.926431 192.24 
L 279.026893 192.24 
L 279.026893 190.601944 
L 274.926431 190.601944 
z
" clip-path="url(#p4ff77a1380)" style="fill: #4c72b0; fill-opacity: 0.75; stroke: #ffffff; stroke-width: 0.213108; stroke-linejoin: miter"/>
   </g>
   <g id="patch_57">
    <path d="M 279.026893 192.24 
L 283.127354 192.24 
L 283.127354 191.584778 
L 279.026893 191.584778 
z
" clip-path="url(#p4ff77a1380)" style="fill: #4c72b0; fill-opacity: 0.75; stroke: #ffffff; stroke-width: 0.213108; stroke-linejoin: miter"/>
   </g>
   <g id="patch_58">
    <path d="M 283.127354 192.24 
L 287.227815 192.24 
L 287.227815 191.748583 
L 283.127354 191.748583 
z
" clip-path="url(#p4ff77a1380)" style="fill: #4c72b0; fill-opacity: 0.75; stroke: #ffffff; stroke-width: 0.213108; stroke-linejoin: miter"/>
   </g>
   <g id="patch_59">
    <path d="M 287.227815 192.24 
L 291.328277 192.24 
L 291.328277 191.912389 
L 287.227815 191.912389 
z
" clip-path="url(#p4ff77a1380)" style="fill: #4c72b0; fill-opacity: 0.75; stroke: #ffffff; stroke-width: 0.213108; stroke-linejoin: miter"/>
   </g>
   <g id="patch_60">
    <path d="M 291.328277 192.24 
L 295.428738 192.24 
L 295.428738 191.093361 
L 291.328277 191.093361 
z
" clip-path="url(#p4ff77a1380)" style="fill: #4c72b0; fill-opacity: 0.75; stroke: #ffffff; stroke-width: 0.213108; stroke-linejoin: miter"/>
   </g>
   <g id="patch_61">
    <path d="M 295.428738 192.24 
L 299.529199 192.24 
L 299.529199 191.584778 
L 295.428738 191.584778 
z
" clip-path="url(#p4ff77a1380)" style="fill: #4c72b0; fill-opacity: 0.75; stroke: #ffffff; stroke-width: 0.213108; stroke-linejoin: miter"/>
   </g>
   <g id="patch_62">
    <path d="M 299.529199 192.24 
L 303.62966 192.24 
L 303.62966 192.24 
L 299.529199 192.24 
z
" clip-path="url(#p4ff77a1380)" style="fill: #4c72b0; fill-opacity: 0.75; stroke: #ffffff; stroke-width: 0.213108; stroke-linejoin: miter"/>
   </g>
   <g id="patch_63">
    <path d="M 303.62966 192.24 
L 307.730122 192.24 
L 307.730122 192.076194 
L 303.62966 192.076194 
z
" clip-path="url(#p4ff77a1380)" style="fill: #4c72b0; fill-opacity: 0.75; stroke: #ffffff; stroke-width: 0.213108; stroke-linejoin: miter"/>
   </g>
   <g id="patch_64">
    <path d="M 307.730122 192.24 
L 311.830583 192.24 
L 311.830583 192.076194 
L 307.730122 192.076194 
z
" clip-path="url(#p4ff77a1380)" style="fill: #4c72b0; fill-opacity: 0.75; stroke: #ffffff; stroke-width: 0.213108; stroke-linejoin: miter"/>
   </g>
   <g id="patch_65">
    <path d="M 311.830583 192.24 
L 315.931044 192.24 
L 315.931044 191.912389 
L 311.830583 191.912389 
z
" clip-path="url(#p4ff77a1380)" style="fill: #4c72b0; fill-opacity: 0.75; stroke: #ffffff; stroke-width: 0.213108; stroke-linejoin: miter"/>
   </g>
   <g id="patch_66">
    <path d="M 315.931044 192.24 
L 320.031506 192.24 
L 320.031506 192.076194 
L 315.931044 192.076194 
z
" clip-path="url(#p4ff77a1380)" style="fill: #4c72b0; fill-opacity: 0.75; stroke: #ffffff; stroke-width: 0.213108; stroke-linejoin: miter"/>
   </g>
   <g id="patch_67">
    <path d="M 320.031506 192.24 
L 324.131967 192.24 
L 324.131967 192.076194 
L 320.031506 192.076194 
z
" clip-path="url(#p4ff77a1380)" style="fill: #4c72b0; fill-opacity: 0.75; stroke: #ffffff; stroke-width: 0.213108; stroke-linejoin: miter"/>
   </g>
   <g id="patch_68">
    <path d="M 324.131967 192.24 
L 328.232428 192.24 
L 328.232428 191.912389 
L 324.131967 191.912389 
z
" clip-path="url(#p4ff77a1380)" style="fill: #4c72b0; fill-opacity: 0.75; stroke: #ffffff; stroke-width: 0.213108; stroke-linejoin: miter"/>
   </g>
   <g id="patch_69">
    <path d="M 328.232428 192.24 
L 332.332889 192.24 
L 332.332889 191.912389 
L 328.232428 191.912389 
z
" clip-path="url(#p4ff77a1380)" style="fill: #4c72b0; fill-opacity: 0.75; stroke: #ffffff; stroke-width: 0.213108; stroke-linejoin: miter"/>
   </g>
   <g id="patch_70">
    <path d="M 332.332889 192.24 
L 336.433351 192.24 
L 336.433351 192.24 
L 332.332889 192.24 
z
" clip-path="url(#p4ff77a1380)" style="fill: #4c72b0; fill-opacity: 0.75; stroke: #ffffff; stroke-width: 0.213108; stroke-linejoin: miter"/>
   </g>
   <g id="patch_71">
    <path d="M 336.433351 192.24 
L 340.533812 192.24 
L 340.533812 192.076194 
L 336.433351 192.076194 
z
" clip-path="url(#p4ff77a1380)" style="fill: #4c72b0; fill-opacity: 0.75; stroke: #ffffff; stroke-width: 0.213108; stroke-linejoin: miter"/>
   </g>
   <g id="patch_72">
    <path d="M 340.533812 192.24 
L 344.634273 192.24 
L 344.634273 192.24 
L 340.533812 192.24 
z
" clip-path="url(#p4ff77a1380)" style="fill: #4c72b0; fill-opacity: 0.75; stroke: #ffffff; stroke-width: 0.213108; stroke-linejoin: miter"/>
   </g>
   <g id="patch_73">
    <path d="M 344.634273 192.24 
L 348.734735 192.24 
L 348.734735 192.24 
L 344.634273 192.24 
z
" clip-path="url(#p4ff77a1380)" style="fill: #4c72b0; fill-opacity: 0.75; stroke: #ffffff; stroke-width: 0.213108; stroke-linejoin: miter"/>
   </g>
   <g id="patch_74">
    <path d="M 348.734735 192.24 
L 352.835196 192.24 
L 352.835196 192.24 
L 348.734735 192.24 
z
" clip-path="url(#p4ff77a1380)" style="fill: #4c72b0; fill-opacity: 0.75; stroke: #ffffff; stroke-width: 0.213108; stroke-linejoin: miter"/>
   </g>
   <g id="patch_75">
    <path d="M 352.835196 192.24 
L 356.935657 192.24 
L 356.935657 192.076194 
L 352.835196 192.076194 
z
" clip-path="url(#p4ff77a1380)" style="fill: #4c72b0; fill-opacity: 0.75; stroke: #ffffff; stroke-width: 0.213108; stroke-linejoin: miter"/>
   </g>
   <g id="patch_76">
    <path d="M 356.935657 192.24 
L 361.036119 192.24 
L 361.036119 192.24 
L 356.935657 192.24 
z
" clip-path="url(#p4ff77a1380)" style="fill: #4c72b0; fill-opacity: 0.75; stroke: #ffffff; stroke-width: 0.213108; stroke-linejoin: miter"/>
   </g>
   <g id="patch_77">
    <path d="M 361.036119 192.24 
L 365.13658 192.24 
L 365.13658 192.24 
L 361.036119 192.24 
z
" clip-path="url(#p4ff77a1380)" style="fill: #4c72b0; fill-opacity: 0.75; stroke: #ffffff; stroke-width: 0.213108; stroke-linejoin: miter"/>
   </g>
   <g id="patch_78">
    <path d="M 365.13658 192.24 
L 369.237041 192.24 
L 369.237041 192.24 
L 365.13658 192.24 
z
" clip-path="url(#p4ff77a1380)" style="fill: #4c72b0; fill-opacity: 0.75; stroke: #ffffff; stroke-width: 0.213108; stroke-linejoin: miter"/>
   </g>
   <g id="patch_79">
    <path d="M 369.237041 192.24 
L 373.337502 192.24 
L 373.337502 192.24 
L 369.237041 192.24 
z
" clip-path="url(#p4ff77a1380)" style="fill: #4c72b0; fill-opacity: 0.75; stroke: #ffffff; stroke-width: 0.213108; stroke-linejoin: miter"/>
   </g>
   <g id="patch_80">
    <path d="M 373.337502 192.24 
L 377.437964 192.24 
L 377.437964 192.24 
L 373.337502 192.24 
z
" clip-path="url(#p4ff77a1380)" style="fill: #4c72b0; fill-opacity: 0.75; stroke: #ffffff; stroke-width: 0.213108; stroke-linejoin: miter"/>
   </g>
   <g id="patch_81">
    <path d="M 377.437964 192.24 
L 381.538425 192.24 
L 381.538425 192.076194 
L 377.437964 192.076194 
z
" clip-path="url(#p4ff77a1380)" style="fill: #4c72b0; fill-opacity: 0.75; stroke: #ffffff; stroke-width: 0.213108; stroke-linejoin: miter"/>
   </g>
   <g id="patch_82">
    <path d="M 381.538425 192.24 
L 385.638886 192.24 
L 385.638886 192.24 
L 381.538425 192.24 
z
" clip-path="url(#p4ff77a1380)" style="fill: #4c72b0; fill-opacity: 0.75; stroke: #ffffff; stroke-width: 0.213108; stroke-linejoin: miter"/>
   </g>
   <g id="patch_83">
    <path d="M 385.638886 192.24 
L 389.739348 192.24 
L 389.739348 192.24 
L 385.638886 192.24 
z
" clip-path="url(#p4ff77a1380)" style="fill: #4c72b0; fill-opacity: 0.75; stroke: #ffffff; stroke-width: 0.213108; stroke-linejoin: miter"/>
   </g>
   <g id="patch_84">
    <path d="M 389.739348 192.24 
L 393.839809 192.24 
L 393.839809 192.24 
L 389.739348 192.24 
z
" clip-path="url(#p4ff77a1380)" style="fill: #4c72b0; fill-opacity: 0.75; stroke: #ffffff; stroke-width: 0.213108; stroke-linejoin: miter"/>
   </g>
   <g id="patch_85">
    <path d="M 393.839809 192.24 
L 397.94027 192.24 
L 397.94027 192.24 
L 393.839809 192.24 
z
" clip-path="url(#p4ff77a1380)" style="fill: #4c72b0; fill-opacity: 0.75; stroke: #ffffff; stroke-width: 0.213108; stroke-linejoin: miter"/>
   </g>
   <g id="patch_86">
    <path d="M 397.94027 192.24 
L 402.040731 192.24 
L 402.040731 192.24 
L 397.94027 192.24 
z
" clip-path="url(#p4ff77a1380)" style="fill: #4c72b0; fill-opacity: 0.75; stroke: #ffffff; stroke-width: 0.213108; stroke-linejoin: miter"/>
   </g>
   <g id="patch_87">
    <path d="M 402.040731 192.24 
L 406.141193 192.24 
L 406.141193 192.24 
L 402.040731 192.24 
z
" clip-path="url(#p4ff77a1380)" style="fill: #4c72b0; fill-opacity: 0.75; stroke: #ffffff; stroke-width: 0.213108; stroke-linejoin: miter"/>
   </g>
   <g id="patch_88">
    <path d="M 406.141193 192.24 
L 410.241654 192.24 
L 410.241654 191.912389 
L 406.141193 191.912389 
z
" clip-path="url(#p4ff77a1380)" style="fill: #4c72b0; fill-opacity: 0.75; stroke: #ffffff; stroke-width: 0.213108; stroke-linejoin: miter"/>
   </g>
   <g id="patch_89">
    <path d="M 57.6 192.24 
L 57.6 25.92 
" style="fill: none; stroke: #cccccc; stroke-width: 1.25; stroke-linejoin: miter; stroke-linecap: square"/>
   </g>
   <g id="patch_90">
    <path d="M 259.2 192.24 
L 259.2 25.92 
" style="fill: none; stroke: #cccccc; stroke-width: 1.25; stroke-linejoin: miter; stroke-linecap: square"/>
   </g>
   <g id="patch_91">
    <path d="M 57.6 192.24 
L 259.2 192.24 
" style="fill: none; stroke: #cccccc; stroke-width: 1.25; stroke-linejoin: miter; stroke-linecap: square"/>
   </g>
   <g id="patch_92">
    <path d="M 57.6 25.92 
L 259.2 25.92 
" style="fill: none; stroke: #cccccc; stroke-width: 1.25; stroke-linejoin: miter; stroke-linecap: square"/>
   </g>
  </g>
 </g>
 <defs>
  <clipPath id="p4ff77a1380">
   <rect x="57.6" y="25.92" width="201.6" height="166.32"/>
  </clipPath>
 </defs>
</svg>
