<?xml version="1.0" encoding="utf-8" standalone="no"?>
<!DOCTYPE svg PUBLIC "-//W3C//DTD SVG 1.1//EN"
  "http://www.w3.org/Graphics/SVG/1.1/DTD/svg11.dtd">
<svg xmlns:xlink="http://www.w3.org/1999/xlink" width="576pt" height="216pt" viewBox="0 0 576 216" xmlns="http://www.w3.org/2000/svg" version="1.1">
 <metadata>
  <rdf:RDF xmlns:dc="http://purl.org/dc/elements/1.1/" xmlns:cc="http://creativecommons.org/ns#" xmlns:rdf="http://www.w3.org/1999/02/22-rdf-syntax-ns#">
   <cc:Work>
    <dc:type rdf:resource="http://purl.org/dc/dcmitype/StillImage"/>
    <dc:date>2022-12-14T21:21:38.033969</dc:date>
    <dc:format>image/svg+xml</dc:format>
    <dc:creator>
     <cc:Agent>
      <dc:title>Matplotlib v3.5.2, https://matplotlib.org/</dc:title>
     </cc:Agent>
    </dc:creator>
   </cc:Work>
  </rdf:RDF>
 </metadata>
 <defs>
  <style type="text/css">*{stroke-linejoin: round; stroke-linecap: butt}</style>
 </defs>
 <g id="figure_1">
  <g id="patch_1">
   <path d="M 0 216 
L 576 216 
L 576 0 
L 0 0 
z
" style="fill: #ffffff"/>
  </g>
  <g id="axes_1">
   <g id="patch_2">
    <path d="M 144 192.24 
L 349.714286 192.24 
L 349.714286 25.92 
L 144 25.92 
z
" style="fill: #ffffff"/>
   </g>
   <g id="matplotlib.axis_1">
    <g id="xtick_1">
     <g id="text_1">
      <!-- $\mathdefault{0.0}$ -->
      <g style="fill: #262626" transform="translate(164.662464 211.425876)scale(0.14 -0.14)">
       <defs>
        <path id="CMR17-30" d="M 2688 2038 
C 2688 2430 2682 3099 2413 3613 
C 2176 4063 1798 4224 1466 4224 
C 1158 4224 768 4082 525 3620 
C 269 3137 243 2539 243 2038 
C 243 1671 250 1112 448 623 
C 723 -39 1216 -128 1466 -128 
C 1760 -128 2208 -7 2470 604 
C 2662 1048 2688 1568 2688 2038 
z
M 1466 -26 
C 1056 -26 813 328 723 816 
C 653 1196 653 1749 653 2109 
C 653 2604 653 3015 736 3407 
C 858 3954 1216 4121 1466 4121 
C 1728 4121 2067 3947 2189 3420 
C 2272 3054 2278 2623 2278 2109 
C 2278 1691 2278 1176 2202 797 
C 2067 96 1690 -26 1466 -26 
z
" transform="scale(0.015625)"/>
        <path id="CMMI12-3a" d="M 1178 307 
C 1178 492 1024 620 870 620 
C 685 620 557 467 557 313 
C 557 128 710 0 864 0 
C 1050 0 1178 153 1178 307 
z
" transform="scale(0.015625)"/>
       </defs>
       <use xlink:href="#CMR17-30" transform="scale(0.996264)"/>
       <use xlink:href="#CMMI12-3a" transform="translate(45.690477 0)scale(0.996264)"/>
       <use xlink:href="#CMR17-30" transform="translate(72.787654 0)scale(0.996264)"/>
      </g>
     </g>
    </g>
    <g id="xtick_2">
     <g id="text_2">
      <!-- $\mathdefault{0.5}$ -->
      <g style="fill: #262626" transform="translate(238.131852 211.425876)scale(0.14 -0.14)">
       <defs>
        <path id="CMR17-35" d="M 730 3750 
C 794 3724 1056 3641 1325 3641 
C 1920 3641 2246 3961 2432 4140 
C 2432 4191 2432 4224 2394 4224 
C 2387 4224 2374 4224 2323 4198 
C 2099 4102 1837 4032 1517 4032 
C 1325 4032 1037 4055 723 4191 
C 653 4224 640 4224 634 4224 
C 602 4224 595 4217 595 4090 
L 595 2231 
C 595 2113 595 2080 659 2080 
C 691 2080 704 2093 736 2139 
C 941 2435 1222 2560 1542 2560 
C 1766 2560 2246 2415 2246 1293 
C 2246 1087 2246 716 2054 422 
C 1894 159 1645 25 1370 25 
C 947 25 518 319 403 812 
C 429 806 480 793 506 793 
C 589 793 749 838 749 1036 
C 749 1209 627 1280 506 1280 
C 358 1280 262 1190 262 1011 
C 262 454 704 -128 1382 -128 
C 2042 -128 2669 441 2669 1267 
C 2669 2054 2170 2662 1549 2662 
C 1222 2662 947 2540 730 2304 
L 730 3750 
z
" transform="scale(0.015625)"/>
       </defs>
       <use xlink:href="#CMR17-30" transform="scale(0.996264)"/>
       <use xlink:href="#CMMI12-3a" transform="translate(45.690477 0)scale(0.996264)"/>
       <use xlink:href="#CMR17-35" transform="translate(72.787654 0)scale(0.996264)"/>
      </g>
     </g>
    </g>
    <g id="xtick_3">
     <g id="text_3">
      <!-- $\mathdefault{1.0}$ -->
      <g style="fill: #262626" transform="translate(311.60124 211.425876)scale(0.14 -0.14)">
       <defs>
        <path id="CMR17-31" d="M 1702 4083 
C 1702 4217 1696 4224 1606 4224 
C 1357 3927 979 3833 621 3820 
C 602 3820 570 3820 563 3808 
C 557 3795 557 3782 557 3648 
C 755 3648 1088 3686 1344 3839 
L 1344 467 
C 1344 243 1331 166 781 166 
L 589 166 
L 589 0 
C 896 6 1216 12 1523 12 
C 1830 12 2150 6 2458 0 
L 2458 166 
L 2266 166 
C 1715 166 1702 236 1702 467 
L 1702 4083 
z
" transform="scale(0.015625)"/>
       </defs>
       <use xlink:href="#CMR17-31" transform="scale(0.996264)"/>
       <use xlink:href="#CMMI12-3a" transform="translate(45.690477 0)scale(0.996264)"/>
       <use xlink:href="#CMR17-30" transform="translate(72.787654 0)scale(0.996264)"/>
      </g>
     </g>
    </g>
   </g>
   <g id="matplotlib.axis_2">
    <g id="ytick_1">
     <g id="text_4">
      <!-- $\mathdefault{0.00}$ -->
      <g style="fill: #262626" transform="translate(110.220929 189.522938)scale(0.14 -0.14)">
       <use xlink:href="#CMR17-30" transform="scale(0.996264)"/>
       <use xlink:href="#CMMI12-3a" transform="translate(45.690477 0)scale(0.996264)"/>
       <use xlink:href="#CMR17-30" transform="translate(72.787654 0)scale(0.996264)"/>
       <use xlink:href="#CMR17-30" transform="translate(118.478131 0)scale(0.996264)"/>
      </g>
     </g>
    </g>
    <g id="ytick_2">
     <g id="text_5">
      <!-- $\mathdefault{0.25}$ -->
      <g style="fill: #262626" transform="translate(110.220929 151.722938)scale(0.14 -0.14)">
       <defs>
        <path id="CMR17-32" d="M 2669 990 
L 2554 990 
C 2490 537 2438 460 2413 422 
C 2381 371 1920 371 1830 371 
L 602 371 
C 832 620 1280 1073 1824 1596 
C 2214 1966 2669 2400 2669 3033 
C 2669 3788 2067 4224 1395 4224 
C 691 4224 262 3603 262 3027 
C 262 2777 448 2745 525 2745 
C 589 2745 781 2783 781 3007 
C 781 3206 614 3264 525 3264 
C 486 3264 448 3257 422 3244 
C 544 3788 915 4057 1306 4057 
C 1862 4057 2227 3616 2227 3033 
C 2227 2477 1901 1998 1536 1583 
L 262 147 
L 262 0 
L 2515 0 
L 2669 990 
z
" transform="scale(0.015625)"/>
       </defs>
       <use xlink:href="#CMR17-30" transform="scale(0.996264)"/>
       <use xlink:href="#CMMI12-3a" transform="translate(45.690477 0)scale(0.996264)"/>
       <use xlink:href="#CMR17-32" transform="translate(72.787654 0)scale(0.996264)"/>
       <use xlink:href="#CMR17-35" transform="translate(118.478131 0)scale(0.996264)"/>
      </g>
     </g>
    </g>
    <g id="ytick_3">
     <g id="text_6">
      <!-- $\mathdefault{0.50}$ -->
      <g style="fill: #262626" transform="translate(110.220929 113.922938)scale(0.14 -0.14)">
       <use xlink:href="#CMR17-30" transform="scale(0.996264)"/>
       <use xlink:href="#CMMI12-3a" transform="translate(45.690477 0)scale(0.996264)"/>
       <use xlink:href="#CMR17-35" transform="translate(72.787654 0)scale(0.996264)"/>
       <use xlink:href="#CMR17-30" transform="translate(118.478131 0)scale(0.996264)"/>
      </g>
     </g>
    </g>
    <g id="ytick_4">
     <g id="text_7">
      <!-- $\mathdefault{0.75}$ -->
      <g style="fill: #262626" transform="translate(110.220929 76.122938)scale(0.14 -0.14)">
       <defs>
        <path id="CMR17-37" d="M 2886 3955 
L 2886 4096 
L 1382 4096 
C 634 4096 621 4166 595 4288 
L 480 4288 
L 294 3104 
L 410 3104 
C 429 3226 474 3552 550 3673 
C 589 3724 1062 3724 1171 3724 
L 2579 3724 
L 1869 2670 
C 1395 1961 1069 1003 1069 166 
C 1069 89 1069 -128 1299 -128 
C 1530 -128 1530 89 1530 172 
L 1530 466 
C 1530 1514 1709 2204 2003 2644 
L 2886 3955 
z
" transform="scale(0.015625)"/>
       </defs>
       <use xlink:href="#CMR17-30" transform="scale(0.996264)"/>
       <use xlink:href="#CMMI12-3a" transform="translate(45.690477 0)scale(0.996264)"/>
       <use xlink:href="#CMR17-37" transform="translate(72.787654 0)scale(0.996264)"/>
       <use xlink:href="#CMR17-35" transform="translate(118.478131 0)scale(0.996264)"/>
      </g>
     </g>
    </g>
    <g id="ytick_5">
     <g id="text_8">
      <!-- $\mathdefault{1.00}$ -->
      <g style="fill: #262626" transform="translate(110.220929 38.322938)scale(0.14 -0.14)">
       <use xlink:href="#CMR17-31" transform="scale(0.996264)"/>
       <use xlink:href="#CMMI12-3a" transform="translate(45.690477 0)scale(0.996264)"/>
       <use xlink:href="#CMR17-30" transform="translate(72.787654 0)scale(0.996264)"/>
       <use xlink:href="#CMR17-30" transform="translate(118.478131 0)scale(0.996264)"/>
      </g>
     </g>
    </g>
   </g>
   <g id="PolyCollection_1">
    <defs>
     <path id="md8d1abc15d" d="M 173.387755 -31.32 
L 173.387755 -182.52 
L 173.534841 -182.52 
L 173.681927 -182.52 
L 173.829013 -182.52 
L 173.976099 -182.52 
L 174.123184 -182.52 
L 174.27027 -182.52 
L 174.417356 -182.52 
L 174.564442 -182.52 
L 174.711528 -182.52 
L 174.858614 -182.52 
L 175.0057 -182.52 
L 175.152785 -182.52 
L 175.299871 -182.52 
L 175.446957 -182.52 
L 175.594043 -182.52 
L 175.741129 -182.52 
L 175.888215 -182.52 
L 176.035301 -182.52 
L 176.182386 -182.52 
L 176.329472 -182.52 
L 176.476558 -182.52 
L 176.623644 -182.52 
L 176.77073 -182.52 
L 176.917816 -182.52 
L 177.064902 -182.52 
L 177.211988 -182.52 
L 177.359073 -182.52 
L 177.506159 -182.52 
L 177.653245 -182.52 
L 177.800331 -182.52 
L 177.947417 -182.52 
L 178.094503 -182.52 
L 178.241588 -182.52 
L 178.388674 -182.52 
L 178.53576 -182.52 
L 178.682846 -182.52 
L 178.829932 -182.52 
L 178.977018 -182.52 
L 179.124104 -182.52 
L 179.271189 -182.52 
L 179.418275 -182.52 
L 179.565361 -182.52 
L 179.712447 -182.52 
L 179.859533 -182.52 
L 180.006619 -182.52 
L 180.153705 -182.52 
L 180.30079 -182.52 
L 180.447877 -182.52 
L 180.594962 -182.52 
L 180.742048 -182.52 
L 180.889134 -182.52 
L 181.03622 -182.52 
L 181.183306 -182.52 
L 181.330392 -182.52 
L 181.477478 -182.52 
L 181.624563 -182.52 
L 181.771649 -182.52 
L 181.918735 -182.52 
L 182.065821 -182.52 
L 182.212907 -182.52 
L 182.359993 -182.52 
L 182.507079 -182.52 
L 182.654164 -182.52 
L 182.80125 -182.52 
L 182.948336 -182.52 
L 183.095422 -182.52 
L 183.242507 -182.52 
L 183.389593 -182.52 
L 183.536679 -182.52 
L 183.683765 -182.52 
L 183.830852 -182.52 
L 183.977937 -182.52 
L 184.125023 -182.52 
L 184.272109 -182.52 
L 184.419195 -182.52 
L 184.56628 -182.52 
L 184.713366 -182.52 
L 184.860452 -182.52 
L 185.007539 -182.52 
L 185.154624 -182.52 
L 185.301709 -182.52 
L 185.448795 -182.52 
L 185.595881 -182.52 
L 185.742967 -182.52 
L 185.890052 -182.52 
L 186.037138 -182.52 
L 186.184225 -182.52 
L 186.331311 -182.52 
L 186.478397 -182.52 
L 186.625482 -182.52 
L 186.772568 -182.52 
L 186.919654 -182.52 
L 187.06674 -182.52 
L 187.213825 -182.52 
L 187.360912 -182.52 
L 187.507998 -182.52 
L 187.655084 -182.52 
L 187.80217 -182.52 
L 187.949255 -182.52 
L 188.096341 -182.52 
L 188.243427 -182.52 
L 188.390513 -182.52 
L 188.5376 -182.52 
L 188.684684 -182.52 
L 188.83177 -182.52 
L 188.978856 -182.52 
L 189.125942 -182.52 
L 189.273027 -182.52 
L 189.420113 -182.52 
L 189.567199 -182.52 
L 189.714286 -182.52 
L 189.861372 -182.52 
L 190.008457 -182.52 
L 190.155543 -182.52 
L 190.302629 -182.52 
L 190.449715 -182.52 
L 190.5968 -182.52 
L 190.743886 -182.52 
L 190.890973 -182.52 
L 191.038058 -182.52 
L 191.185144 -182.52 
L 191.332229 -182.52 
L 191.479315 -182.52 
L 191.626401 -182.52 
L 191.773488 -182.52 
L 191.920574 -182.52 
L 192.067659 -182.52 
L 192.214745 -182.52 
L 192.361831 -182.52 
L 192.508917 -182.52 
L 192.656002 -182.52 
L 192.803088 -182.52 
L 192.950174 -182.52 
L 193.09726 -182.52 
L 193.244345 -182.52 
L 193.391431 -182.52 
L 193.538517 -182.52 
L 193.685603 -182.52 
L 193.832689 -182.52 
L 193.979774 -182.52 
L 194.12686 -182.52 
L 194.273946 -182.52 
L 194.421032 -182.52 
L 194.56812 -182.52 
L 194.715205 -182.52 
L 194.862291 -182.52 
L 195.009377 -182.52 
L 195.156463 -182.52 
L 195.303549 -182.52 
L 195.450634 -182.52 
L 195.59772 -182.52 
L 195.744806 -182.52 
L 195.891892 -182.52 
L 196.038977 -182.52 
L 196.186063 -182.52 
L 196.333149 -182.52 
L 196.480235 -182.52 
L 196.62732 -182.52 
L 196.774406 -182.52 
L 196.921492 -182.52 
L 197.068578 -182.52 
L 197.215664 -182.52 
L 197.362749 -182.52 
L 197.509835 -182.52 
L 197.656921 -182.52 
L 197.804007 -182.52 
L 197.951092 -182.52 
L 198.09818 -182.52 
L 198.245266 -182.52 
L 198.392352 -182.52 
L 198.539438 -182.52 
L 198.686524 -182.52 
L 198.833609 -182.52 
L 198.980695 -182.52 
L 199.127781 -182.52 
L 199.274867 -182.52 
L 199.421952 -182.52 
L 199.569038 -182.52 
L 199.716124 -182.52 
L 199.86321 -182.52 
L 200.010295 -182.52 
L 200.157381 -182.52 
L 200.304467 -182.52 
L 200.451553 -182.52 
L 200.598639 -182.52 
L 200.745724 -182.52 
L 200.89281 -182.52 
L 201.039896 -182.52 
L 201.186982 -182.52 
L 201.334067 -182.52 
L 201.481153 -182.52 
L 201.628241 -182.52 
L 201.775327 -182.52 
L 201.922413 -182.52 
L 202.069498 -182.52 
L 202.216584 -182.52 
L 202.36367 -182.52 
L 202.510756 -182.52 
L 202.657842 -182.52 
L 202.804927 -182.52 
L 202.952013 -182.52 
L 203.099099 -182.52 
L 203.246185 -182.52 
L 203.39327 -182.52 
L 203.540356 -182.52 
L 203.687442 -182.52 
L 203.834528 -182.52 
L 203.981614 -182.52 
L 204.128699 -182.52 
L 204.275785 -182.52 
L 204.422871 -182.52 
L 204.569957 -182.52 
L 204.717042 -182.52 
L 204.864128 -182.52 
L 205.011214 -182.52 
L 205.1583 -182.52 
L 205.305386 -182.52 
L 205.452471 -182.52 
L 205.599557 -182.52 
L 205.746643 -182.52 
L 205.893729 -182.52 
L 206.040814 -182.52 
L 206.1879 -182.52 
L 206.334988 -182.52 
L 206.482074 -182.52 
L 206.62916 -182.52 
L 206.776245 -182.52 
L 206.923331 -182.52 
L 207.070417 -182.52 
L 207.217503 -182.52 
L 207.364589 -182.52 
L 207.511674 -182.52 
L 207.65876 -182.52 
L 207.805846 -182.52 
L 207.952932 -182.52 
L 208.100017 -182.52 
L 208.247103 -182.52 
L 208.394189 -182.52 
L 208.541275 -182.52 
L 208.68836 -182.52 
L 208.835446 -182.52 
L 208.982532 -182.52 
L 209.129618 -182.52 
L 209.276704 -182.52 
L 209.423789 -182.52 
L 209.570875 -182.52 
L 209.717961 -182.52 
L 209.865049 -182.52 
L 210.012135 -182.52 
L 210.15922 -182.52 
L 210.306306 -182.52 
L 210.453392 -182.52 
L 210.600478 -182.52 
L 210.747564 -182.52 
L 210.894649 -182.52 
L 211.041735 -182.52 
L 211.188821 -182.52 
L 211.335907 -182.52 
L 211.482992 -182.52 
L 211.630078 -182.52 
L 211.777164 -182.52 
L 211.92425 -182.52 
L 212.071335 -182.52 
L 212.218421 -182.52 
L 212.365507 -182.52 
L 212.512593 -182.52 
L 212.659679 -182.52 
L 212.806764 -182.52 
L 212.95385 -182.52 
L 213.100936 -182.52 
L 213.248022 -182.52 
L 213.395107 -182.52 
L 213.542193 -182.52 
L 213.689279 -182.52 
L 213.836365 -182.52 
L 213.983451 -182.52 
L 214.130536 -182.52 
L 214.277622 -182.52 
L 214.424708 -182.52 
L 214.571794 -182.52 
L 214.718879 -182.52 
L 214.865965 -182.52 
L 215.013051 -182.52 
L 215.160137 -182.52 
L 215.307223 -182.52 
L 215.454308 -182.52 
L 215.601394 -182.52 
L 215.748484 -182.52 
L 215.89557 -182.52 
L 216.042656 -182.52 
L 216.189742 -182.52 
L 216.336827 -182.52 
L 216.483913 -182.52 
L 216.630999 -182.52 
L 216.778085 -182.52 
L 216.92517 -182.52 
L 217.072256 -182.52 
L 217.219342 -182.52 
L 217.366428 -182.52 
L 217.513513 -182.52 
L 217.660599 -182.52 
L 217.807685 -182.52 
L 217.954771 -182.52 
L 218.101857 -182.52 
L 218.248942 -182.52 
L 218.396028 -182.52 
L 218.543114 -182.52 
L 218.6902 -182.52 
L 218.837285 -182.52 
L 218.984371 -182.52 
L 219.131457 -182.52 
L 219.278543 -182.52 
L 219.425629 -182.52 
L 219.572714 -182.52 
L 219.7198 -182.52 
L 219.866886 -182.52 
L 220.013972 -182.52 
L 220.161057 -182.52 
L 220.308143 -182.52 
L 220.455229 -182.52 
L 220.602315 -182.52 
L 220.749401 -182.52 
L 220.896486 -182.52 
L 221.043572 -182.52 
L 221.190658 -182.52 
L 221.337744 -182.52 
L 221.484829 -182.52 
L 221.631915 -182.52 
L 221.779001 -182.52 
L 221.926087 -182.52 
L 222.073172 -182.52 
L 222.220258 -182.52 
L 222.367344 -182.52 
L 222.51443 -182.52 
L 222.661516 -182.52 
L 222.808606 -182.52 
L 222.955691 -182.52 
L 223.102777 -182.52 
L 223.249863 -182.52 
L 223.396949 -182.52 
L 223.544035 -182.52 
L 223.69112 -182.52 
L 223.838206 -182.52 
L 223.985292 -182.52 
L 224.132378 -182.52 
L 224.279463 -182.52 
L 224.426549 -182.52 
L 224.573635 -182.52 
L 224.720721 -182.52 
L 224.867807 -182.52 
L 225.014892 -182.52 
L 225.161978 -182.52 
L 225.309064 -182.52 
L 225.45615 -182.52 
L 225.603235 -182.52 
L 225.750321 -182.52 
L 225.897407 -182.52 
L 226.044493 -182.52 
L 226.191579 -182.52 
L 226.338664 -182.52 
L 226.48575 -182.52 
L 226.632836 -182.52 
L 226.779922 -182.52 
L 226.927007 -182.52 
L 227.074093 -182.52 
L 227.221179 -182.52 
L 227.368265 -182.52 
L 227.51535 -182.52 
L 227.662436 -182.52 
L 227.809522 -182.52 
L 227.956608 -182.52 
L 228.103694 -182.52 
L 228.250779 -182.52 
L 228.397865 -182.52 
L 228.544951 -182.52 
L 228.692037 -182.52 
L 228.839122 -182.52 
L 228.986208 -182.52 
L 229.133294 -182.52 
L 229.28038 -182.52 
L 229.427466 -182.52 
L 229.574551 -182.52 
L 229.721637 -182.52 
L 229.868727 -182.52 
L 230.015813 -182.52 
L 230.162899 -182.52 
L 230.309985 -182.52 
L 230.45707 -182.52 
L 230.604156 -182.52 
L 230.751242 -182.52 
L 230.898328 -182.52 
L 231.045413 -182.52 
L 231.192499 -182.52 
L 231.339585 -182.52 
L 231.486671 -182.52 
L 231.633757 -182.52 
L 231.780842 -182.52 
L 231.927928 -182.52 
L 232.075014 -182.52 
L 232.2221 -182.52 
L 232.369185 -182.52 
L 232.516271 -182.52 
L 232.663357 -182.52 
L 232.810443 -182.52 
L 232.957528 -182.52 
L 233.104614 -182.52 
L 233.2517 -182.52 
L 233.398786 -182.52 
L 233.545872 -182.52 
L 233.692957 -182.52 
L 233.840043 -182.52 
L 233.987129 -182.52 
L 234.134215 -182.52 
L 234.2813 -182.52 
L 234.428386 -182.52 
L 234.575472 -182.52 
L 234.722558 -182.52 
L 234.869644 -182.52 
L 235.016729 -182.52 
L 235.163815 -182.52 
L 235.310901 -182.52 
L 235.457987 -182.52 
L 235.605072 -182.52 
L 235.752158 -182.52 
L 235.899244 -182.52 
L 236.04633 -182.52 
L 236.193416 -182.52 
L 236.340501 -182.52 
L 236.487587 -182.52 
L 236.634673 -182.52 
L 236.781759 -182.52 
L 236.928844 -182.52 
L 237.07593 -182.52 
L 237.223016 -182.52 
L 237.370102 -182.52 
L 237.517187 -182.52 
L 237.664273 -182.52 
L 237.811359 -182.52 
L 237.958445 -182.52 
L 238.105535 -182.52 
L 238.252621 -182.52 
L 238.399706 -182.52 
L 238.546792 -182.52 
L 238.693878 -182.52 
L 238.840964 -182.52 
L 238.98805 -182.52 
L 239.135135 -182.52 
L 239.282221 -182.52 
L 239.429307 -182.52 
L 239.576393 -182.52 
L 239.723478 -182.52 
L 239.870564 -182.52 
L 240.01765 -182.52 
L 240.164736 -182.52 
L 240.311822 -182.52 
L 240.458907 -182.52 
L 240.605993 -182.52 
L 240.753079 -182.52 
L 240.900165 -182.52 
L 241.04725 -182.52 
L 241.194336 -182.52 
L 241.341422 -182.52 
L 241.488508 -182.52 
L 241.635594 -182.52 
L 241.782679 -182.52 
L 241.929765 -182.52 
L 242.076851 -182.52 
L 242.223937 -182.52 
L 242.371022 -182.52 
L 242.518108 -182.52 
L 242.665194 -182.52 
L 242.81228 -182.52 
L 242.959365 -182.52 
L 243.106451 -182.52 
L 243.253537 -182.52 
L 243.400623 -182.52 
L 243.547709 -182.52 
L 243.694794 -182.52 
L 243.84188 -182.52 
L 243.988966 -182.52 
L 244.136052 -182.52 
L 244.283137 -182.52 
L 244.430223 -182.52 
L 244.577309 -182.52 
L 244.724395 -182.52 
L 244.871481 -182.52 
L 245.018566 -182.52 
L 245.165656 -182.52 
L 245.312742 -182.52 
L 245.459828 -182.52 
L 245.606914 -182.52 
L 245.754 -182.52 
L 245.901085 -182.52 
L 246.048171 -182.52 
L 246.195257 -182.52 
L 246.342343 -182.52 
L 246.489428 -182.52 
L 246.636514 -182.52 
L 246.7836 -182.52 
L 246.930686 -182.52 
L 247.077772 -182.52 
L 247.224857 -182.52 
L 247.371943 -182.52 
L 247.519029 -182.52 
L 247.666115 -182.52 
L 247.8132 -182.52 
L 247.960286 -182.52 
L 248.107372 -182.52 
L 248.254458 -182.52 
L 248.401543 -182.52 
L 248.548629 -182.52 
L 248.695715 -182.52 
L 248.842801 -182.52 
L 248.989887 -182.52 
L 249.136972 -182.52 
L 249.284058 -182.52 
L 249.431144 -182.52 
L 249.57823 -182.52 
L 249.725315 -182.52 
L 249.872401 -182.52 
L 250.019487 -182.52 
L 250.166573 -182.52 
L 250.313659 -182.52 
L 250.460744 -182.52 
L 250.60783 -182.52 
L 250.754916 -182.52 
L 250.902002 -182.52 
L 251.049087 -182.52 
L 251.196173 -182.52 
L 251.343259 -182.52 
L 251.490345 -182.52 
L 251.637431 -182.52 
L 251.784516 -182.52 
L 251.931602 -182.52 
L 252.078688 -182.52 
L 252.225774 -182.52 
L 252.372859 -182.52 
L 252.519945 -182.52 
L 252.667031 -182.52 
L 252.814117 -182.52 
L 252.961202 -182.52 
L 253.108288 -182.52 
L 253.255374 -182.52 
L 253.402469 -182.52 
L 253.549554 -182.52 
L 253.69664 -182.52 
L 253.843726 -182.52 
L 253.990812 -182.52 
L 254.137897 -182.52 
L 254.284983 -182.52 
L 254.432069 -182.52 
L 254.579155 -182.52 
L 254.726241 -182.52 
L 254.873326 -182.52 
L 255.020412 -182.52 
L 255.167498 -182.52 
L 255.314584 -182.52 
L 255.461669 -182.52 
L 255.608755 -182.52 
L 255.755841 -182.52 
L 255.902927 -182.52 
L 256.050012 -182.52 
L 256.197098 -182.52 
L 256.344184 -182.52 
L 256.49127 -182.52 
L 256.638356 -182.52 
L 256.785441 -182.52 
L 256.932527 -182.52 
L 257.079613 -182.52 
L 257.226699 -182.52 
L 257.373784 -182.52 
L 257.52087 -182.52 
L 257.667956 -182.52 
L 257.815042 -182.52 
L 257.962128 -182.52 
L 258.109213 -182.52 
L 258.256299 -182.52 
L 258.403385 -182.52 
L 258.550471 -182.52 
L 258.697556 -182.52 
L 258.844642 -182.52 
L 258.991728 -182.52 
L 259.138814 -182.52 
L 259.285899 -182.52 
L 259.432985 -182.52 
L 259.580071 -182.52 
L 259.727157 -182.52 
L 259.874243 -182.52 
L 260.021328 -182.52 
L 260.168414 -182.52 
L 260.3155 -182.52 
L 260.462586 -182.52 
L 260.609671 -182.52 
L 260.756757 -182.52 
L 260.903843 -182.52 
L 261.050929 -182.52 
L 261.198015 -182.52 
L 261.3451 -182.52 
L 261.492186 -182.52 
L 261.639272 -182.52 
L 261.786358 -182.52 
L 261.933443 -182.52 
L 262.080529 -182.52 
L 262.227615 -182.52 
L 262.374701 -182.52 
L 262.521787 -182.52 
L 262.668872 -182.52 
L 262.815958 -182.52 
L 262.963044 -182.52 
L 263.11013 -182.52 
L 263.257215 -182.52 
L 263.404301 -182.52 
L 263.551387 -182.52 
L 263.698473 -182.52 
L 263.845558 -182.52 
L 263.992644 -182.52 
L 264.13973 -182.52 
L 264.286816 -182.52 
L 264.433902 -182.52 
L 264.580987 -182.52 
L 264.728073 -182.52 
L 264.875159 -182.52 
L 265.022245 -182.52 
L 265.16933 -182.52 
L 265.316416 -182.52 
L 265.463502 -182.52 
L 265.610588 -182.52 
L 265.757674 -182.52 
L 265.904759 -182.52 
L 266.051845 -182.52 
L 266.198931 -182.52 
L 266.346017 -182.52 
L 266.493102 -182.52 
L 266.640188 -182.52 
L 266.787274 -182.52 
L 266.93436 -182.52 
L 267.081445 -182.52 
L 267.228531 -182.52 
L 267.375617 -182.52 
L 267.522703 -182.52 
L 267.669789 -182.52 
L 267.816874 -182.52 
L 267.96396 -182.52 
L 268.111046 -182.52 
L 268.258132 -182.52 
L 268.405217 -182.52 
L 268.552303 -182.52 
L 268.699398 -182.52 
L 268.846484 -182.52 
L 268.993569 -182.52 
L 269.140655 -182.52 
L 269.287741 -182.52 
L 269.434827 -182.52 
L 269.581912 -182.52 
L 269.728998 -182.52 
L 269.876084 -182.52 
L 270.02317 -182.52 
L 270.170256 -182.52 
L 270.317341 -182.52 
L 270.464427 -182.52 
L 270.611513 -182.52 
L 270.758599 -182.52 
L 270.905684 -182.52 
L 271.05277 -182.52 
L 271.199856 -182.52 
L 271.346942 -182.52 
L 271.494027 -182.52 
L 271.641113 -182.52 
L 271.788199 -182.52 
L 271.935285 -182.52 
L 272.082371 -182.52 
L 272.229456 -182.52 
L 272.376542 -182.52 
L 272.523628 -182.52 
L 272.670714 -182.52 
L 272.817799 -182.52 
L 272.964885 -182.52 
L 273.111971 -182.52 
L 273.259057 -182.52 
L 273.406143 -182.52 
L 273.553228 -182.52 
L 273.700314 -182.52 
L 273.8474 -182.52 
L 273.994486 -182.52 
L 274.141571 -182.52 
L 274.288657 -182.52 
L 274.435743 -182.52 
L 274.582829 -182.52 
L 274.729914 -182.52 
L 274.877 -182.52 
L 275.024086 -182.52 
L 275.171172 -182.52 
L 275.318258 -182.52 
L 275.465343 -182.52 
L 275.612429 -182.52 
L 275.759515 -182.52 
L 275.906601 -182.52 
L 276.053686 -182.52 
L 276.200772 -182.52 
L 276.347858 -182.52 
L 276.494944 -182.52 
L 276.64203 -182.52 
L 276.789115 -182.52 
L 276.936201 -182.52 
L 277.083287 -182.52 
L 277.230373 -182.52 
L 277.377458 -182.52 
L 277.524544 -182.52 
L 277.67163 -182.52 
L 277.818716 -182.52 
L 277.965802 -182.52 
L 278.112887 -182.52 
L 278.259973 -182.52 
L 278.407059 -182.52 
L 278.554145 -182.52 
L 278.70123 -182.52 
L 278.848316 -182.52 
L 278.995402 -182.52 
L 279.142488 -182.52 
L 279.289573 -182.52 
L 279.436659 -182.52 
L 279.583745 -182.52 
L 279.730831 -182.52 
L 279.877917 -182.52 
L 280.025002 -182.52 
L 280.172088 -182.52 
L 280.319174 -182.52 
L 280.46626 -182.52 
L 280.613345 -182.52 
L 280.760431 -182.52 
L 280.907517 -182.52 
L 281.054603 -182.52 
L 281.201689 -182.52 
L 281.348774 -182.52 
L 281.49586 -182.52 
L 281.642946 -182.52 
L 281.790032 -182.52 
L 281.937117 -182.52 
L 282.084203 -182.52 
L 282.231289 -182.52 
L 282.378375 -182.52 
L 282.52546 -182.52 
L 282.672546 -182.52 
L 282.819641 -182.52 
L 282.966727 -182.52 
L 283.113812 -182.52 
L 283.260898 -182.52 
L 283.407984 -182.52 
L 283.55507 -182.52 
L 283.702155 -182.52 
L 283.849241 -182.52 
L 283.996327 -182.52 
L 284.143413 -182.52 
L 284.290499 -182.52 
L 284.437584 -182.52 
L 284.58467 -182.52 
L 284.731756 -182.52 
L 284.878842 -182.52 
L 285.025927 -182.52 
L 285.173013 -182.52 
L 285.320099 -182.52 
L 285.467185 -182.52 
L 285.614271 -182.52 
L 285.761356 -182.52 
L 285.908442 -182.52 
L 286.055528 -182.52 
L 286.202614 -182.52 
L 286.349699 -182.52 
L 286.496785 -182.52 
L 286.643871 -182.52 
L 286.790957 -182.52 
L 286.938042 -182.52 
L 287.085128 -182.52 
L 287.232214 -182.52 
L 287.3793 -182.52 
L 287.526386 -182.52 
L 287.673471 -182.52 
L 287.820557 -182.52 
L 287.967643 -182.52 
L 288.114729 -182.52 
L 288.261814 -182.52 
L 288.4089 -182.52 
L 288.555986 -182.52 
L 288.703072 -182.52 
L 288.850158 -182.52 
L 288.997243 -182.52 
L 289.144329 -182.52 
L 289.291415 -182.52 
L 289.438501 -182.52 
L 289.585586 -182.52 
L 289.732672 -182.52 
L 289.879758 -182.52 
L 290.026844 -182.52 
L 290.173929 -182.52 
L 290.321015 -182.52 
L 290.468101 -182.52 
L 290.615187 -182.52 
L 290.762273 -182.52 
L 290.909358 -182.52 
L 290.909358 -31.32 
L 290.909358 -31.32 
L 290.762273 -31.32 
L 290.615187 -31.32 
L 290.468101 -31.32 
L 290.321015 -31.32 
L 290.173929 -31.32 
L 290.026844 -31.32 
L 289.879758 -31.32 
L 289.732672 -31.32 
L 289.585586 -31.32 
L 289.438501 -31.32 
L 289.291415 -31.32 
L 289.144329 -31.32 
L 288.997243 -31.32 
L 288.850158 -31.32 
L 288.703072 -31.32 
L 288.555986 -31.32 
L 288.4089 -31.32 
L 288.261814 -31.32 
L 288.114729 -31.32 
L 287.967643 -31.32 
L 287.820557 -31.32 
L 287.673471 -31.32 
L 287.526386 -31.32 
L 287.3793 -31.32 
L 287.232214 -31.32 
L 287.085128 -31.32 
L 286.938042 -31.32 
L 286.790957 -31.32 
L 286.643871 -31.32 
L 286.496785 -31.32 
L 286.349699 -31.32 
L 286.202614 -31.32 
L 286.055528 -31.32 
L 285.908442 -31.32 
L 285.761356 -31.32 
L 285.614271 -31.32 
L 285.467185 -31.32 
L 285.320099 -31.32 
L 285.173013 -31.32 
L 285.025927 -31.32 
L 284.878842 -31.32 
L 284.731756 -31.32 
L 284.58467 -31.32 
L 284.437584 -31.32 
L 284.290499 -31.32 
L 284.143413 -31.32 
L 283.996327 -31.32 
L 283.849241 -31.32 
L 283.702155 -31.32 
L 283.55507 -31.32 
L 283.407984 -31.32 
L 283.260898 -31.32 
L 283.113812 -31.32 
L 282.966727 -31.32 
L 282.819641 -31.32 
L 282.672546 -31.32 
L 282.52546 -31.32 
L 282.378375 -31.32 
L 282.231289 -31.32 
L 282.084203 -31.32 
L 281.937117 -31.32 
L 281.790032 -31.32 
L 281.642946 -31.32 
L 281.49586 -31.32 
L 281.348774 -31.32 
L 281.201689 -31.32 
L 281.054603 -31.32 
L 280.907517 -31.32 
L 280.760431 -31.32 
L 280.613345 -31.32 
L 280.46626 -31.32 
L 280.319174 -31.32 
L 280.172088 -31.32 
L 280.025002 -31.32 
L 279.877917 -31.32 
L 279.730831 -31.32 
L 279.583745 -31.32 
L 279.436659 -31.32 
L 279.289573 -31.32 
L 279.142488 -31.32 
L 278.995402 -31.32 
L 278.848316 -31.32 
L 278.70123 -31.32 
L 278.554145 -31.32 
L 278.407059 -31.32 
L 278.259973 -31.32 
L 278.112887 -31.32 
L 277.965802 -31.32 
L 277.818716 -31.32 
L 277.67163 -31.32 
L 277.524544 -31.32 
L 277.377458 -31.32 
L 277.230373 -31.32 
L 277.083287 -31.32 
L 276.936201 -31.32 
L 276.789115 -31.32 
L 276.64203 -31.32 
L 276.494944 -31.32 
L 276.347858 -31.32 
L 276.200772 -31.32 
L 276.053686 -31.32 
L 275.906601 -31.32 
L 275.759515 -31.32 
L 275.612429 -31.32 
L 275.465343 -31.32 
L 275.318258 -31.32 
L 275.171172 -31.32 
L 275.024086 -31.32 
L 274.877 -31.32 
L 274.729914 -31.32 
L 274.582829 -31.32 
L 274.435743 -31.32 
L 274.288657 -31.32 
L 274.141571 -31.32 
L 273.994486 -31.32 
L 273.8474 -31.32 
L 273.700314 -31.32 
L 273.553228 -31.32 
L 273.406143 -31.32 
L 273.259057 -31.32 
L 273.111971 -31.32 
L 272.964885 -31.32 
L 272.817799 -31.32 
L 272.670714 -31.32 
L 272.523628 -31.32 
L 272.376542 -31.32 
L 272.229456 -31.32 
L 272.082371 -31.32 
L 271.935285 -31.32 
L 271.788199 -31.32 
L 271.641113 -31.32 
L 271.494027 -31.32 
L 271.346942 -31.32 
L 271.199856 -31.32 
L 271.05277 -31.32 
L 270.905684 -31.32 
L 270.758599 -31.32 
L 270.611513 -31.32 
L 270.464427 -31.32 
L 270.317341 -31.32 
L 270.170256 -31.32 
L 270.02317 -31.32 
L 269.876084 -31.32 
L 269.728998 -31.32 
L 269.581912 -31.32 
L 269.434827 -31.32 
L 269.287741 -31.32 
L 269.140655 -31.32 
L 268.993569 -31.32 
L 268.846484 -31.32 
L 268.699398 -31.32 
L 268.552303 -31.32 
L 268.405217 -31.32 
L 268.258132 -31.32 
L 268.111046 -31.32 
L 267.96396 -31.32 
L 267.816874 -31.32 
L 267.669789 -31.32 
L 267.522703 -31.32 
L 267.375617 -31.32 
L 267.228531 -31.32 
L 267.081445 -31.32 
L 266.93436 -31.32 
L 266.787274 -31.32 
L 266.640188 -31.32 
L 266.493102 -31.32 
L 266.346017 -31.32 
L 266.198931 -31.32 
L 266.051845 -31.32 
L 265.904759 -31.32 
L 265.757674 -31.32 
L 265.610588 -31.32 
L 265.463502 -31.32 
L 265.316416 -31.32 
L 265.16933 -31.32 
L 265.022245 -31.32 
L 264.875159 -31.32 
L 264.728073 -31.32 
L 264.580987 -31.32 
L 264.433902 -31.32 
L 264.286816 -31.32 
L 264.13973 -31.32 
L 263.992644 -31.32 
L 263.845558 -31.32 
L 263.698473 -31.32 
L 263.551387 -31.32 
L 263.404301 -31.32 
L 263.257215 -31.32 
L 263.11013 -31.32 
L 262.963044 -31.32 
L 262.815958 -31.32 
L 262.668872 -31.32 
L 262.521787 -31.32 
L 262.374701 -31.32 
L 262.227615 -31.32 
L 262.080529 -31.32 
L 261.933443 -31.32 
L 261.786358 -31.32 
L 261.639272 -31.32 
L 261.492186 -31.32 
L 261.3451 -31.32 
L 261.198015 -31.32 
L 261.050929 -31.32 
L 260.903843 -31.32 
L 260.756757 -31.32 
L 260.609671 -31.32 
L 260.462586 -31.32 
L 260.3155 -31.32 
L 260.168414 -31.32 
L 260.021328 -31.32 
L 259.874243 -31.32 
L 259.727157 -31.32 
L 259.580071 -31.32 
L 259.432985 -31.32 
L 259.285899 -31.32 
L 259.138814 -31.32 
L 258.991728 -31.32 
L 258.844642 -31.32 
L 258.697556 -31.32 
L 258.550471 -31.32 
L 258.403385 -31.32 
L 258.256299 -31.32 
L 258.109213 -31.32 
L 257.962128 -31.32 
L 257.815042 -31.32 
L 257.667956 -31.32 
L 257.52087 -31.32 
L 257.373784 -31.32 
L 257.226699 -31.32 
L 257.079613 -31.32 
L 256.932527 -31.32 
L 256.785441 -31.32 
L 256.638356 -31.32 
L 256.49127 -31.32 
L 256.344184 -31.32 
L 256.197098 -31.32 
L 256.050012 -31.32 
L 255.902927 -31.32 
L 255.755841 -31.32 
L 255.608755 -31.32 
L 255.461669 -31.32 
L 255.314584 -31.32 
L 255.167498 -31.32 
L 255.020412 -31.32 
L 254.873326 -31.32 
L 254.726241 -31.32 
L 254.579155 -31.32 
L 254.432069 -31.32 
L 254.284983 -31.32 
L 254.137897 -31.32 
L 253.990812 -31.32 
L 253.843726 -31.32 
L 253.69664 -31.32 
L 253.549554 -31.32 
L 253.402469 -31.32 
L 253.255374 -31.32 
L 253.108288 -31.32 
L 252.961202 -31.32 
L 252.814117 -31.32 
L 252.667031 -31.32 
L 252.519945 -31.32 
L 252.372859 -31.32 
L 252.225774 -31.32 
L 252.078688 -31.32 
L 251.931602 -31.32 
L 251.784516 -31.32 
L 251.637431 -31.32 
L 251.490345 -31.32 
L 251.343259 -31.32 
L 251.196173 -31.32 
L 251.049087 -31.32 
L 250.902002 -31.32 
L 250.754916 -31.32 
L 250.60783 -31.32 
L 250.460744 -31.32 
L 250.313659 -31.32 
L 250.166573 -31.32 
L 250.019487 -31.32 
L 249.872401 -31.32 
L 249.725315 -31.32 
L 249.57823 -31.32 
L 249.431144 -31.32 
L 249.284058 -31.32 
L 249.136972 -31.32 
L 248.989887 -31.32 
L 248.842801 -31.32 
L 248.695715 -31.32 
L 248.548629 -31.32 
L 248.401543 -31.32 
L 248.254458 -31.32 
L 248.107372 -31.32 
L 247.960286 -31.32 
L 247.8132 -31.32 
L 247.666115 -31.32 
L 247.519029 -31.32 
L 247.371943 -31.32 
L 247.224857 -31.32 
L 247.077772 -31.32 
L 246.930686 -31.32 
L 246.7836 -31.32 
L 246.636514 -31.32 
L 246.489428 -31.32 
L 246.342343 -31.32 
L 246.195257 -31.32 
L 246.048171 -31.32 
L 245.901085 -31.32 
L 245.754 -31.32 
L 245.606914 -31.32 
L 245.459828 -31.32 
L 245.312742 -31.32 
L 245.165656 -31.32 
L 245.018566 -31.32 
L 244.871481 -31.32 
L 244.724395 -31.32 
L 244.577309 -31.32 
L 244.430223 -31.32 
L 244.283137 -31.32 
L 244.136052 -31.32 
L 243.988966 -31.32 
L 243.84188 -31.32 
L 243.694794 -31.32 
L 243.547709 -31.32 
L 243.400623 -31.32 
L 243.253537 -31.32 
L 243.106451 -31.32 
L 242.959365 -31.32 
L 242.81228 -31.32 
L 242.665194 -31.32 
L 242.518108 -31.32 
L 242.371022 -31.32 
L 242.223937 -31.32 
L 242.076851 -31.32 
L 241.929765 -31.32 
L 241.782679 -31.32 
L 241.635594 -31.32 
L 241.488508 -31.32 
L 241.341422 -31.32 
L 241.194336 -31.32 
L 241.04725 -31.32 
L 240.900165 -31.32 
L 240.753079 -31.32 
L 240.605993 -31.32 
L 240.458907 -31.32 
L 240.311822 -31.32 
L 240.164736 -31.32 
L 240.01765 -31.32 
L 239.870564 -31.32 
L 239.723478 -31.32 
L 239.576393 -31.32 
L 239.429307 -31.32 
L 239.282221 -31.32 
L 239.135135 -31.32 
L 238.98805 -31.32 
L 238.840964 -31.32 
L 238.693878 -31.32 
L 238.546792 -31.32 
L 238.399706 -31.32 
L 238.252621 -31.32 
L 238.105535 -31.32 
L 237.958445 -31.32 
L 237.811359 -31.32 
L 237.664273 -31.32 
L 237.517187 -31.32 
L 237.370102 -31.32 
L 237.223016 -31.32 
L 237.07593 -31.32 
L 236.928844 -31.32 
L 236.781759 -31.32 
L 236.634673 -31.32 
L 236.487587 -31.32 
L 236.340501 -31.32 
L 236.193416 -31.32 
L 236.04633 -31.32 
L 235.899244 -31.32 
L 235.752158 -31.32 
L 235.605072 -31.32 
L 235.457987 -31.32 
L 235.310901 -31.32 
L 235.163815 -31.32 
L 235.016729 -31.32 
L 234.869644 -31.32 
L 234.722558 -31.32 
L 234.575472 -31.32 
L 234.428386 -31.32 
L 234.2813 -31.32 
L 234.134215 -31.32 
L 233.987129 -31.32 
L 233.840043 -31.32 
L 233.692957 -31.32 
L 233.545872 -31.32 
L 233.398786 -31.32 
L 233.2517 -31.32 
L 233.104614 -31.32 
L 232.957528 -31.32 
L 232.810443 -31.32 
L 232.663357 -31.32 
L 232.516271 -31.32 
L 232.369185 -31.32 
L 232.2221 -31.32 
L 232.075014 -31.32 
L 231.927928 -31.32 
L 231.780842 -31.32 
L 231.633757 -31.32 
L 231.486671 -31.32 
L 231.339585 -31.32 
L 231.192499 -31.32 
L 231.045413 -31.32 
L 230.898328 -31.32 
L 230.751242 -31.32 
L 230.604156 -31.32 
L 230.45707 -31.32 
L 230.309985 -31.32 
L 230.162899 -31.32 
L 230.015813 -31.32 
L 229.868727 -31.32 
L 229.721637 -31.32 
L 229.574551 -31.32 
L 229.427466 -31.32 
L 229.28038 -31.32 
L 229.133294 -31.32 
L 228.986208 -31.32 
L 228.839122 -31.32 
L 228.692037 -31.32 
L 228.544951 -31.32 
L 228.397865 -31.32 
L 228.250779 -31.32 
L 228.103694 -31.32 
L 227.956608 -31.32 
L 227.809522 -31.32 
L 227.662436 -31.32 
L 227.51535 -31.32 
L 227.368265 -31.32 
L 227.221179 -31.32 
L 227.074093 -31.32 
L 226.927007 -31.32 
L 226.779922 -31.32 
L 226.632836 -31.32 
L 226.48575 -31.32 
L 226.338664 -31.32 
L 226.191579 -31.32 
L 226.044493 -31.32 
L 225.897407 -31.32 
L 225.750321 -31.32 
L 225.603235 -31.32 
L 225.45615 -31.32 
L 225.309064 -31.32 
L 225.161978 -31.32 
L 225.014892 -31.32 
L 224.867807 -31.32 
L 224.720721 -31.32 
L 224.573635 -31.32 
L 224.426549 -31.32 
L 224.279463 -31.32 
L 224.132378 -31.32 
L 223.985292 -31.32 
L 223.838206 -31.32 
L 223.69112 -31.32 
L 223.544035 -31.32 
L 223.396949 -31.32 
L 223.249863 -31.32 
L 223.102777 -31.32 
L 222.955691 -31.32 
L 222.808606 -31.32 
L 222.661516 -31.32 
L 222.51443 -31.32 
L 222.367344 -31.32 
L 222.220258 -31.32 
L 222.073172 -31.32 
L 221.926087 -31.32 
L 221.779001 -31.32 
L 221.631915 -31.32 
L 221.484829 -31.32 
L 221.337744 -31.32 
L 221.190658 -31.32 
L 221.043572 -31.32 
L 220.896486 -31.32 
L 220.749401 -31.32 
L 220.602315 -31.32 
L 220.455229 -31.32 
L 220.308143 -31.32 
L 220.161057 -31.32 
L 220.013972 -31.32 
L 219.866886 -31.32 
L 219.7198 -31.32 
L 219.572714 -31.32 
L 219.425629 -31.32 
L 219.278543 -31.32 
L 219.131457 -31.32 
L 218.984371 -31.32 
L 218.837285 -31.32 
L 218.6902 -31.32 
L 218.543114 -31.32 
L 218.396028 -31.32 
L 218.248942 -31.32 
L 218.101857 -31.32 
L 217.954771 -31.32 
L 217.807685 -31.32 
L 217.660599 -31.32 
L 217.513513 -31.32 
L 217.366428 -31.32 
L 217.219342 -31.32 
L 217.072256 -31.32 
L 216.92517 -31.32 
L 216.778085 -31.32 
L 216.630999 -31.32 
L 216.483913 -31.32 
L 216.336827 -31.32 
L 216.189742 -31.32 
L 216.042656 -31.32 
L 215.89557 -31.32 
L 215.748484 -31.32 
L 215.601394 -31.32 
L 215.454308 -31.32 
L 215.307223 -31.32 
L 215.160137 -31.32 
L 215.013051 -31.32 
L 214.865965 -31.32 
L 214.718879 -31.32 
L 214.571794 -31.32 
L 214.424708 -31.32 
L 214.277622 -31.32 
L 214.130536 -31.32 
L 213.983451 -31.32 
L 213.836365 -31.32 
L 213.689279 -31.32 
L 213.542193 -31.32 
L 213.395107 -31.32 
L 213.248022 -31.32 
L 213.100936 -31.32 
L 212.95385 -31.32 
L 212.806764 -31.32 
L 212.659679 -31.32 
L 212.512593 -31.32 
L 212.365507 -31.32 
L 212.218421 -31.32 
L 212.071335 -31.32 
L 211.92425 -31.32 
L 211.777164 -31.32 
L 211.630078 -31.32 
L 211.482992 -31.32 
L 211.335907 -31.32 
L 211.188821 -31.32 
L 211.041735 -31.32 
L 210.894649 -31.32 
L 210.747564 -31.32 
L 210.600478 -31.32 
L 210.453392 -31.32 
L 210.306306 -31.32 
L 210.15922 -31.32 
L 210.012135 -31.32 
L 209.865049 -31.32 
L 209.717961 -31.32 
L 209.570875 -31.32 
L 209.423789 -31.32 
L 209.276704 -31.32 
L 209.129618 -31.32 
L 208.982532 -31.32 
L 208.835446 -31.32 
L 208.68836 -31.32 
L 208.541275 -31.32 
L 208.394189 -31.32 
L 208.247103 -31.32 
L 208.100017 -31.32 
L 207.952932 -31.32 
L 207.805846 -31.32 
L 207.65876 -31.32 
L 207.511674 -31.32 
L 207.364589 -31.32 
L 207.217503 -31.32 
L 207.070417 -31.32 
L 206.923331 -31.32 
L 206.776245 -31.32 
L 206.62916 -31.32 
L 206.482074 -31.32 
L 206.334988 -31.32 
L 206.1879 -31.32 
L 206.040814 -31.32 
L 205.893729 -31.32 
L 205.746643 -31.32 
L 205.599557 -31.32 
L 205.452471 -31.32 
L 205.305386 -31.32 
L 205.1583 -31.32 
L 205.011214 -31.32 
L 204.864128 -31.32 
L 204.717042 -31.32 
L 204.569957 -31.32 
L 204.422871 -31.32 
L 204.275785 -31.32 
L 204.128699 -31.32 
L 203.981614 -31.32 
L 203.834528 -31.32 
L 203.687442 -31.32 
L 203.540356 -31.32 
L 203.39327 -31.32 
L 203.246185 -31.32 
L 203.099099 -31.32 
L 202.952013 -31.32 
L 202.804927 -31.32 
L 202.657842 -31.32 
L 202.510756 -31.32 
L 202.36367 -31.32 
L 202.216584 -31.32 
L 202.069498 -31.32 
L 201.922413 -31.32 
L 201.775327 -31.32 
L 201.628241 -31.32 
L 201.481153 -31.32 
L 201.334067 -31.32 
L 201.186982 -31.32 
L 201.039896 -31.32 
L 200.89281 -31.32 
L 200.745724 -31.32 
L 200.598639 -31.32 
L 200.451553 -31.32 
L 200.304467 -31.32 
L 200.157381 -31.32 
L 200.010295 -31.32 
L 199.86321 -31.32 
L 199.716124 -31.32 
L 199.569038 -31.32 
L 199.421952 -31.32 
L 199.274867 -31.32 
L 199.127781 -31.32 
L 198.980695 -31.32 
L 198.833609 -31.32 
L 198.686524 -31.32 
L 198.539438 -31.32 
L 198.392352 -31.32 
L 198.245266 -31.32 
L 198.09818 -31.32 
L 197.951092 -31.32 
L 197.804007 -31.32 
L 197.656921 -31.32 
L 197.509835 -31.32 
L 197.362749 -31.32 
L 197.215664 -31.32 
L 197.068578 -31.32 
L 196.921492 -31.32 
L 196.774406 -31.32 
L 196.62732 -31.32 
L 196.480235 -31.32 
L 196.333149 -31.32 
L 196.186063 -31.32 
L 196.038977 -31.32 
L 195.891892 -31.32 
L 195.744806 -31.32 
L 195.59772 -31.32 
L 195.450634 -31.32 
L 195.303549 -31.32 
L 195.156463 -31.32 
L 195.009377 -31.32 
L 194.862291 -31.32 
L 194.715205 -31.32 
L 194.56812 -31.32 
L 194.421032 -31.32 
L 194.273946 -31.32 
L 194.12686 -31.32 
L 193.979774 -31.32 
L 193.832689 -31.32 
L 193.685603 -31.32 
L 193.538517 -31.32 
L 193.391431 -31.32 
L 193.244345 -31.32 
L 193.09726 -31.32 
L 192.950174 -31.32 
L 192.803088 -31.32 
L 192.656002 -31.32 
L 192.508917 -31.32 
L 192.361831 -31.32 
L 192.214745 -31.32 
L 192.067659 -31.32 
L 191.920574 -31.32 
L 191.773488 -31.32 
L 191.626401 -31.32 
L 191.479315 -31.32 
L 191.332229 -31.32 
L 191.185144 -31.32 
L 191.038058 -31.32 
L 190.890973 -31.32 
L 190.743886 -31.32 
L 190.5968 -31.32 
L 190.449715 -31.32 
L 190.302629 -31.32 
L 190.155543 -31.32 
L 190.008457 -31.32 
L 189.861372 -31.32 
L 189.714286 -31.32 
L 189.567199 -31.32 
L 189.420113 -31.32 
L 189.273027 -31.32 
L 189.125942 -31.32 
L 188.978856 -31.32 
L 188.83177 -31.32 
L 188.684684 -31.32 
L 188.5376 -31.32 
L 188.390513 -31.32 
L 188.243427 -31.32 
L 188.096341 -31.32 
L 187.949255 -31.32 
L 187.80217 -31.32 
L 187.655084 -31.32 
L 187.507998 -31.32 
L 187.360912 -31.32 
L 187.213825 -31.32 
L 187.06674 -31.32 
L 186.919654 -31.32 
L 186.772568 -31.32 
L 186.625482 -31.32 
L 186.478397 -31.32 
L 186.331311 -31.32 
L 186.184225 -31.32 
L 186.037138 -31.32 
L 185.890052 -31.32 
L 185.742967 -31.32 
L 185.595881 -31.32 
L 185.448795 -31.32 
L 185.301709 -31.32 
L 185.154624 -31.32 
L 185.007539 -31.32 
L 184.860452 -31.32 
L 184.713366 -31.32 
L 184.56628 -31.32 
L 184.419195 -31.32 
L 184.272109 -31.32 
L 184.125023 -31.32 
L 183.977937 -31.32 
L 183.830852 -31.32 
L 183.683765 -31.32 
L 183.536679 -31.32 
L 183.389593 -31.32 
L 183.242507 -31.32 
L 183.095422 -31.32 
L 182.948336 -31.32 
L 182.80125 -31.32 
L 182.654164 -31.32 
L 182.507079 -31.32 
L 182.359993 -31.32 
L 182.212907 -31.32 
L 182.065821 -31.32 
L 181.918735 -31.32 
L 181.771649 -31.32 
L 181.624563 -31.32 
L 181.477478 -31.32 
L 181.330392 -31.32 
L 181.183306 -31.32 
L 181.03622 -31.32 
L 180.889134 -31.32 
L 180.742048 -31.32 
L 180.594962 -31.32 
L 180.447877 -31.32 
L 180.30079 -31.32 
L 180.153705 -31.32 
L 180.006619 -31.32 
L 179.859533 -31.32 
L 179.712447 -31.32 
L 179.565361 -31.32 
L 179.418275 -31.32 
L 179.271189 -31.32 
L 179.124104 -31.32 
L 178.977018 -31.32 
L 178.829932 -31.32 
L 178.682846 -31.32 
L 178.53576 -31.32 
L 178.388674 -31.32 
L 178.241588 -31.32 
L 178.094503 -31.32 
L 177.947417 -31.32 
L 177.800331 -31.32 
L 177.653245 -31.32 
L 177.506159 -31.32 
L 177.359073 -31.32 
L 177.211988 -31.32 
L 177.064902 -31.32 
L 176.917816 -31.32 
L 176.77073 -31.32 
L 176.623644 -31.32 
L 176.476558 -31.32 
L 176.329472 -31.32 
L 176.182386 -31.32 
L 176.035301 -31.32 
L 175.888215 -31.32 
L 175.741129 -31.32 
L 175.594043 -31.32 
L 175.446957 -31.32 
L 175.299871 -31.32 
L 175.152785 -31.32 
L 175.0057 -31.32 
L 174.858614 -31.32 
L 174.711528 -31.32 
L 174.564442 -31.32 
L 174.417356 -31.32 
L 174.27027 -31.32 
L 174.123184 -31.32 
L 173.976099 -31.32 
L 173.829013 -31.32 
L 173.681927 -31.32 
L 173.534841 -31.32 
L 173.387755 -31.32 
z
" style="stroke: #ffffff; stroke-opacity: 0.5"/>
    </defs>
    <g clip-path="url(#pca0465d48e)">
     <use xlink:href="#md8d1abc15d" x="0" y="216" style="fill: #4c72b0; fill-opacity: 0.5; stroke: #ffffff; stroke-opacity: 0.5"/>
    </g>
   </g>
   <g id="line2d_1">
    <path d="M 173.387755 33.48 
L 320.179445 33.48 
L 320.326531 184.68 
L 320.326531 184.68 
" clip-path="url(#pca0465d48e)" style="fill: none; stroke: #4c72b0; stroke-width: 1.5; stroke-linecap: round"/>
   </g>
   <g id="line2d_2">
    <path d="M 173.387755 184.68 
L 320.326531 33.48 
L 320.326531 33.48 
" clip-path="url(#pca0465d48e)" style="fill: none; stroke: #dd8452; stroke-width: 1.5; stroke-linecap: round"/>
   </g>
   <g id="LineCollection_1">
    <path d="M 290.938776 184.68 
L 290.938776 63.719998 
" clip-path="url(#pca0465d48e)" style="fill: none; stroke-dasharray: 5.55,2.4; stroke-dashoffset: 0; stroke: #999999; stroke-width: 1.5"/>
   </g>
   <g id="LineCollection_2">
    <path d="M 158.693878 63.719998 
L 290.938777 63.719998 
" clip-path="url(#pca0465d48e)" style="fill: none; stroke-dasharray: 5.55,2.4; stroke-dashoffset: 0; stroke: #999999; stroke-width: 1.5"/>
   </g>
   <g id="patch_3">
    <path d="M 144 192.24 
L 144 25.92 
" style="fill: none; stroke: #cccccc; stroke-width: 1.25; stroke-linejoin: miter; stroke-linecap: square"/>
   </g>
   <g id="patch_4">
    <path d="M 349.714286 192.24 
L 349.714286 25.92 
" style="fill: none; stroke: #cccccc; stroke-width: 1.25; stroke-linejoin: miter; stroke-linecap: square"/>
   </g>
   <g id="patch_5">
    <path d="M 144 192.24 
L 349.714286 192.24 
" style="fill: none; stroke: #cccccc; stroke-width: 1.25; stroke-linejoin: miter; stroke-linecap: square"/>
   </g>
   <g id="patch_6">
    <path d="M 144 25.92 
L 349.714286 25.92 
" style="fill: none; stroke: #cccccc; stroke-width: 1.25; stroke-linejoin: miter; stroke-linecap: square"/>
   </g>
   <g id="text_9">
    <!-- $u$ -->
    <g style="fill: #ff0000" transform="translate(284.276336 211.14)scale(0.24 -0.24)">
     <defs>
      <path id="CMMI12-75" d="M 2182 370 
C 2266 12 2573 -64 2726 -64 
C 2931 -64 3085 70 3187 287 
C 3296 517 3379 893 3379 913 
C 3379 944 3354 970 3315 970 
C 3258 970 3251 938 3226 842 
C 3110 402 2995 64 2739 64 
C 2547 64 2547 274 2547 357 
C 2547 504 2566 568 2630 836 
C 2675 1008 2720 1181 2758 1359 
L 3021 2400 
C 3066 2560 3066 2572 3066 2591 
C 3066 2687 2989 2752 2893 2752 
C 2707 2752 2662 2591 2624 2432 
C 2560 2183 2214 810 2170 587 
C 2163 587 1914 64 1446 64 
C 1114 64 1050 351 1050 587 
C 1050 951 1229 1462 1395 1890 
C 1472 2094 1504 2177 1504 2305 
C 1504 2579 1306 2816 998 2816 
C 410 2816 173 1890 173 1838 
C 173 1813 198 1781 243 1781 
C 301 1781 307 1807 333 1896 
C 486 2445 736 2687 979 2687 
C 1043 2687 1146 2681 1146 2477 
C 1146 2311 1075 2126 979 1883 
C 698 1123 666 881 666 689 
C 666 38 1158 -64 1421 -64 
C 1830 -64 2054 217 2182 370 
z
" transform="scale(0.015625)"/>
     </defs>
     <use xlink:href="#CMMI12-75" transform="scale(0.996264)"/>
    </g>
   </g>
   <g id="PathCollection_1">
    <defs>
     <path id="m57045f0864" d="M 0 3 
C 0.795609 3 1.55874 2.683901 2.12132 2.12132 
C 2.683901 1.55874 3 0.795609 3 0 
C 3 -0.795609 2.683901 -1.55874 2.12132 -2.12132 
C 1.55874 -2.683901 0.795609 -3 0 -3 
C -0.795609 -3 -1.55874 -2.683901 -2.12132 -2.12132 
C -2.683901 -1.55874 -3 -0.795609 -3 0 
C -3 0.795609 -2.683901 1.55874 -2.12132 2.12132 
C -1.55874 2.683901 -0.795609 3 0 3 
z
" style="stroke: #dd8452"/>
    </defs>
    <g clip-path="url(#pca0465d48e)">
     <use xlink:href="#m57045f0864" x="290.938776" y="63.719998" style="fill: #dd8452; stroke: #dd8452"/>
    </g>
   </g>
  </g>
  <g id="axes_2">
   <g id="patch_7">
    <path d="M 370.285714 192.24 
L 576 192.24 
L 576 25.92 
L 370.285714 25.92 
z
" style="fill: #ffffff"/>
   </g>
   <g id="matplotlib.axis_3">
    <g id="xtick_4">
     <g id="text_10">
      <!-- $\mathdefault{−2.5}$ -->
      <g style="fill: #262626" transform="translate(394.707734 211.425876)scale(0.14 -0.14)">
       <defs>
        <path id="CMSY10-0" d="M 4218 1472 
C 4326 1472 4442 1472 4442 1600 
C 4442 1728 4326 1728 4218 1728 
L 755 1728 
C 646 1728 531 1728 531 1600 
C 531 1472 646 1472 755 1472 
L 4218 1472 
z
" transform="scale(0.015625)"/>
       </defs>
       <use xlink:href="#CMSY10-0" transform="scale(0.996264)"/>
       <use xlink:href="#CMR17-32" transform="translate(77.487468 0)scale(0.996264)"/>
       <use xlink:href="#CMMI12-3a" transform="translate(123.177945 0)scale(0.996264)"/>
       <use xlink:href="#CMR17-35" transform="translate(150.275122 0)scale(0.996264)"/>
      </g>
     </g>
    </g>
    <g id="xtick_5">
     <g id="text_11">
      <!-- $\mathdefault{2.5}$ -->
      <g style="fill: #262626" transform="translate(528.70328 211.425876)scale(0.14 -0.14)">
       <use xlink:href="#CMR17-32" transform="scale(0.996264)"/>
       <use xlink:href="#CMMI12-3a" transform="translate(45.690477 0)scale(0.996264)"/>
       <use xlink:href="#CMR17-35" transform="translate(72.787654 0)scale(0.996264)"/>
      </g>
     </g>
    </g>
   </g>
   <g id="matplotlib.axis_4">
    <g id="ytick_6"/>
    <g id="ytick_7"/>
    <g id="ytick_8"/>
    <g id="ytick_9"/>
    <g id="ytick_10"/>
   </g>
   <g id="PolyCollection_2">
    <defs>
     <path id="m283fe36b2f" d="M 370.285714 -31.32 
L 370.285714 -31.340235 
L 370.491634 -31.340893 
L 370.697554 -31.341571 
L 370.903475 -31.34227 
L 371.109395 -31.342989 
L 371.315315 -31.343731 
L 371.521235 -31.344495 
L 371.727155 -31.345282 
L 371.933075 -31.346092 
L 372.138995 -31.346927 
L 372.344915 -31.347786 
L 372.550835 -31.348671 
L 372.756755 -31.349583 
L 372.962675 -31.350521 
L 373.168595 -31.351487 
L 373.374516 -31.352482 
L 373.580436 -31.353506 
L 373.786356 -31.35456 
L 373.992276 -31.355645 
L 374.198196 -31.356762 
L 374.404116 -31.357911 
L 374.610036 -31.359093 
L 374.815956 -31.36031 
L 375.021876 -31.361562 
L 375.227796 -31.362851 
L 375.433716 -31.364176 
L 375.639636 -31.365539 
L 375.845557 -31.366942 
L 376.051477 -31.368384 
L 376.257397 -31.369868 
L 376.463317 -31.371394 
L 376.669237 -31.372963 
L 376.875163 -31.374577 
L 377.081083 -31.376236 
L 377.287003 -31.377942 
L 377.492923 -31.379696 
L 377.698843 -31.381499 
L 377.904763 -31.383352 
L 378.110684 -31.385257 
L 378.316604 -31.387215 
L 378.522524 -31.389228 
L 378.728444 -31.391296 
L 378.934364 -31.393421 
L 379.140284 -31.395604 
L 379.346204 -31.397848 
L 379.552124 -31.400153 
L 379.758044 -31.40252 
L 379.963964 -31.404953 
L 380.169884 -31.407451 
L 380.375804 -31.410017 
L 380.581725 -31.412653 
L 380.787645 -31.41536 
L 380.993565 -31.418139 
L 381.199485 -31.420993 
L 381.405405 -31.423923 
L 381.611325 -31.426931 
L 381.817245 -31.43002 
L 382.023165 -31.43319 
L 382.229085 -31.436444 
L 382.435005 -31.439785 
L 382.640925 -31.443213 
L 382.846845 -31.446731 
L 383.052766 -31.450341 
L 383.258686 -31.454045 
L 383.464606 -31.457846 
L 383.670526 -31.461745 
L 383.876446 -31.465746 
L 384.082366 -31.469849 
L 384.288286 -31.474059 
L 384.494206 -31.478376 
L 384.700126 -31.482804 
L 384.906046 -31.487345 
L 385.111966 -31.492002 
L 385.317886 -31.496777 
L 385.523807 -31.501673 
L 385.729727 -31.506692 
L 385.935647 -31.511838 
L 386.141567 -31.517113 
L 386.347487 -31.52252 
L 386.553407 -31.528062 
L 386.759333 -31.533743 
L 386.965253 -31.539564 
L 387.171173 -31.545529 
L 387.377093 -31.551641 
L 387.583014 -31.557904 
L 387.788934 -31.56432 
L 387.994854 -31.570894 
L 388.200774 -31.577627 
L 388.406694 -31.584525 
L 388.612614 -31.591589 
L 388.818534 -31.598825 
L 389.024454 -31.606235 
L 389.230374 -31.613823 
L 389.436294 -31.621593 
L 389.642214 -31.629548 
L 389.848134 -31.637693 
L 390.054055 -31.646031 
L 390.259975 -31.654567 
L 390.465895 -31.663304 
L 390.671815 -31.672247 
L 390.877735 -31.681399 
L 391.083655 -31.690765 
L 391.289575 -31.70035 
L 391.495495 -31.710158 
L 391.701415 -31.720193 
L 391.907335 -31.730459 
L 392.113255 -31.740962 
L 392.319175 -31.751706 
L 392.525096 -31.762696 
L 392.731016 -31.773937 
L 392.936936 -31.785433 
L 393.142856 -31.79719 
L 393.348776 -31.809212 
L 393.554696 -31.821505 
L 393.760616 -31.834074 
L 393.966536 -31.846924 
L 394.172456 -31.860061 
L 394.378376 -31.873489 
L 394.584296 -31.887216 
L 394.790216 -31.901245 
L 394.996137 -31.915583 
L 395.202057 -31.930236 
L 395.407977 -31.945209 
L 395.613897 -31.960508 
L 395.819817 -31.97614 
L 396.025737 -31.99211 
L 396.231657 -32.008425 
L 396.437577 -32.02509 
L 396.643497 -32.042113 
L 396.849417 -32.059499 
L 397.055337 -32.077255 
L 397.261257 -32.095388 
L 397.467178 -32.113904 
L 397.673098 -32.132811 
L 397.879018 -32.152114 
L 398.084938 -32.171821 
L 398.290864 -32.191939 
L 398.496784 -32.212474 
L 398.702704 -32.233435 
L 398.908624 -32.254828 
L 399.114544 -32.276661 
L 399.320464 -32.29894 
L 399.526384 -32.321674 
L 399.732305 -32.344871 
L 399.938225 -32.368537 
L 400.144145 -32.392682 
L 400.350065 -32.417312 
L 400.555985 -32.442435 
L 400.761905 -32.46806 
L 400.967825 -32.494195 
L 401.173745 -32.520847 
L 401.379665 -32.548026 
L 401.585585 -32.57574 
L 401.791505 -32.603996 
L 401.997425 -32.632805 
L 402.203346 -32.662173 
L 402.409266 -32.692111 
L 402.615186 -32.722626 
L 402.821106 -32.753728 
L 403.027026 -32.785425 
L 403.232946 -32.817727 
L 403.438866 -32.850644 
L 403.644786 -32.884184 
L 403.850706 -32.918355 
L 404.056626 -32.953169 
L 404.262546 -32.988634 
L 404.468466 -33.02476 
L 404.674387 -33.061556 
L 404.880307 -33.099031 
L 405.086227 -33.137197 
L 405.292147 -33.176064 
L 405.498067 -33.215639 
L 405.703987 -33.255934 
L 405.909907 -33.296959 
L 406.115827 -33.338724 
L 406.321747 -33.381239 
L 406.527667 -33.424515 
L 406.733587 -33.468561 
L 406.939507 -33.513388 
L 407.145428 -33.559008 
L 407.351348 -33.605428 
L 407.557268 -33.652662 
L 407.763188 -33.70072 
L 407.969108 -33.749612 
L 408.175034 -33.799351 
L 408.380954 -33.849945 
L 408.586874 -33.901404 
L 408.792794 -33.953743 
L 408.998714 -34.006968 
L 409.204635 -34.061096 
L 409.410555 -34.116133 
L 409.616475 -34.172092 
L 409.822395 -34.228986 
L 410.028315 -34.286823 
L 410.234235 -34.345616 
L 410.440155 -34.405377 
L 410.646075 -34.466117 
L 410.851995 -34.527847 
L 411.057915 -34.590578 
L 411.263835 -34.654321 
L 411.469755 -34.719089 
L 411.675676 -34.784892 
L 411.881596 -34.851744 
L 412.087516 -34.919656 
L 412.293436 -34.988637 
L 412.499356 -35.058699 
L 412.705276 -35.129856 
L 412.911196 -35.202119 
L 413.117116 -35.275498 
L 413.323036 -35.350006 
L 413.528956 -35.425654 
L 413.734876 -35.502453 
L 413.940796 -35.580415 
L 414.146717 -35.659554 
L 414.352637 -35.739879 
L 414.558557 -35.821402 
L 414.764477 -35.904134 
L 414.970397 -35.988089 
L 415.176317 -36.073275 
L 415.382237 -36.159703 
L 415.588157 -36.247391 
L 415.794077 -36.336343 
L 415.999997 -36.426576 
L 416.205917 -36.518095 
L 416.411837 -36.610919 
L 416.617758 -36.705051 
L 416.823678 -36.80051 
L 417.029598 -36.897303 
L 417.235518 -36.99544 
L 417.441438 -37.094934 
L 417.647358 -37.195794 
L 417.853278 -37.298035 
L 418.059204 -37.401664 
L 418.265124 -37.506693 
L 418.471044 -37.613133 
L 418.676964 -37.720993 
L 418.882885 -37.830282 
L 419.088805 -37.941013 
L 419.294725 -38.053195 
L 419.500645 -38.16684 
L 419.706565 -38.281959 
L 419.912485 -38.398556 
L 420.118405 -38.516644 
L 420.324325 -38.636234 
L 420.530245 -38.757336 
L 420.736165 -38.879957 
L 420.942085 -39.004107 
L 421.148005 -39.129794 
L 421.353926 -39.257025 
L 421.559846 -39.385814 
L 421.765766 -39.51617 
L 421.971686 -39.648095 
L 422.177606 -39.781604 
L 422.383526 -39.916699 
L 422.589446 -40.053393 
L 422.795366 -40.19169 
L 423.001286 -40.331598 
L 423.207206 -40.473128 
L 423.413126 -40.616283 
L 423.619046 -40.761073 
L 423.824967 -40.907501 
L 424.030887 -41.055578 
L 424.236807 -41.205306 
L 424.442727 -41.356695 
L 424.648647 -41.509749 
L 424.854567 -41.664471 
L 425.060487 -41.820871 
L 425.266407 -41.97895 
L 425.472327 -42.138717 
L 425.678247 -42.300175 
L 425.884167 -42.463324 
L 426.090087 -42.628179 
L 426.296011 -42.794733 
L 426.501931 -42.962995 
L 426.707851 -43.132965 
L 426.913771 -43.304648 
L 427.119691 -43.478047 
L 427.325611 -43.653163 
L 427.531531 -43.829999 
L 427.737451 -44.008558 
L 427.943371 -44.188838 
L 428.149291 -44.370845 
L 428.355211 -44.554575 
L 428.561132 -44.740031 
L 428.767052 -44.927214 
L 428.972972 -45.116126 
L 429.178892 -45.306762 
L 429.384812 -45.499121 
L 429.590732 -45.693207 
L 429.796652 -45.889009 
L 430.002572 -46.086537 
L 430.208492 -46.285782 
L 430.414412 -46.486741 
L 430.620332 -46.689417 
L 430.826252 -46.893798 
L 431.032173 -47.099889 
L 431.238096 -47.307686 
L 431.444016 -47.517173 
L 431.649936 -47.728355 
L 431.855856 -47.941221 
L 432.061776 -48.155774 
L 432.267696 -48.371998 
L 432.473616 -48.589895 
L 432.679536 -48.809455 
L 432.885456 -49.030667 
L 433.091376 -49.25353 
L 433.297297 -49.478029 
L 433.503217 -49.704164 
L 433.709137 -49.931925 
L 433.915057 -50.161291 
L 434.120977 -50.392264 
L 434.326897 -50.624831 
L 434.532817 -50.858982 
L 434.738737 -51.094699 
L 434.944657 -51.331984 
L 435.150577 -51.570815 
L 435.356497 -51.81118 
L 435.562417 -52.053072 
L 435.768338 -52.29647 
L 435.974258 -52.541366 
L 436.180178 -52.787744 
L 436.386098 -53.035594 
L 436.592018 -53.284892 
L 436.797938 -53.53563 
L 437.003858 -53.787788 
L 437.209778 -54.041349 
L 437.415698 -54.296302 
L 437.621618 -54.552626 
L 437.827541 -54.810303 
L 438.033462 -55.069312 
L 438.239382 -55.329642 
L 438.445302 -55.591262 
L 438.651222 -55.854164 
L 438.857142 -56.118321 
L 439.063062 -56.383718 
L 439.268982 -56.650329 
L 439.474902 -56.918136 
L 439.680822 -57.18711 
L 439.886742 -57.45724 
L 440.092662 -57.728495 
L 440.298582 -58.000853 
L 440.504503 -58.274295 
L 440.710423 -58.548792 
L 440.916343 -58.824318 
L 441.122263 -59.100851 
L 441.328183 -59.378364 
L 441.534103 -59.656838 
L 441.740023 -59.936235 
L 441.945943 -60.216537 
L 442.151863 -60.49771 
L 442.357783 -60.779729 
L 442.563703 -61.062569 
L 442.769626 -61.346204 
L 442.975547 -61.630593 
L 443.181467 -61.915715 
L 443.387387 -62.201538 
L 443.593307 -62.488032 
L 443.799227 -62.77517 
L 444.005147 -63.062917 
L 444.211067 -63.35124 
L 444.416987 -63.640107 
L 444.622907 -63.929489 
L 444.828827 -64.219356 
L 445.034747 -64.509669 
L 445.240667 -64.800392 
L 445.446588 -65.091503 
L 445.652508 -65.382958 
L 445.858428 -65.674722 
L 446.064348 -65.966772 
L 446.270268 -66.259054 
L 446.476188 -66.55155 
L 446.682108 -66.844209 
L 446.888028 -67.137009 
L 447.093948 -67.4299 
L 447.299868 -67.722858 
L 447.50579 -68.015841 
L 447.71171 -68.308803 
L 447.91763 -68.601716 
L 448.12355 -68.894541 
L 448.32947 -69.187231 
L 448.53539 -69.479763 
L 448.74131 -69.772079 
L 448.947231 -70.064156 
L 449.153152 -70.35595 
L 449.359072 -70.647414 
L 449.564992 -70.938518 
L 449.770912 -71.229216 
L 449.976832 -71.519464 
L 450.182753 -71.809229 
L 450.388673 -72.098467 
L 450.594593 -72.387142 
L 450.800514 -72.675209 
L 451.006434 -72.962622 
L 451.212354 -73.249342 
L 451.418275 -73.535331 
L 451.624195 -73.82055 
L 451.830115 -74.104944 
L 452.036035 -74.388487 
L 452.241955 -74.671119 
L 452.447877 -74.952818 
L 452.653795 -75.233522 
L 452.859715 -75.513203 
L 453.065635 -75.791816 
L 453.271555 -76.069311 
L 453.477475 -76.345648 
L 453.683395 -76.620792 
L 453.889316 -76.894691 
L 454.095237 -77.167311 
L 454.301157 -77.438597 
L 454.507077 -77.708522 
L 454.712997 -77.977027 
L 454.918918 -78.244077 
L 455.124838 -78.509632 
L 455.330758 -78.77364 
L 455.536678 -79.036076 
L 455.742599 -79.296885 
L 455.948518 -79.556018 
L 456.154438 -79.813443 
L 456.360358 -80.06912 
L 456.566278 -80.322999 
L 456.772198 -80.575044 
L 456.978118 -80.825209 
L 457.184038 -81.073451 
L 457.38996 -81.319742 
L 457.59588 -81.564022 
L 457.8018 -81.806253 
L 458.00772 -82.046411 
L 458.21364 -82.284437 
L 458.41956 -82.520291 
L 458.625481 -82.753942 
L 458.831401 -82.985349 
L 459.037322 -83.214467 
L 459.243242 -83.441259 
L 459.449162 -83.665682 
L 459.655082 -83.887707 
L 459.861003 -84.107281 
L 460.066923 -84.324376 
L 460.272843 -84.538948 
L 460.478764 -84.750965 
L 460.684684 -84.960391 
L 460.890604 -85.167181 
L 461.096524 -85.371299 
L 461.302444 -85.572713 
L 461.508364 -85.771387 
L 461.714285 -85.967282 
L 461.920205 -86.160364 
L 462.126125 -86.350603 
L 462.332045 -86.537963 
L 462.537965 -86.722402 
L 462.743885 -86.90389 
L 462.949805 -87.082404 
L 463.155725 -87.257899 
L 463.361646 -87.430348 
L 463.567566 -87.599724 
L 463.773486 -87.765991 
L 463.979407 -87.929116 
L 464.185327 -88.08907 
L 464.391247 -88.245828 
L 464.597167 -88.39936 
L 464.803087 -88.54963 
L 465.009008 -88.69662 
L 465.214928 -88.840301 
L 465.420848 -88.98064 
L 465.626768 -89.117617 
L 465.832688 -89.251205 
L 466.038608 -89.381373 
L 466.244528 -89.508107 
L 466.450448 -89.631376 
L 466.656369 -89.751162 
L 466.862289 -89.867433 
L 467.068209 -89.980181 
L 467.274129 -90.089373 
L 467.48005 -90.194996 
L 467.68597 -90.297024 
L 467.891891 -90.395437 
L 468.097811 -90.490228 
L 468.303731 -90.581364 
L 468.509651 -90.668836 
L 468.715572 -90.752623 
L 468.921492 -90.832715 
L 469.127412 -90.909093 
L 469.333332 -90.981745 
L 469.539252 -91.050653 
L 469.745172 -91.115807 
L 469.951092 -91.177189 
L 470.157013 -91.234795 
L 470.362933 -91.288607 
L 470.568853 -91.338625 
L 470.774773 -91.38483 
L 470.980694 -91.427215 
L 471.186614 -91.465769 
L 471.392534 -91.500493 
L 471.598454 -91.531378 
L 471.804374 -91.558415 
L 472.010295 -91.581594 
L 472.216215 -91.600921 
L 472.422135 -91.616386 
L 472.628055 -91.627989 
L 472.833975 -91.635722 
L 473.039896 -91.639592 
L 473.245816 -91.639592 
L 473.451736 -91.635722 
L 473.657656 -91.627989 
L 473.863576 -91.616386 
L 474.0695 -91.600921 
L 474.27542 -91.581594 
L 474.48134 -91.558415 
L 474.68726 -91.531378 
L 474.89318 -91.500493 
L 475.099101 -91.465769 
L 475.305021 -91.427215 
L 475.510941 -91.38483 
L 475.716861 -91.338625 
L 475.922782 -91.288607 
L 476.128702 -91.234795 
L 476.334622 -91.177189 
L 476.540542 -91.115807 
L 476.746462 -91.050653 
L 476.952383 -90.981745 
L 477.158303 -90.909093 
L 477.364223 -90.832715 
L 477.570143 -90.752623 
L 477.776063 -90.668836 
L 477.981983 -90.581364 
L 478.187903 -90.490228 
L 478.393824 -90.395437 
L 478.599744 -90.297024 
L 478.805664 -90.194996 
L 479.011584 -90.089373 
L 479.217505 -89.980181 
L 479.423425 -89.867433 
L 479.629345 -89.751162 
L 479.835265 -89.631376 
L 480.041185 -89.508107 
L 480.247105 -89.381373 
L 480.453026 -89.251205 
L 480.658946 -89.117617 
L 480.864866 -88.98064 
L 481.070786 -88.840301 
L 481.276707 -88.69662 
L 481.482627 -88.54963 
L 481.688547 -88.39936 
L 481.894468 -88.245828 
L 482.100388 -88.08907 
L 482.306308 -87.929116 
L 482.512228 -87.765991 
L 482.718148 -87.599724 
L 482.924068 -87.430348 
L 483.129989 -87.257899 
L 483.335909 -87.082404 
L 483.541829 -86.90389 
L 483.747749 -86.722402 
L 483.953669 -86.537963 
L 484.159589 -86.350603 
L 484.365509 -86.160364 
L 484.571429 -85.967282 
L 484.77735 -85.771387 
L 484.98327 -85.572713 
L 485.18919 -85.371299 
L 485.395111 -85.167181 
L 485.601031 -84.960391 
L 485.806951 -84.750965 
L 486.012872 -84.538948 
L 486.218792 -84.324376 
L 486.424712 -84.107281 
L 486.630632 -83.887707 
L 486.836552 -83.665682 
L 487.042472 -83.441259 
L 487.248392 -83.214467 
L 487.454312 -82.985349 
L 487.660232 -82.753942 
L 487.866152 -82.520291 
L 488.072072 -82.284437 
L 488.277992 -82.046411 
L 488.483913 -81.806262 
L 488.689834 -81.564022 
L 488.895754 -81.319742 
L 489.101674 -81.07346 
L 489.307594 -80.825209 
L 489.513514 -80.575044 
L 489.719435 -80.323003 
L 489.925355 -80.06912 
L 490.131275 -79.813443 
L 490.337196 -79.556018 
L 490.543116 -79.296881 
L 490.749037 -79.036076 
L 490.954957 -78.77364 
L 491.160877 -78.509632 
L 491.366797 -78.244077 
L 491.572717 -77.977027 
L 491.778637 -77.708522 
L 491.984559 -77.438597 
L 492.190477 -77.167311 
L 492.396397 -76.894691 
L 492.602317 -76.620796 
L 492.808237 -76.345653 
L 493.014157 -76.069311 
L 493.220078 -75.791816 
L 493.425998 -75.513203 
L 493.631919 -75.233522 
L 493.631919 -31.32 
L 493.631919 -31.32 
L 493.425998 -31.32 
L 493.220078 -31.32 
L 493.014157 -31.32 
L 492.808237 -31.32 
L 492.602317 -31.32 
L 492.396397 -31.32 
L 492.190477 -31.32 
L 491.984559 -31.32 
L 491.778637 -31.32 
L 491.572717 -31.32 
L 491.366797 -31.32 
L 491.160877 -31.32 
L 490.954957 -31.32 
L 490.749037 -31.32 
L 490.543116 -31.32 
L 490.337196 -31.32 
L 490.131275 -31.32 
L 489.925355 -31.32 
L 489.719435 -31.32 
L 489.513514 -31.32 
L 489.307594 -31.32 
L 489.101674 -31.32 
L 488.895754 -31.32 
L 488.689834 -31.32 
L 488.483913 -31.32 
L 488.277992 -31.32 
L 488.072072 -31.32 
L 487.866152 -31.32 
L 487.660232 -31.32 
L 487.454312 -31.32 
L 487.248392 -31.32 
L 487.042472 -31.32 
L 486.836552 -31.32 
L 486.630632 -31.32 
L 486.424712 -31.32 
L 486.218792 -31.32 
L 486.012872 -31.32 
L 485.806951 -31.32 
L 485.601031 -31.32 
L 485.395111 -31.32 
L 485.18919 -31.32 
L 484.98327 -31.32 
L 484.77735 -31.32 
L 484.571429 -31.32 
L 484.365509 -31.32 
L 484.159589 -31.32 
L 483.953669 -31.32 
L 483.747749 -31.32 
L 483.541829 -31.32 
L 483.335909 -31.32 
L 483.129989 -31.32 
L 482.924068 -31.32 
L 482.718148 -31.32 
L 482.512228 -31.32 
L 482.306308 -31.32 
L 482.100388 -31.32 
L 481.894468 -31.32 
L 481.688547 -31.32 
L 481.482627 -31.32 
L 481.276707 -31.32 
L 481.070786 -31.32 
L 480.864866 -31.32 
L 480.658946 -31.32 
L 480.453026 -31.32 
L 480.247105 -31.32 
L 480.041185 -31.32 
L 479.835265 -31.32 
L 479.629345 -31.32 
L 479.423425 -31.32 
L 479.217505 -31.32 
L 479.011584 -31.32 
L 478.805664 -31.32 
L 478.599744 -31.32 
L 478.393824 -31.32 
L 478.187903 -31.32 
L 477.981983 -31.32 
L 477.776063 -31.32 
L 477.570143 -31.32 
L 477.364223 -31.32 
L 477.158303 -31.32 
L 476.952383 -31.32 
L 476.746462 -31.32 
L 476.540542 -31.32 
L 476.334622 -31.32 
L 476.128702 -31.32 
L 475.922782 -31.32 
L 475.716861 -31.32 
L 475.510941 -31.32 
L 475.305021 -31.32 
L 475.099101 -31.32 
L 474.89318 -31.32 
L 474.68726 -31.32 
L 474.48134 -31.32 
L 474.27542 -31.32 
L 474.0695 -31.32 
L 473.863576 -31.32 
L 473.657656 -31.32 
L 473.451736 -31.32 
L 473.245816 -31.32 
L 473.039896 -31.32 
L 472.833975 -31.32 
L 472.628055 -31.32 
L 472.422135 -31.32 
L 472.216215 -31.32 
L 472.010295 -31.32 
L 471.804374 -31.32 
L 471.598454 -31.32 
L 471.392534 -31.32 
L 471.186614 -31.32 
L 470.980694 -31.32 
L 470.774773 -31.32 
L 470.568853 -31.32 
L 470.362933 -31.32 
L 470.157013 -31.32 
L 469.951092 -31.32 
L 469.745172 -31.32 
L 469.539252 -31.32 
L 469.333332 -31.32 
L 469.127412 -31.32 
L 468.921492 -31.32 
L 468.715572 -31.32 
L 468.509651 -31.32 
L 468.303731 -31.32 
L 468.097811 -31.32 
L 467.891891 -31.32 
L 467.68597 -31.32 
L 467.48005 -31.32 
L 467.274129 -31.32 
L 467.068209 -31.32 
L 466.862289 -31.32 
L 466.656369 -31.32 
L 466.450448 -31.32 
L 466.244528 -31.32 
L 466.038608 -31.32 
L 465.832688 -31.32 
L 465.626768 -31.32 
L 465.420848 -31.32 
L 465.214928 -31.32 
L 465.009008 -31.32 
L 464.803087 -31.32 
L 464.597167 -31.32 
L 464.391247 -31.32 
L 464.185327 -31.32 
L 463.979407 -31.32 
L 463.773486 -31.32 
L 463.567566 -31.32 
L 463.361646 -31.32 
L 463.155725 -31.32 
L 462.949805 -31.32 
L 462.743885 -31.32 
L 462.537965 -31.32 
L 462.332045 -31.32 
L 462.126125 -31.32 
L 461.920205 -31.32 
L 461.714285 -31.32 
L 461.508364 -31.32 
L 461.302444 -31.32 
L 461.096524 -31.32 
L 460.890604 -31.32 
L 460.684684 -31.32 
L 460.478764 -31.32 
L 460.272843 -31.32 
L 460.066923 -31.32 
L 459.861003 -31.32 
L 459.655082 -31.32 
L 459.449162 -31.32 
L 459.243242 -31.32 
L 459.037322 -31.32 
L 458.831401 -31.32 
L 458.625481 -31.32 
L 458.41956 -31.32 
L 458.21364 -31.32 
L 458.00772 -31.32 
L 457.8018 -31.32 
L 457.59588 -31.32 
L 457.38996 -31.32 
L 457.184038 -31.32 
L 456.978118 -31.32 
L 456.772198 -31.32 
L 456.566278 -31.32 
L 456.360358 -31.32 
L 456.154438 -31.32 
L 455.948518 -31.32 
L 455.742599 -31.32 
L 455.536678 -31.32 
L 455.330758 -31.32 
L 455.124838 -31.32 
L 454.918918 -31.32 
L 454.712997 -31.32 
L 454.507077 -31.32 
L 454.301157 -31.32 
L 454.095237 -31.32 
L 453.889316 -31.32 
L 453.683395 -31.32 
L 453.477475 -31.32 
L 453.271555 -31.32 
L 453.065635 -31.32 
L 452.859715 -31.32 
L 452.653795 -31.32 
L 452.447877 -31.32 
L 452.241955 -31.32 
L 452.036035 -31.32 
L 451.830115 -31.32 
L 451.624195 -31.32 
L 451.418275 -31.32 
L 451.212354 -31.32 
L 451.006434 -31.32 
L 450.800514 -31.32 
L 450.594593 -31.32 
L 450.388673 -31.32 
L 450.182753 -31.32 
L 449.976832 -31.32 
L 449.770912 -31.32 
L 449.564992 -31.32 
L 449.359072 -31.32 
L 449.153152 -31.32 
L 448.947231 -31.32 
L 448.74131 -31.32 
L 448.53539 -31.32 
L 448.32947 -31.32 
L 448.12355 -31.32 
L 447.91763 -31.32 
L 447.71171 -31.32 
L 447.50579 -31.32 
L 447.299868 -31.32 
L 447.093948 -31.32 
L 446.888028 -31.32 
L 446.682108 -31.32 
L 446.476188 -31.32 
L 446.270268 -31.32 
L 446.064348 -31.32 
L 445.858428 -31.32 
L 445.652508 -31.32 
L 445.446588 -31.32 
L 445.240667 -31.32 
L 445.034747 -31.32 
L 444.828827 -31.32 
L 444.622907 -31.32 
L 444.416987 -31.32 
L 444.211067 -31.32 
L 444.005147 -31.32 
L 443.799227 -31.32 
L 443.593307 -31.32 
L 443.387387 -31.32 
L 443.181467 -31.32 
L 442.975547 -31.32 
L 442.769626 -31.32 
L 442.563703 -31.32 
L 442.357783 -31.32 
L 442.151863 -31.32 
L 441.945943 -31.32 
L 441.740023 -31.32 
L 441.534103 -31.32 
L 441.328183 -31.32 
L 441.122263 -31.32 
L 440.916343 -31.32 
L 440.710423 -31.32 
L 440.504503 -31.32 
L 440.298582 -31.32 
L 440.092662 -31.32 
L 439.886742 -31.32 
L 439.680822 -31.32 
L 439.474902 -31.32 
L 439.268982 -31.32 
L 439.063062 -31.32 
L 438.857142 -31.32 
L 438.651222 -31.32 
L 438.445302 -31.32 
L 438.239382 -31.32 
L 438.033462 -31.32 
L 437.827541 -31.32 
L 437.621618 -31.32 
L 437.415698 -31.32 
L 437.209778 -31.32 
L 437.003858 -31.32 
L 436.797938 -31.32 
L 436.592018 -31.32 
L 436.386098 -31.32 
L 436.180178 -31.32 
L 435.974258 -31.32 
L 435.768338 -31.32 
L 435.562417 -31.32 
L 435.356497 -31.32 
L 435.150577 -31.32 
L 434.944657 -31.32 
L 434.738737 -31.32 
L 434.532817 -31.32 
L 434.326897 -31.32 
L 434.120977 -31.32 
L 433.915057 -31.32 
L 433.709137 -31.32 
L 433.503217 -31.32 
L 433.297297 -31.32 
L 433.091376 -31.32 
L 432.885456 -31.32 
L 432.679536 -31.32 
L 432.473616 -31.32 
L 432.267696 -31.32 
L 432.061776 -31.32 
L 431.855856 -31.32 
L 431.649936 -31.32 
L 431.444016 -31.32 
L 431.238096 -31.32 
L 431.032173 -31.32 
L 430.826252 -31.32 
L 430.620332 -31.32 
L 430.414412 -31.32 
L 430.208492 -31.32 
L 430.002572 -31.32 
L 429.796652 -31.32 
L 429.590732 -31.32 
L 429.384812 -31.32 
L 429.178892 -31.32 
L 428.972972 -31.32 
L 428.767052 -31.32 
L 428.561132 -31.32 
L 428.355211 -31.32 
L 428.149291 -31.32 
L 427.943371 -31.32 
L 427.737451 -31.32 
L 427.531531 -31.32 
L 427.325611 -31.32 
L 427.119691 -31.32 
L 426.913771 -31.32 
L 426.707851 -31.32 
L 426.501931 -31.32 
L 426.296011 -31.32 
L 426.090087 -31.32 
L 425.884167 -31.32 
L 425.678247 -31.32 
L 425.472327 -31.32 
L 425.266407 -31.32 
L 425.060487 -31.32 
L 424.854567 -31.32 
L 424.648647 -31.32 
L 424.442727 -31.32 
L 424.236807 -31.32 
L 424.030887 -31.32 
L 423.824967 -31.32 
L 423.619046 -31.32 
L 423.413126 -31.32 
L 423.207206 -31.32 
L 423.001286 -31.32 
L 422.795366 -31.32 
L 422.589446 -31.32 
L 422.383526 -31.32 
L 422.177606 -31.32 
L 421.971686 -31.32 
L 421.765766 -31.32 
L 421.559846 -31.32 
L 421.353926 -31.32 
L 421.148005 -31.32 
L 420.942085 -31.32 
L 420.736165 -31.32 
L 420.530245 -31.32 
L 420.324325 -31.32 
L 420.118405 -31.32 
L 419.912485 -31.32 
L 419.706565 -31.32 
L 419.500645 -31.32 
L 419.294725 -31.32 
L 419.088805 -31.32 
L 418.882885 -31.32 
L 418.676964 -31.32 
L 418.471044 -31.32 
L 418.265124 -31.32 
L 418.059204 -31.32 
L 417.853278 -31.32 
L 417.647358 -31.32 
L 417.441438 -31.32 
L 417.235518 -31.32 
L 417.029598 -31.32 
L 416.823678 -31.32 
L 416.617758 -31.32 
L 416.411837 -31.32 
L 416.205917 -31.32 
L 415.999997 -31.32 
L 415.794077 -31.32 
L 415.588157 -31.32 
L 415.382237 -31.32 
L 415.176317 -31.32 
L 414.970397 -31.32 
L 414.764477 -31.32 
L 414.558557 -31.32 
L 414.352637 -31.32 
L 414.146717 -31.32 
L 413.940796 -31.32 
L 413.734876 -31.32 
L 413.528956 -31.32 
L 413.323036 -31.32 
L 413.117116 -31.32 
L 412.911196 -31.32 
L 412.705276 -31.32 
L 412.499356 -31.32 
L 412.293436 -31.32 
L 412.087516 -31.32 
L 411.881596 -31.32 
L 411.675676 -31.32 
L 411.469755 -31.32 
L 411.263835 -31.32 
L 411.057915 -31.32 
L 410.851995 -31.32 
L 410.646075 -31.32 
L 410.440155 -31.32 
L 410.234235 -31.32 
L 410.028315 -31.32 
L 409.822395 -31.32 
L 409.616475 -31.32 
L 409.410555 -31.32 
L 409.204635 -31.32 
L 408.998714 -31.32 
L 408.792794 -31.32 
L 408.586874 -31.32 
L 408.380954 -31.32 
L 408.175034 -31.32 
L 407.969108 -31.32 
L 407.763188 -31.32 
L 407.557268 -31.32 
L 407.351348 -31.32 
L 407.145428 -31.32 
L 406.939507 -31.32 
L 406.733587 -31.32 
L 406.527667 -31.32 
L 406.321747 -31.32 
L 406.115827 -31.32 
L 405.909907 -31.32 
L 405.703987 -31.32 
L 405.498067 -31.32 
L 405.292147 -31.32 
L 405.086227 -31.32 
L 404.880307 -31.32 
L 404.674387 -31.32 
L 404.468466 -31.32 
L 404.262546 -31.32 
L 404.056626 -31.32 
L 403.850706 -31.32 
L 403.644786 -31.32 
L 403.438866 -31.32 
L 403.232946 -31.32 
L 403.027026 -31.32 
L 402.821106 -31.32 
L 402.615186 -31.32 
L 402.409266 -31.32 
L 402.203346 -31.32 
L 401.997425 -31.32 
L 401.791505 -31.32 
L 401.585585 -31.32 
L 401.379665 -31.32 
L 401.173745 -31.32 
L 400.967825 -31.32 
L 400.761905 -31.32 
L 400.555985 -31.32 
L 400.350065 -31.32 
L 400.144145 -31.32 
L 399.938225 -31.32 
L 399.732305 -31.32 
L 399.526384 -31.32 
L 399.320464 -31.32 
L 399.114544 -31.32 
L 398.908624 -31.32 
L 398.702704 -31.32 
L 398.496784 -31.32 
L 398.290864 -31.32 
L 398.084938 -31.32 
L 397.879018 -31.32 
L 397.673098 -31.32 
L 397.467178 -31.32 
L 397.261257 -31.32 
L 397.055337 -31.32 
L 396.849417 -31.32 
L 396.643497 -31.32 
L 396.437577 -31.32 
L 396.231657 -31.32 
L 396.025737 -31.32 
L 395.819817 -31.32 
L 395.613897 -31.32 
L 395.407977 -31.32 
L 395.202057 -31.32 
L 394.996137 -31.32 
L 394.790216 -31.32 
L 394.584296 -31.32 
L 394.378376 -31.32 
L 394.172456 -31.32 
L 393.966536 -31.32 
L 393.760616 -31.32 
L 393.554696 -31.32 
L 393.348776 -31.32 
L 393.142856 -31.32 
L 392.936936 -31.32 
L 392.731016 -31.32 
L 392.525096 -31.32 
L 392.319175 -31.32 
L 392.113255 -31.32 
L 391.907335 -31.32 
L 391.701415 -31.32 
L 391.495495 -31.32 
L 391.289575 -31.32 
L 391.083655 -31.32 
L 390.877735 -31.32 
L 390.671815 -31.32 
L 390.465895 -31.32 
L 390.259975 -31.32 
L 390.054055 -31.32 
L 389.848134 -31.32 
L 389.642214 -31.32 
L 389.436294 -31.32 
L 389.230374 -31.32 
L 389.024454 -31.32 
L 388.818534 -31.32 
L 388.612614 -31.32 
L 388.406694 -31.32 
L 388.200774 -31.32 
L 387.994854 -31.32 
L 387.788934 -31.32 
L 387.583014 -31.32 
L 387.377093 -31.32 
L 387.171173 -31.32 
L 386.965253 -31.32 
L 386.759333 -31.32 
L 386.553407 -31.32 
L 386.347487 -31.32 
L 386.141567 -31.32 
L 385.935647 -31.32 
L 385.729727 -31.32 
L 385.523807 -31.32 
L 385.317886 -31.32 
L 385.111966 -31.32 
L 384.906046 -31.32 
L 384.700126 -31.32 
L 384.494206 -31.32 
L 384.288286 -31.32 
L 384.082366 -31.32 
L 383.876446 -31.32 
L 383.670526 -31.32 
L 383.464606 -31.32 
L 383.258686 -31.32 
L 383.052766 -31.32 
L 382.846845 -31.32 
L 382.640925 -31.32 
L 382.435005 -31.32 
L 382.229085 -31.32 
L 382.023165 -31.32 
L 381.817245 -31.32 
L 381.611325 -31.32 
L 381.405405 -31.32 
L 381.199485 -31.32 
L 380.993565 -31.32 
L 380.787645 -31.32 
L 380.581725 -31.32 
L 380.375804 -31.32 
L 380.169884 -31.32 
L 379.963964 -31.32 
L 379.758044 -31.32 
L 379.552124 -31.32 
L 379.346204 -31.32 
L 379.140284 -31.32 
L 378.934364 -31.32 
L 378.728444 -31.32 
L 378.522524 -31.32 
L 378.316604 -31.32 
L 378.110684 -31.32 
L 377.904763 -31.32 
L 377.698843 -31.32 
L 377.492923 -31.32 
L 377.287003 -31.32 
L 377.081083 -31.32 
L 376.875163 -31.32 
L 376.669237 -31.32 
L 376.463317 -31.32 
L 376.257397 -31.32 
L 376.051477 -31.32 
L 375.845557 -31.32 
L 375.639636 -31.32 
L 375.433716 -31.32 
L 375.227796 -31.32 
L 375.021876 -31.32 
L 374.815956 -31.32 
L 374.610036 -31.32 
L 374.404116 -31.32 
L 374.198196 -31.32 
L 373.992276 -31.32 
L 373.786356 -31.32 
L 373.580436 -31.32 
L 373.374516 -31.32 
L 373.168595 -31.32 
L 372.962675 -31.32 
L 372.756755 -31.32 
L 372.550835 -31.32 
L 372.344915 -31.32 
L 372.138995 -31.32 
L 371.933075 -31.32 
L 371.727155 -31.32 
L 371.521235 -31.32 
L 371.315315 -31.32 
L 371.109395 -31.32 
L 370.903475 -31.32 
L 370.697554 -31.32 
L 370.491634 -31.32 
L 370.285714 -31.32 
z
" style="stroke: #ffffff; stroke-opacity: 0.5"/>
    </defs>
    <g clip-path="url(#p9da753c724)">
     <use xlink:href="#m283fe36b2f" x="0" y="216" style="fill: #4c72b0; fill-opacity: 0.5; stroke: #ffffff; stroke-opacity: 0.5"/>
    </g>
   </g>
   <g id="patch_8">
    <path d="M 494.784546 65.717051 
Q 494.784546 124.198333 494.784546 181.561582 
" clip-path="url(#p9da753c724)" style="fill: none; stroke: #ff0000; stroke-linecap: round"/>
    <path d="M 498.784546 173.561582 
L 494.784546 181.561582 
L 490.784546 173.561582 
L 498.784546 173.561582 
z
" clip-path="url(#p9da753c724)" style="fill: #ff0000; stroke: #ff0000; stroke-linecap: round"/>
   </g>
   <g id="line2d_3">
    <path d="M 370.285714 184.659765 
L 385.317886 184.503223 
L 392.936936 184.214567 
L 398.496784 183.787526 
L 402.821106 183.246272 
L 406.527667 182.575485 
L 410.028315 181.713177 
L 413.117116 180.724502 
L 415.999997 179.573424 
L 418.676964 178.279007 
L 421.353926 176.742975 
L 424.030887 174.944422 
L 426.707851 172.867035 
L 429.384812 170.500879 
L 432.061776 167.844226 
L 434.944657 164.668016 
L 438.033462 160.930688 
L 441.534103 156.343162 
L 446.270268 149.740946 
L 453.889316 139.105309 
L 457.184038 134.926549 
L 459.861003 131.892719 
L 462.126125 129.649397 
L 464.185327 127.91093 
L 466.038608 126.618627 
L 467.891891 125.604563 
L 469.539252 124.949347 
L 471.186614 124.534231 
L 472.833975 124.364278 
L 474.48134 124.441585 
L 476.128702 124.765205 
L 477.776063 125.331164 
L 479.423425 126.132567 
L 481.276707 127.30338 
L 483.129989 128.742101 
L 485.18919 130.628701 
L 487.454312 133.014651 
L 490.131275 136.186557 
L 493.220078 140.208184 
L 497.750322 146.520237 
L 505.575292 157.451208 
L 509.281853 162.212208 
L 512.370658 165.838709 
L 515.253539 168.900108 
L 518.136423 171.629155 
L 520.813384 173.86128 
L 523.490348 175.80831 
L 526.167309 177.483356 
L 528.84427 178.905063 
L 531.727158 180.178598 
L 534.610039 181.215108 
L 537.69884 182.098596 
L 541.199488 182.862803 
L 545.111969 183.479153 
L 549.642211 183.957886 
L 555.202059 184.309235 
L 562.615188 184.538255 
L 574.558559 184.654718 
L 576 184.659765 
L 576 184.659765 
" clip-path="url(#p9da753c724)" style="fill: none; stroke: #4c72b0; stroke-width: 1.5; stroke-linecap: round"/>
   </g>
   <g id="line2d_4">
    <path d="M 370.285714 184.67521 
L 392.731016 184.546547 
L 401.379665 184.282498 
L 407.351348 183.885392 
L 412.087516 183.351049 
L 415.999997 182.694116 
L 419.500645 181.885003 
L 422.589446 180.95273 
L 425.472327 179.859741 
L 428.149291 178.61979 
L 430.826252 177.132345 
L 433.297297 175.513525 
L 435.768338 173.635003 
L 438.239382 171.475125 
L 440.710423 169.014572 
L 443.181467 166.237222 
L 445.652508 163.131087 
L 448.32947 159.38709 
L 451.006434 155.247812 
L 453.889316 150.356951 
L 456.978118 144.642833 
L 460.272843 138.055768 
L 463.979407 130.129027 
L 468.509651 119.889962 
L 484.159589 84.006447 
L 487.866152 76.340219 
L 491.160877 70.031825 
L 494.249679 64.608171 
L 497.132562 60.00461 
L 499.809526 56.138728 
L 502.486487 52.668121 
L 504.957528 49.809525 
L 507.428572 47.271133 
L 509.899613 45.037797 
L 512.370658 43.090886 
L 514.841699 41.40926 
L 517.518663 39.860401 
L 520.195624 38.566021 
L 523.078508 37.42209 
L 526.167309 36.44366 
L 529.462031 35.63539 
L 533.168598 34.960113 
L 537.49292 34.412296 
L 542.640928 33.999969 
L 549.230371 33.713362 
L 558.702701 33.546294 
L 576 33.484795 
L 576 33.484795 
" clip-path="url(#p9da753c724)" style="fill: none; stroke: #dd8452; stroke-width: 1.5; stroke-linecap: round"/>
   </g>
   <g id="patch_9">
    <path d="M 370.285714 192.24 
L 370.285714 25.92 
" style="fill: none; stroke: #cccccc; stroke-width: 1.25; stroke-linejoin: miter; stroke-linecap: square"/>
   </g>
   <g id="patch_10">
    <path d="M 576 192.24 
L 576 25.92 
" style="fill: none; stroke: #cccccc; stroke-width: 1.25; stroke-linejoin: miter; stroke-linecap: square"/>
   </g>
   <g id="patch_11">
    <path d="M 370.285714 192.24 
L 576 192.24 
" style="fill: none; stroke: #cccccc; stroke-width: 1.25; stroke-linejoin: miter; stroke-linecap: square"/>
   </g>
   <g id="patch_12">
    <path d="M 370.285714 25.92 
L 576 25.92 
" style="fill: none; stroke: #cccccc; stroke-width: 1.25; stroke-linejoin: miter; stroke-linecap: square"/>
   </g>
   <g id="text_12">
    <!-- $\mathrm{cdf}^{-1}(u)$ -->
    <g style="fill: #262626" transform="translate(502.498831 109.08)scale(0.18 -0.18)">
     <defs>
      <path id="CMR17-63" d="M 2234 2240 
C 2112 2240 1933 2240 1933 2015 
C 1933 1836 2080 1785 2163 1785 
C 2208 1785 2394 1804 2394 2028 
C 2394 2476 1958 2816 1466 2816 
C 787 2816 211 2201 211 1379 
C 211 521 813 -64 1466 -64 
C 2259 -64 2458 676 2458 747 
C 2458 773 2451 792 2406 792 
C 2362 792 2355 786 2330 702 
C 2163 180 1798 51 1523 51 
C 1114 51 621 431 621 1385 
C 621 2358 1094 2700 1472 2700 
C 1722 2700 2093 2582 2234 2240 
z
" transform="scale(0.015625)"/>
      <path id="CMR17-64" d="M 1869 4345 
L 1869 4179 
C 2246 4179 2304 4141 2304 3843 
L 2304 2371 
C 2278 2403 2016 2816 1498 2816 
C 845 2816 211 2228 211 1376 
C 211 529 806 -64 1434 -64 
C 1978 -64 2259 361 2291 406 
L 2291 -64 
L 3066 -13 
L 3066 154 
C 2688 154 2630 193 2630 503 
L 2630 4416 
L 1869 4345 
z
M 2291 762 
C 2291 568 2176 393 2029 264 
C 1811 70 1594 38 1472 38 
C 1286 38 621 135 621 1369 
C 621 2636 1363 2713 1530 2713 
C 1824 2713 2061 2545 2208 2313 
C 2291 2177 2291 2157 2291 2041 
L 2291 762 
z
" transform="scale(0.015625)"/>
      <path id="CMR17-66" d="M 979 2585 
L 1709 2585 
L 1709 2752 
L 966 2752 
L 966 3539 
C 966 4076 1235 4377 1510 4377 
C 1594 4377 1690 4363 1754 4339 
C 1702 4326 1568 4281 1568 4121 
C 1568 3955 1696 3904 1786 3904 
C 1875 3904 2003 3955 2003 4121 
C 2003 4353 1773 4480 1517 4480 
C 1152 4480 653 4211 653 3526 
L 653 2752 
L 141 2752 
L 141 2585 
L 653 2585 
L 653 441 
C 653 198 627 166 218 166 
L 218 0 
C 371 12 666 12 832 12 
C 1018 12 1344 12 1517 0 
L 1517 166 
C 1056 166 979 166 979 454 
L 979 2585 
z
" transform="scale(0.015625)"/>
      <path id="CMR17-28" d="M 1958 -1562 
C 1958 -1556 1958 -1543 1939 -1524 
C 1645 -1223 858 -403 858 1596 
C 858 3595 1632 4408 1946 4729 
C 1946 4735 1958 4748 1958 4767 
C 1958 4787 1939 4800 1914 4800 
C 1843 4800 1299 4325 986 3620 
C 666 2909 576 2218 576 1603 
C 576 1141 621 360 1005 -467 
C 1312 -1133 1837 -1600 1914 -1600 
C 1946 -1600 1958 -1588 1958 -1562 
z
" transform="scale(0.015625)"/>
      <path id="CMR17-29" d="M 1683 1596 
C 1683 2057 1638 2839 1254 3665 
C 947 4332 422 4800 346 4800 
C 326 4800 301 4793 301 4761 
C 301 4748 307 4742 314 4729 
C 621 4408 1402 3595 1402 1603 
C 1402 -396 627 -1210 314 -1530 
C 307 -1543 301 -1549 301 -1562 
C 301 -1594 326 -1600 346 -1600 
C 416 -1600 960 -1127 1274 -422 
C 1594 289 1683 981 1683 1596 
z
" transform="scale(0.015625)"/>
     </defs>
     <use xlink:href="#CMR17-63" transform="scale(0.996264)"/>
     <use xlink:href="#CMR17-64" transform="translate(40.48566 0)scale(0.996264)"/>
     <use xlink:href="#CMR17-66" transform="translate(91.38103 0)scale(0.996264)"/>
     <use xlink:href="#CMSY10-0" transform="translate(124.760055 42.258523)scale(0.697382)"/>
     <use xlink:href="#CMR17-31" transform="translate(179.001048 42.258523)scale(0.697382)"/>
     <use xlink:href="#CMR17-28" transform="translate(211.482362 0)scale(0.996264)"/>
     <use xlink:href="#CMMI12-75" transform="translate(246.76313 0)scale(0.996264)"/>
     <use xlink:href="#CMR17-29" transform="translate(302.28346 0)scale(0.996264)"/>
    </g>
   </g>
   <g id="text_13">
    <!-- $x$ -->
    <g style="fill: #ff0000" transform="translate(487.062199 211.14)scale(0.24 -0.24)">
     <defs>
      <path id="CMMI12-78" d="M 3034 2624 
C 2829 2585 2752 2431 2752 2310 
C 2752 2156 2874 2105 2963 2105 
C 3155 2105 3290 2271 3290 2444 
C 3290 2694 2982 2816 2714 2816 
C 2323 2816 2106 2451 2048 2329 
C 1901 2790 1504 2816 1389 2816 
C 736 2816 390 1993 390 1849 
C 390 1823 416 1790 461 1790 
C 512 1790 525 1829 538 1855 
C 755 2572 1184 2687 1370 2687 
C 1658 2687 1715 2438 1715 2284 
C 1715 2143 1677 1993 1600 1678 
L 1382 778 
C 1286 390 1101 64 762 64 
C 730 64 570 64 435 126 
C 666 166 717 358 717 435 
C 717 563 621 640 499 640 
C 346 640 179 505 179 300 
C 179 57 480 -64 755 -64 
C 1062 -64 1280 153 1414 415 
C 1517 64 1837 -64 2074 -64 
C 2726 -64 3072 751 3072 896 
C 3072 929 3046 955 3008 955 
C 2950 955 2944 922 2925 870 
C 2752 300 2381 64 2093 64 
C 1869 64 1747 204 1747 467 
C 1747 607 1773 712 1875 1146 
L 2099 2039 
C 2195 2425 2413 2687 2707 2687 
C 2720 2687 2899 2687 3034 2624 
z
" transform="scale(0.015625)"/>
     </defs>
     <use xlink:href="#CMMI12-78" transform="scale(0.996264)"/>
    </g>
   </g>
   <g id="patch_13">
    <path d="M 494.784546 63.72 
Q 392.861661 63.72 290.938776 63.72 
" style="fill: none; stroke-dasharray: 3.7,1.6; stroke-dashoffset: 0; stroke: #999999; stroke-linecap: round"/>
   </g>
  </g>
 </g>
 <defs>
  <clipPath id="pca0465d48e">
   <rect x="144" y="25.92" width="205.714286" height="166.32"/>
  </clipPath>
  <clipPath id="p9da753c724">
   <rect x="370.285714" y="25.92" width="205.714286" height="166.32"/>
  </clipPath>
 </defs>
</svg>
