<?xml version="1.0" encoding="utf-8" standalone="no"?>
<!DOCTYPE svg PUBLIC "-//W3C//DTD SVG 1.1//EN"
  "http://www.w3.org/Graphics/SVG/1.1/DTD/svg11.dtd">
<svg height="216pt" version="1.1" viewBox="0 0 288 216" width="288pt" xmlns="http://www.w3.org/2000/svg" xmlns:xlink="http://www.w3.org/1999/xlink">
 <metadata>
  <rdf:RDF xmlns:cc="http://creativecommons.org/ns#" xmlns:dc="http://purl.org/dc/elements/1.1/" xmlns:rdf="http://www.w3.org/1999/02/22-rdf-syntax-ns#">
   <cc:Work>
    <dc:type rdf:resource="http://purl.org/dc/dcmitype/StillImage"/>
    <dc:date>2021-12-08T15:49:46.229823</dc:date>
    <dc:format>image/svg+xml</dc:format>
    <dc:creator>
     <cc:Agent>
      <dc:title>Matplotlib v3.4.3, https://matplotlib.org/</dc:title>
     </cc:Agent>
    </dc:creator>
   </cc:Work>
  </rdf:RDF>
 </metadata>
 <defs>
  <style type="text/css">*{stroke-linecap:butt;stroke-linejoin:round;}</style>
 </defs>
 <g id="figure_1">
  <g id="patch_1">
   <path d="M 0 216 
L 288 216 
L 288 0 
L 0 0 
z
" style="fill:#ffffff;"/>
  </g>
  <g id="axes_1">
   <g id="patch_2">
    <path d="M 36 189 
L 259.2 189 
L 259.2 25.92 
L 36 25.92 
z
" style="fill:#ffffff;"/>
   </g>
   <g id="matplotlib.axis_1">
    <g id="xtick_1">
     <g id="text_1">
      <!-- $\mathdefault{0}$ -->
      <g style="fill:#262626;" transform="translate(33.260266 206.110347)scale(0.11 -0.11)">
       <defs>
        <path d="M 2688 2038 
C 2688 2430 2682 3099 2413 3613 
C 2176 4063 1798 4224 1466 4224 
C 1158 4224 768 4082 525 3620 
C 269 3137 243 2539 243 2038 
C 243 1671 250 1112 448 623 
C 723 -39 1216 -128 1466 -128 
C 1760 -128 2208 -7 2470 604 
C 2662 1048 2688 1568 2688 2038 
z
M 1466 -26 
C 1056 -26 813 328 723 816 
C 653 1196 653 1749 653 2109 
C 653 2604 653 3015 736 3407 
C 858 3954 1216 4121 1466 4121 
C 1728 4121 2067 3947 2189 3420 
C 2272 3054 2278 2623 2278 2109 
C 2278 1691 2278 1176 2202 797 
C 2067 96 1690 -26 1466 -26 
z
" id="CMR17-30" transform="scale(0.015625)"/>
       </defs>
       <use transform="scale(0.996264)" xlink:href="#CMR17-30"/>
      </g>
     </g>
    </g>
    <g id="xtick_2">
     <g id="text_2">
      <!-- $\mathdefault{1}$ -->
      <g style="fill:#262626;" transform="translate(89.060266 206.110347)scale(0.11 -0.11)">
       <defs>
        <path d="M 1702 4083 
C 1702 4217 1696 4224 1606 4224 
C 1357 3927 979 3833 621 3820 
C 602 3820 570 3820 563 3808 
C 557 3795 557 3782 557 3648 
C 755 3648 1088 3686 1344 3839 
L 1344 467 
C 1344 243 1331 166 781 166 
L 589 166 
L 589 0 
C 896 6 1216 12 1523 12 
C 1830 12 2150 6 2458 0 
L 2458 166 
L 2266 166 
C 1715 166 1702 236 1702 467 
L 1702 4083 
z
" id="CMR17-31" transform="scale(0.015625)"/>
       </defs>
       <use transform="scale(0.996264)" xlink:href="#CMR17-31"/>
      </g>
     </g>
    </g>
    <g id="xtick_3">
     <g id="text_3">
      <!-- $\mathdefault{2}$ -->
      <g style="fill:#262626;" transform="translate(144.860266 206.110347)scale(0.11 -0.11)">
       <defs>
        <path d="M 2669 990 
L 2554 990 
C 2490 537 2438 460 2413 422 
C 2381 371 1920 371 1830 371 
L 602 371 
C 832 620 1280 1073 1824 1596 
C 2214 1966 2669 2400 2669 3033 
C 2669 3788 2067 4224 1395 4224 
C 691 4224 262 3603 262 3027 
C 262 2777 448 2745 525 2745 
C 589 2745 781 2783 781 3007 
C 781 3206 614 3264 525 3264 
C 486 3264 448 3257 422 3244 
C 544 3788 915 4057 1306 4057 
C 1862 4057 2227 3616 2227 3033 
C 2227 2477 1901 1998 1536 1583 
L 262 147 
L 262 0 
L 2515 0 
L 2669 990 
z
" id="CMR17-32" transform="scale(0.015625)"/>
       </defs>
       <use transform="scale(0.996264)" xlink:href="#CMR17-32"/>
      </g>
     </g>
    </g>
    <g id="xtick_4">
     <g id="text_4">
      <!-- $\mathdefault{3}$ -->
      <g style="fill:#262626;" transform="translate(200.660266 206.110347)scale(0.11 -0.11)">
       <defs>
        <path d="M 1414 2176 
C 1984 2176 2234 1673 2234 1094 
C 2234 322 1824 25 1453 25 
C 1114 25 563 193 390 691 
C 422 678 454 678 486 678 
C 640 678 755 780 755 947 
C 755 1132 614 1216 486 1216 
C 378 1216 211 1164 211 927 
C 211 335 787 -128 1466 -128 
C 2176 -128 2720 432 2720 1087 
C 2720 1718 2208 2176 1600 2246 
C 2086 2347 2554 2776 2554 3353 
C 2554 3856 2048 4224 1472 4224 
C 890 4224 378 3862 378 3347 
C 378 3123 544 3084 627 3084 
C 762 3084 877 3167 877 3334 
C 877 3500 762 3584 627 3584 
C 602 3584 570 3584 544 3571 
C 730 3999 1235 4076 1459 4076 
C 1683 4076 2106 3966 2106 3347 
C 2106 3167 2080 2851 1862 2574 
C 1670 2329 1453 2316 1242 2297 
C 1210 2297 1062 2284 1037 2284 
C 992 2278 966 2272 966 2227 
C 966 2182 973 2176 1101 2176 
L 1414 2176 
z
" id="CMR17-33" transform="scale(0.015625)"/>
       </defs>
       <use transform="scale(0.996264)" xlink:href="#CMR17-33"/>
      </g>
     </g>
    </g>
    <g id="xtick_5">
     <g id="text_5">
      <!-- $\mathdefault{4}$ -->
      <g style="fill:#262626;" transform="translate(256.460266 206.110347)scale(0.11 -0.11)">
       <defs>
        <path d="M 2150 4147 
C 2150 4281 2144 4288 2029 4288 
L 128 1254 
L 128 1088 
L 1779 1088 
L 1779 460 
C 1779 230 1766 166 1318 166 
L 1197 166 
L 1197 0 
C 1402 12 1747 12 1965 12 
C 2182 12 2528 12 2733 0 
L 2733 166 
L 2611 166 
C 2163 166 2150 230 2150 460 
L 2150 1088 
L 2803 1088 
L 2803 1254 
L 2150 1254 
L 2150 4147 
z
M 1798 3723 
L 1798 1254 
L 256 1254 
L 1798 3723 
z
" id="CMR17-34" transform="scale(0.015625)"/>
       </defs>
       <use transform="scale(0.996264)" xlink:href="#CMR17-34"/>
      </g>
     </g>
    </g>
   </g>
   <g id="matplotlib.axis_2">
    <g id="ytick_1">
     <g id="text_6">
      <!-- $\mathdefault{0.0}$ -->
      <g style="fill:#262626;" transform="translate(12.496924 192.805173)scale(0.11 -0.11)">
       <defs>
        <path d="M 1178 307 
C 1178 492 1024 620 870 620 
C 685 620 557 467 557 313 
C 557 128 710 0 864 0 
C 1050 0 1178 153 1178 307 
z
" id="CMMI12-3a" transform="scale(0.015625)"/>
       </defs>
       <use transform="scale(0.996264)" xlink:href="#CMR17-30"/>
       <use transform="translate(45.690477 0)scale(0.996264)" xlink:href="#CMMI12-3a"/>
       <use transform="translate(72.787654 0)scale(0.996264)" xlink:href="#CMR17-30"/>
      </g>
     </g>
    </g>
    <g id="ytick_2">
     <g id="text_7">
      <!-- $\mathdefault{0.5}$ -->
      <g style="fill:#262626;" transform="translate(12.496924 165.104064)scale(0.11 -0.11)">
       <defs>
        <path d="M 730 3750 
C 794 3724 1056 3641 1325 3641 
C 1920 3641 2246 3961 2432 4140 
C 2432 4191 2432 4224 2394 4224 
C 2387 4224 2374 4224 2323 4198 
C 2099 4102 1837 4032 1517 4032 
C 1325 4032 1037 4055 723 4191 
C 653 4224 640 4224 634 4224 
C 602 4224 595 4217 595 4090 
L 595 2231 
C 595 2113 595 2080 659 2080 
C 691 2080 704 2093 736 2139 
C 941 2435 1222 2560 1542 2560 
C 1766 2560 2246 2415 2246 1293 
C 2246 1087 2246 716 2054 422 
C 1894 159 1645 25 1370 25 
C 947 25 518 319 403 812 
C 429 806 480 793 506 793 
C 589 793 749 838 749 1036 
C 749 1209 627 1280 506 1280 
C 358 1280 262 1190 262 1011 
C 262 454 704 -128 1382 -128 
C 2042 -128 2669 441 2669 1267 
C 2669 2054 2170 2662 1549 2662 
C 1222 2662 947 2540 730 2304 
L 730 3750 
z
" id="CMR17-35" transform="scale(0.015625)"/>
       </defs>
       <use transform="scale(0.996264)" xlink:href="#CMR17-30"/>
       <use transform="translate(45.690477 0)scale(0.996264)" xlink:href="#CMMI12-3a"/>
       <use transform="translate(72.787654 0)scale(0.996264)" xlink:href="#CMR17-35"/>
      </g>
     </g>
    </g>
    <g id="ytick_3">
     <g id="text_8">
      <!-- $\mathdefault{1.0}$ -->
      <g style="fill:#262626;" transform="translate(12.496924 137.402954)scale(0.11 -0.11)">
       <use transform="scale(0.996264)" xlink:href="#CMR17-31"/>
       <use transform="translate(45.690477 0)scale(0.996264)" xlink:href="#CMMI12-3a"/>
       <use transform="translate(72.787654 0)scale(0.996264)" xlink:href="#CMR17-30"/>
      </g>
     </g>
    </g>
    <g id="ytick_4">
     <g id="text_9">
      <!-- $\mathdefault{1.5}$ -->
      <g style="fill:#262626;" transform="translate(12.496924 109.701845)scale(0.11 -0.11)">
       <use transform="scale(0.996264)" xlink:href="#CMR17-31"/>
       <use transform="translate(45.690477 0)scale(0.996264)" xlink:href="#CMMI12-3a"/>
       <use transform="translate(72.787654 0)scale(0.996264)" xlink:href="#CMR17-35"/>
      </g>
     </g>
    </g>
    <g id="ytick_5">
     <g id="text_10">
      <!-- $\mathdefault{2.0}$ -->
      <g style="fill:#262626;" transform="translate(12.496924 82.000736)scale(0.11 -0.11)">
       <use transform="scale(0.996264)" xlink:href="#CMR17-32"/>
       <use transform="translate(45.690477 0)scale(0.996264)" xlink:href="#CMMI12-3a"/>
       <use transform="translate(72.787654 0)scale(0.996264)" xlink:href="#CMR17-30"/>
      </g>
     </g>
    </g>
    <g id="ytick_6">
     <g id="text_11">
      <!-- $\mathdefault{2.5}$ -->
      <g style="fill:#262626;" transform="translate(12.496924 54.299626)scale(0.11 -0.11)">
       <use transform="scale(0.996264)" xlink:href="#CMR17-32"/>
       <use transform="translate(45.690477 0)scale(0.996264)" xlink:href="#CMMI12-3a"/>
       <use transform="translate(72.787654 0)scale(0.996264)" xlink:href="#CMR17-35"/>
      </g>
     </g>
    </g>
   </g>
   <g id="line2d_1">
    <path clip-path="url(#p0b0356da29)" d="M 36 186.135297 
L 42.926126 185.442381 
L 48.511712 184.666514 
L 52.98018 183.832869 
L 56.778378 182.906443 
L 59.906305 181.932178 
L 62.81081 180.793018 
L 65.268468 179.593404 
L 67.502701 178.256691 
L 69.513513 176.796343 
L 71.3009 175.240603 
L 73.088286 173.383872 
L 74.652252 171.458452 
L 76.216216 169.196004 
L 77.780179 166.537037 
L 79.344145 163.421963 
L 80.908108 159.802957 
L 82.695494 155.03536 
L 84.929727 148.301005 
L 87.834233 139.502111 
L 88.95135 136.727453 
L 89.845043 135.000552 
L 90.515313 134.066424 
L 91.185583 133.48215 
L 91.632433 133.298599 
L 92.079279 133.283554 
L 92.526126 133.436593 
L 93.196396 133.972535 
L 93.866665 134.853064 
L 94.760359 136.496974 
L 95.877475 139.145639 
L 97.441438 143.52882 
L 101.239641 154.40863 
L 103.027027 158.734273 
L 104.59099 161.954948 
L 106.154953 164.670244 
L 107.718916 166.930701 
L 109.282879 168.795298 
L 110.846842 170.321368 
L 112.410812 171.560156 
L 114.198198 172.680079 
L 115.985584 173.535926 
L 117.996394 174.236854 
L 120.007204 174.707287 
L 122.241443 175.006257 
L 124.699099 175.111418 
L 127.603602 174.994698 
L 130.954952 174.620313 
L 136.093694 173.784685 
L 141.009006 173.049708 
L 144.136932 172.805092 
L 146.818018 172.812244 
L 149.499098 173.049181 
L 152.180191 173.514544 
L 155.084694 174.243482 
L 158.882889 175.450136 
L 174.969366 180.874805 
L 179.884679 182.132553 
L 185.023414 183.212484 
L 190.60901 184.155114 
L 196.864875 184.983738 
L 204.237844 185.728958 
L 212.951352 186.379891 
L 223.67567 186.951263 
L 237.304504 187.446236 
L 255.401804 187.869302 
L 259.2 187.93602 
L 259.2 187.93602 
" style="fill:none;stroke:#4c72b0;stroke-linecap:round;stroke-width:1.5;"/>
   </g>
   <g id="line2d_2">
    <path clip-path="url(#p0b0356da29)" d="M 36 189 
L 60.8 188.8972 
L 63.48108 188.655981 
L 65.268468 188.275624 
L 66.609007 187.773495 
L 67.726124 187.137051 
L 68.843244 186.223482 
L 69.736937 185.231121 
L 70.63063 183.945773 
L 71.524323 182.303799 
L 72.418016 180.235377 
L 73.311709 177.666369 
L 74.205406 174.521077 
L 75.322522 169.667617 
L 76.439639 163.671945 
L 77.556755 156.439917 
L 78.897298 146.074139 
L 80.237838 133.93228 
L 82.025224 115.431285 
L 87.163963 59.890432 
L 88.28108 50.640847 
L 89.174773 44.748626 
L 90.068466 40.419086 
L 90.738736 38.291565 
L 91.185583 37.432048 
L 91.632433 37.029255 
L 91.855856 37.000446 
L 92.302702 37.288322 
L 92.749549 38.034216 
L 93.196396 39.231393 
L 93.866665 41.848608 
L 94.536935 45.403405 
L 95.430628 51.477566 
L 96.547745 60.914255 
L 97.888285 74.293952 
L 100.345948 101.712423 
L 102.803604 128.400039 
L 104.367567 143.199 
L 105.708106 154.021146 
L 107.048646 163.005526 
L 108.165763 169.121304 
L 109.282879 174.083667 
L 110.399996 178.017441 
L 111.517119 181.065649 
L 112.634235 183.375457 
L 113.751352 185.087714 
L 114.868468 186.329817 
L 115.985584 187.211789 
L 117.102701 187.824929 
L 118.443241 188.307578 
L 120.007204 188.639079 
L 122.241443 188.866589 
L 126.039639 188.979354 
L 138.774773 188.999992 
L 259.2 189 
L 259.2 189 
" style="fill:none;stroke:#dd8452;stroke-dasharray:5.55,2.4;stroke-dashoffset:0;stroke-width:1.5;"/>
   </g>
   <g id="line2d_3">
    <path clip-path="url(#p0b0356da29)" d="M 36 188.999833 
L 69.513513 188.889986 
L 77.333332 188.640215 
L 82.472071 188.267736 
L 86.493694 187.770132 
L 90.068466 187.10337 
L 93.196396 186.287989 
L 95.877475 185.373359 
L 98.558555 184.22096 
L 101.016217 182.924407 
L 103.473874 181.37082 
L 105.93153 179.537445 
L 108.389186 177.407409 
L 110.846842 174.972053 
L 113.304505 172.233231 
L 115.985584 168.916731 
L 119.113511 164.665431 
L 122.911713 159.090231 
L 132.295491 145.118487 
L 134.976577 141.630841 
L 137.21081 139.076778 
L 139.22162 137.114923 
L 141.009006 135.677446 
L 142.572969 134.678607 
L 144.136932 133.936877 
L 145.700902 133.463202 
L 147.041442 133.276005 
L 148.381982 133.293051 
L 149.722521 133.514149 
L 151.063061 133.936874 
L 152.627037 134.678611 
L 154.191 135.677449 
L 155.978387 137.11493 
L 157.765773 138.842062 
L 159.776583 141.091643 
L 162.234239 144.209806 
L 165.138742 148.287115 
L 169.607207 155.010339 
L 175.639636 164.029456 
L 178.990986 168.625882 
L 181.895488 172.233225 
L 184.576568 175.206088 
L 187.034237 177.613604 
L 189.491894 179.716171 
L 191.94955 181.523311 
L 194.407206 183.052519 
L 196.864875 184.32698 
L 199.545955 185.45815 
L 202.227034 186.354635 
L 205.131537 187.10337 
L 208.482887 187.735414 
L 212.281082 188.223042 
L 216.972972 188.591305 
L 223.228824 188.838183 
L 232.836038 188.96662 
L 258.082884 188.999785 
L 259.2 188.999833 
L 259.2 188.999833 
" style="fill:none;stroke:#55a868;stroke-dasharray:5.55,2.4;stroke-dashoffset:0;stroke-width:1.5;"/>
   </g>
   <g id="patch_3">
    <path d="M 36 189 
L 36 25.92 
" style="fill:none;stroke:#cccccc;stroke-linecap:square;stroke-linejoin:miter;stroke-width:1.25;"/>
   </g>
   <g id="patch_4">
    <path d="M 259.2 189 
L 259.2 25.92 
" style="fill:none;stroke:#cccccc;stroke-linecap:square;stroke-linejoin:miter;stroke-width:1.25;"/>
   </g>
   <g id="patch_5">
    <path d="M 36 189 
L 259.2 189 
" style="fill:none;stroke:#cccccc;stroke-linecap:square;stroke-linejoin:miter;stroke-width:1.25;"/>
   </g>
   <g id="patch_6">
    <path d="M 36 25.92 
L 259.2 25.92 
" style="fill:none;stroke:#cccccc;stroke-linecap:square;stroke-linejoin:miter;stroke-width:1.25;"/>
   </g>
   <g id="legend_1">
    <g id="patch_7">
     <path d="M 138.58297 80.712684 
L 251.5 80.712684 
Q 253.7 80.712684 253.7 78.512684 
L 253.7 33.62 
Q 253.7 31.42 251.5 31.42 
L 138.58297 31.42 
Q 136.38297 31.42 136.38297 33.62 
L 136.38297 78.512684 
Q 136.38297 80.712684 138.58297 80.712684 
z
" style="fill:#ffffff;opacity:0.8;stroke:#cccccc;stroke-linejoin:miter;"/>
    </g>
    <g id="line2d_4">
     <path d="M 140.78297 39.67 
L 162.78297 39.67 
" style="fill:none;stroke:#4c72b0;stroke-linecap:round;stroke-width:1.5;"/>
    </g>
    <g id="line2d_5"/>
    <g id="text_12">
     <!-- target -->
     <g style="fill:#262626;" transform="translate(171.58297 43.52)scale(0.11 -0.11)">
      <defs>
       <path d="M 1069 2380 
L 1901 2380 
L 1901 2752 
L 1069 2752 
L 1069 3520 
L 614 3520 
L 614 2752 
L 109 2752 
L 109 2380 
L 602 2380 
L 602 751 
C 602 384 685 -64 1107 -64 
C 1427 -64 1722 25 2003 172 
L 1901 551 
C 1747 416 1562 339 1363 339 
C 1082 339 1069 699 1069 860 
L 1069 2380 
z
" id="CMSS17-74" transform="scale(0.015625)"/>
       <path d="M 2406 1789 
C 2406 2399 1978 2816 1402 2816 
C 1120 2816 813 2764 461 2559 
L 499 2133 
C 659 2250 934 2438 1395 2438 
C 1722 2438 1920 2185 1920 1782 
L 1920 1536 
C 896 1504 256 1209 256 711 
C 256 452 416 -64 947 -64 
C 1043 -64 1562 -52 1933 224 
L 1933 -13 
L 2406 -13 
L 2406 1789 
z
M 1920 824 
C 1920 711 1920 559 1728 446 
C 1562 339 1350 326 1261 326 
C 941 326 723 503 723 723 
C 723 1165 1722 1209 1920 1216 
L 1920 824 
z
" id="CMSS17-61" transform="scale(0.015625)"/>
       <path d="M 954 1369 
C 954 1974 1395 2379 1958 2392 
L 1958 2816 
C 1549 2809 1165 2604 934 2270 
L 934 2783 
L 480 2783 
L 480 0 
L 954 0 
L 954 1369 
z
" id="CMSS17-72" transform="scale(0.015625)"/>
       <path d="M 2848 2816 
C 2483 2809 2170 2739 1914 2617 
C 1702 2783 1485 2816 1338 2816 
C 781 2816 358 2356 358 1824 
C 358 1481 550 1222 563 1209 
C 448 1049 384 876 384 684 
C 384 460 474 300 544 211 
C 211 6 166 -308 166 -429 
C 166 -896 749 -1280 1498 -1280 
C 2253 -1280 2835 -896 2835 -423 
C 2835 460 1856 467 1587 467 
L 1069 467 
C 973 467 717 467 717 793 
C 717 921 774 1004 781 1011 
C 877 940 1075 832 1338 832 
C 1869 832 2310 1279 2310 1824 
C 2310 2128 2170 2349 2112 2425 
L 2131 2425 
C 2150 2425 2419 2444 2515 2444 
C 2720 2444 2739 2438 2918 2419 
L 2848 2816 
z
M 1338 1184 
C 1120 1184 813 1317 813 1824 
C 813 2375 1165 2463 1331 2463 
C 1549 2463 1856 2330 1856 1824 
C 1856 1272 1504 1184 1338 1184 
z
M 1581 0 
C 1734 0 2381 0 2381 -436 
C 2381 -711 1984 -928 1504 -928 
C 1018 -928 621 -717 621 -429 
C 621 -397 621 0 1062 0 
L 1581 0 
z
" id="CMSS17-67" transform="scale(0.015625)"/>
       <path d="M 2502 1375 
C 2502 1587 2490 2001 2285 2347 
C 2061 2713 1696 2816 1421 2816 
C 755 2816 192 2184 192 1363 
C 192 579 774 -64 1510 -64 
C 1798 -64 2150 19 2470 249 
C 2470 275 2458 414 2451 421 
C 2451 433 2432 629 2432 655 
C 2125 408 1773 326 1517 326 
C 1107 326 666 667 646 1375 
L 2502 1375 
z
M 698 1728 
C 781 2086 1062 2425 1421 2425 
C 1517 2425 1965 2412 2080 1728 
L 698 1728 
z
" id="CMSS17-65" transform="scale(0.015625)"/>
      </defs>
      <use transform="scale(0.996264)" xlink:href="#CMSS17-74"/>
      <use transform="translate(33.831567 0)scale(0.996264)" xlink:href="#CMSS17-61"/>
      <use transform="translate(76.151033 0)scale(0.996264)" xlink:href="#CMSS17-72"/>
      <use transform="translate(108.060806 0)scale(0.996264)" xlink:href="#CMSS17-67"/>
      <use transform="translate(154.904429 0)scale(0.996264)" xlink:href="#CMSS17-65"/>
      <use transform="translate(196.543252 0)scale(0.996264)" xlink:href="#CMSS17-74"/>
     </g>
    </g>
    <g id="line2d_6">
     <path d="M 140.78297 55.000895 
L 162.78297 55.000895 
" style="fill:none;stroke:#dd8452;stroke-dasharray:5.55,2.4;stroke-dashoffset:0;stroke-width:1.5;"/>
    </g>
    <g id="line2d_7"/>
    <g id="text_13">
     <!-- laplace at x=100 -->
     <g style="fill:#262626;" transform="translate(171.58297 58.850895)scale(0.11 -0.11)">
      <defs>
       <path d="M 947 4416 
L 474 4416 
L 474 0 
L 947 0 
L 947 4416 
z
" id="CMSS17-6c" transform="scale(0.015625)"/>
       <path d="M 966 275 
C 1178 70 1466 -64 1773 -64 
C 2368 -64 2880 553 2880 1382 
C 2880 2147 2496 2816 1946 2816 
C 1626 2816 1242 2700 954 2470 
L 954 2764 
L 480 2764 
L 480 -1280 
L 966 -1280 
L 966 275 
z
M 966 2088 
C 1018 2166 1235 2412 1587 2412 
C 2035 2412 2394 1946 2394 1382 
C 2394 741 1958 326 1530 326 
C 1402 326 1267 358 1139 468 
C 966 624 966 721 966 812 
L 966 2088 
z
" id="CMSS17-70" transform="scale(0.015625)"/>
       <path d="M 2464 2540 
C 2464 2585 2170 2713 2093 2739 
C 1882 2816 1613 2816 1542 2816 
C 710 2816 211 2092 211 1363 
C 211 595 768 -64 1517 -64 
C 1946 -64 2253 76 2502 243 
L 2464 665 
C 2189 454 1869 339 1523 339 
C 1024 339 698 774 698 1369 
C 698 1830 909 2412 1549 2412 
C 1901 2412 2099 2342 2394 2143 
L 2464 2540 
z
" id="CMSS17-63" transform="scale(0.015625)"/>
       <path d="M 1587 1420 
L 2656 2752 
L 2099 2752 
L 1363 1785 
L 602 2752 
L 32 2752 
L 1139 1420 
L 0 0 
L 563 0 
L 1363 1126 
L 2195 0 
L 2758 0 
L 1587 1420 
z
" id="CMSS17-78" transform="scale(0.015625)"/>
       <path d="M 4147 2048 
C 4243 2048 4339 2048 4339 2156 
C 4339 2272 4230 2272 4122 2272 
L 550 2272 
C 442 2272 333 2272 333 2156 
C 333 2048 429 2048 525 2048 
L 4147 2048 
z
M 4122 927 
C 4230 927 4339 927 4339 1043 
C 4339 1152 4243 1152 4147 1152 
L 525 1152 
C 429 1152 333 1152 333 1043 
C 333 927 442 927 550 927 
L 4122 927 
z
" id="CMSS17-3d" transform="scale(0.015625)"/>
       <path d="M 1818 4288 
L 1696 4288 
C 1350 3949 947 3902 538 3891 
L 538 3520 
C 723 3526 1024 3539 1325 3673 
L 1325 371 
L 570 371 
L 570 0 
L 2573 0 
L 2573 371 
L 1818 371 
L 1818 4288 
z
" id="CMSS17-31" transform="scale(0.015625)"/>
       <path d="M 2758 2073 
C 2758 2439 2752 3120 2490 3647 
C 2227 4153 1805 4288 1504 4288 
C 1069 4288 698 4031 506 3621 
C 301 3191 243 2748 243 2073 
C 243 1611 262 1046 493 551 
C 755 6 1197 -128 1498 -128 
C 1894 -128 2278 83 2496 525 
C 2720 988 2758 1495 2758 2073 
z
M 1498 262 
C 1011 262 864 821 819 1007 
C 742 1328 730 1636 730 2144 
C 730 2542 730 2992 851 3345 
C 998 3756 1254 3897 1498 3897 
C 1971 3897 2125 3422 2176 3255 
C 2272 2915 2272 2516 2272 2144 
C 2272 1546 2272 262 1498 262 
z
" id="CMSS17-30" transform="scale(0.015625)"/>
      </defs>
      <use transform="scale(0.996264)" xlink:href="#CMSS17-6c"/>
      <use transform="translate(22.180723 0)scale(0.996264)" xlink:href="#CMSS17-61"/>
      <use transform="translate(67.102644 0)scale(0.996264)" xlink:href="#CMSS17-70"/>
      <use transform="translate(115.307587 0)scale(0.996264)" xlink:href="#CMSS17-6c"/>
      <use transform="translate(137.48831 0)scale(0.996264)" xlink:href="#CMSS17-61"/>
      <use transform="translate(182.41023 0)scale(0.996264)" xlink:href="#CMSS17-63"/>
      <use transform="translate(224.049053 0)scale(0.996264)" xlink:href="#CMSS17-65"/>
      <use transform="translate(296.916987 0)scale(0.996264)" xlink:href="#CMSS17-61"/>
      <use transform="translate(341.838908 0)scale(0.996264)" xlink:href="#CMSS17-74"/>
      <use transform="translate(406.899587 0)scale(0.996264)" xlink:href="#CMSS17-78"/>
      <use transform="translate(449.899729 0)scale(0.996264)" xlink:href="#CMSS17-3d"/>
      <use transform="translate(522.767664 0)scale(0.996264)" xlink:href="#CMSS17-31"/>
      <use transform="translate(569.611287 0)scale(0.996264)" xlink:href="#CMSS17-30"/>
      <use transform="translate(616.454911 0)scale(0.996264)" xlink:href="#CMSS17-30"/>
     </g>
    </g>
    <g id="line2d_8">
     <path d="M 140.78297 70.331789 
L 162.78297 70.331789 
" style="fill:none;stroke:#55a868;stroke-dasharray:5.55,2.4;stroke-dashoffset:0;stroke-width:1.5;"/>
    </g>
    <g id="line2d_9"/>
    <g id="text_14">
     <!-- laplace at x=200 -->
     <g style="fill:#262626;" transform="translate(171.58297 74.181789)scale(0.11 -0.11)">
      <defs>
       <path d="M 1651 1353 
C 1830 1538 2099 1761 2285 1984 
C 2464 2201 2701 2507 2701 2953 
C 2701 3655 2227 4288 1421 4288 
C 787 4288 422 3891 250 3272 
L 499 2928 
C 640 3508 838 3878 1338 3878 
C 1888 3878 2195 3431 2195 2940 
C 2195 2354 1747 1901 1408 1563 
C 1030 1187 659 805 301 409 
L 301 0 
L 2701 0 
L 2701 435 
L 1613 435 
C 1536 435 1459 428 1382 428 
L 742 428 
L 742 435 
L 1651 1353 
z
" id="CMSS17-32" transform="scale(0.015625)"/>
      </defs>
      <use transform="scale(0.996264)" xlink:href="#CMSS17-6c"/>
      <use transform="translate(22.180723 0)scale(0.996264)" xlink:href="#CMSS17-61"/>
      <use transform="translate(67.102644 0)scale(0.996264)" xlink:href="#CMSS17-70"/>
      <use transform="translate(115.307587 0)scale(0.996264)" xlink:href="#CMSS17-6c"/>
      <use transform="translate(137.48831 0)scale(0.996264)" xlink:href="#CMSS17-61"/>
      <use transform="translate(182.41023 0)scale(0.996264)" xlink:href="#CMSS17-63"/>
      <use transform="translate(224.049053 0)scale(0.996264)" xlink:href="#CMSS17-65"/>
      <use transform="translate(296.916987 0)scale(0.996264)" xlink:href="#CMSS17-61"/>
      <use transform="translate(341.838908 0)scale(0.996264)" xlink:href="#CMSS17-74"/>
      <use transform="translate(406.899587 0)scale(0.996264)" xlink:href="#CMSS17-78"/>
      <use transform="translate(449.899729 0)scale(0.996264)" xlink:href="#CMSS17-3d"/>
      <use transform="translate(522.767664 0)scale(0.996264)" xlink:href="#CMSS17-32"/>
      <use transform="translate(569.611287 0)scale(0.996264)" xlink:href="#CMSS17-30"/>
      <use transform="translate(616.454911 0)scale(0.996264)" xlink:href="#CMSS17-30"/>
     </g>
    </g>
   </g>
  </g>
 </g>
 <defs>
  <clipPath id="p0b0356da29">
   <rect height="163.08" width="223.2" x="36" y="25.92"/>
  </clipPath>
 </defs>
</svg>
